<svg width="83" height="72" viewBox="0 0 83 72" fill="none" xmlns="http://www.w3.org/2000/svg">
<g filter="url(#filter0_d_75_725)">
<path d="M60.3748 64H60.3675L21.9346 63.7276C21.6552 63.7253 21.3861 63.6089 21.1778 63.4002C20.9696 63.1916 20.8365 62.9051 20.8035 62.5944L16.9374 25.8027C16.9139 25.5653 16.8145 25.3455 16.6577 25.1837C16.5008 25.0219 16.297 24.929 16.0838 24.9221C13.0326 24.8107 5.77351 24.032 4.26925 19.2211C2.92953 14.9365 6.59389 8.61696 15.1604 0.437214C15.3061 0.297633 15.4808 0.20115 15.6683 0.156596C15.8559 0.112042 16.0505 0.120827 16.2343 0.182155C16.418 0.243482 16.5851 0.355394 16.7203 0.507662C16.8555 0.659931 16.9545 0.847692 17.0082 1.05381L21.4552 18.2317C21.5095 18.4379 21.6214 18.6191 21.7744 18.7487C21.9275 18.8784 22.1137 18.9497 22.3056 18.9522L58.7458 19.226C58.9367 19.2282 59.1232 19.1614 59.2775 19.0354C59.4318 18.9095 59.5457 18.7311 59.6022 18.5269L64.5505 0.899211C64.6055 0.702477 64.7021 0.523489 64.832 0.377426C64.962 0.231363 65.1215 0.122524 65.297 0.0601342C65.4725 -0.00225572 65.6588 -0.0163499 65.8402 0.0190295C66.0216 0.0544089 66.1927 0.138227 66.339 0.263382C69.7154 3.15065 80.5927 13.0632 78.8025 19.4028C77.8648 22.7232 73.6356 24.5739 66.2323 24.9039C66.0197 24.9121 65.8168 25.0055 65.6606 25.1672C65.5044 25.3288 65.4053 25.5479 65.3813 25.7845L61.5134 62.8654C61.4811 63.178 61.3472 63.4664 61.1372 63.6756C60.9273 63.8849 60.6559 64.0003 60.3748 64Z" fill="#38365B"/>
</g>
<defs>
<filter id="filter0_d_75_725" x="0" y="0" width="83" height="72" filterUnits="userSpaceOnUse" color-interpolation-filters="sRGB">
<feFlood flood-opacity="0" result="BackgroundImageFix"/>
<feColorMatrix in="SourceAlpha" type="matrix" values="0 0 0 0 0 0 0 0 0 0 0 0 0 0 0 0 0 0 127 0" result="hardAlpha"/>
<feOffset dy="4"/>
<feGaussianBlur stdDeviation="2"/>
<feComposite in2="hardAlpha" operator="out"/>
<feColorMatrix type="matrix" values="0 0 0 0 0 0 0 0 0 0 0 0 0 0 0 0 0 0 0.25 0"/>
<feBlend mode="normal" in2="BackgroundImageFix" result="effect1_dropShadow_75_725"/>
<feBlend mode="normal" in="SourceGraphic" in2="effect1_dropShadow_75_725" result="shape"/>
</filter>
</defs>
</svg>
