<svg width="141" height="77" viewBox="0 0 141 77" fill="none" xmlns="http://www.w3.org/2000/svg">
<g clip-path="url(#clip0_75_122)">
<path d="M18.9607 40.1337H14.4483C14.2896 40.1337 14.1374 40.1966 14.0252 40.3087C13.913 40.4208 13.85 40.5728 13.85 40.7313V42.7097C13.85 42.8681 13.913 43.0201 14.0252 43.1322C14.1374 43.2443 14.2896 43.3072 14.4483 43.3072H15.196V46.2715H18.2129V43.3072H18.9607C19.1194 43.3072 19.2715 43.2443 19.3837 43.1322C19.4959 43.0201 19.559 42.8681 19.559 42.7097V40.7313C19.559 40.5728 19.4959 40.4208 19.3837 40.3087C19.2715 40.1966 19.1194 40.1337 18.9607 40.1337Z" fill="#6C63FF"/>
<path d="M23.4804 58.2399C20.7168 54.2007 19.3041 49.3914 19.4444 44.5011C19.447 44.3882 19.4103 44.278 19.3407 44.1891C19.2711 44.1002 19.1728 44.0381 19.0625 44.0133V43.1585H14.2968V44.0015H14.2311C14.1639 44.0016 14.0974 44.0155 14.0358 44.0424C13.9743 44.0693 13.9189 44.1086 13.8732 44.1578C13.8275 44.207 13.7924 44.2652 13.7702 44.3285C13.748 44.3919 13.7391 44.4591 13.7441 44.5261C14.1195 49.7539 12.8517 54.442 9.94065 58.5905C9.77313 58.8289 9.68755 59.1152 9.69675 59.4063L10.2179 75.5074C10.2304 75.8665 10.3813 76.207 10.6391 76.4576C10.8969 76.7083 11.2416 76.8498 11.6013 76.8527H22.3807C22.7446 76.8497 23.0929 76.7049 23.3515 76.4492C23.6101 76.1935 23.7585 75.8471 23.7651 75.4837L23.9659 59.8508C23.9718 59.277 23.8025 58.7151 23.4804 58.2399Z" fill="#8B0000"/>
<path opacity="0.2" d="M18.02 40.7783C18.02 41.1203 17.884 41.4482 17.642 41.69C17.3999 41.9317 17.0716 42.0676 16.7293 42.0676C16.387 42.0676 16.0587 41.9317 15.8166 41.69C15.5746 41.4482 15.4386 41.1203 15.4386 40.7783" fill="black"/>
<path d="M21.774 63.5882H20.4687C20.3441 62.7805 19.9342 62.044 19.3131 61.5119C18.6921 60.9799 17.9009 60.6874 17.0827 60.6874C16.2645 60.6874 15.4734 60.9799 14.8523 61.5119C14.2313 62.044 13.8214 62.7805 13.6968 63.5882H12.3914C12.2525 63.5882 12.1152 63.6182 11.9891 63.6761C11.8629 63.7341 11.7507 63.8186 11.6603 63.9239C11.5698 64.0292 11.5033 64.1528 11.4651 64.2861C11.427 64.4195 11.4182 64.5596 11.4393 64.6967L12.8571 73.9022H20.9986L22.7208 64.7277C22.7469 64.5888 22.742 64.4458 22.7065 64.3089C22.6709 64.172 22.6057 64.0447 22.5153 63.9359C22.4249 63.8271 22.3116 63.7396 22.1835 63.6795C22.0554 63.6194 21.9155 63.5882 21.774 63.5882Z" fill="#6C63FF"/>
<path d="M131.465 48.7917L131.152 61.2918L130.764 76.7925H117.566L117.111 58.6316L116.865 48.7917H131.465Z" fill="#E6E6E6"/>
<path d="M125.041 42.1414H123.172V66.8756H125.041V42.1414Z" fill="#6C63FF"/>
<path d="M130.531 58.2104L130.177 75.9771H118.147L117.733 55.1615C118.817 54.8574 119.952 54.7796 121.067 54.9328C122.182 55.086 123.254 55.467 124.215 56.0521C126.225 57.2396 128.484 57.8788 130.531 58.2104Z" fill="#B5A0A0"/>
<path d="M121.125 60.2105H119.41V61.9234H121.125V60.2105Z" fill="#E6E6E6"/>
<path d="M122.293 56.7104H120.578V58.4233H122.293V56.7104Z" fill="#E6E6E6"/>
<path d="M125.976 59.1335L124.598 58.1131L123.577 59.4889L124.954 60.5093L125.976 59.1335Z" fill="#E6E6E6"/>
<path d="M129.074 62.1684L127.697 61.1481L126.675 62.5239L128.052 63.5442L129.074 62.1684Z" fill="#E6E6E6"/>
<path d="M123.818 63.9185L122.44 62.8981L121.419 64.2739L122.796 65.2943L123.818 63.9185Z" fill="#E6E6E6"/>
<path d="M127.844 56.0252C128.038 56.0252 128.195 55.8685 128.195 55.6752C128.195 55.4819 128.038 55.3252 127.844 55.3252C127.651 55.3252 127.494 55.4819 127.494 55.6752C127.494 55.8685 127.651 56.0252 127.844 56.0252Z" fill="#3F3D56"/>
<path d="M120.719 53.6918C120.913 53.6918 121.07 53.5351 121.07 53.3418C121.07 53.1485 120.913 52.9918 120.719 52.9918C120.526 52.9918 120.369 53.1485 120.369 53.3418C120.369 53.5351 120.526 53.6918 120.719 53.6918Z" fill="#3F3D56"/>
<path d="M126.676 51.2417C126.87 51.2417 127.027 51.085 127.027 50.8917C127.027 50.6984 126.87 50.5417 126.676 50.5417C126.483 50.5417 126.326 50.6984 126.326 50.8917C126.326 51.085 126.483 51.2417 126.676 51.2417Z" fill="#3F3D56"/>
<path d="M70.0565 76.423C91.2569 76.423 108.443 59.2563 108.443 38.0801C108.443 16.9039 91.2569 -0.262802 70.0565 -0.262802C48.8562 -0.262802 31.6699 16.9039 31.6699 38.0801C31.6699 59.2563 48.8562 76.423 70.0565 76.423Z" fill="#DCDBE9"/>
<path opacity="0.2" d="M70.5807 66.3295C64.0985 66.3295 57.8169 64.0844 52.8061 59.9768C47.7953 55.8692 44.3654 50.1532 43.1009 43.8028C41.8363 37.4524 42.8152 30.8605 45.8709 25.1503C48.9266 19.44 53.87 14.9647 59.8588 12.487C65.8476 10.0092 72.5112 9.68221 78.7142 11.5618C84.9173 13.4413 90.276 17.4111 93.8773 22.7947C97.4786 28.1783 99.0996 34.6426 98.4643 41.0863C97.8289 47.5299 94.9764 53.5541 90.3928 58.1325C87.7971 60.7394 84.7095 62.8062 81.3087 64.2132C77.908 65.6203 74.2616 66.3396 70.5807 66.3295ZM70.5807 12.0823C56.084 12.0823 44.2902 23.8628 44.2902 38.3429C44.2902 52.823 56.084 64.6035 70.5807 64.6035C85.0773 64.6035 96.8712 52.823 96.8712 38.3429C96.8712 23.8628 85.0773 12.0823 70.5807 12.0823Z" fill="black"/>
<path d="M70.6662 64.4963C85.6633 64.4963 97.8208 52.3527 97.8208 37.3727C97.8208 22.3928 85.6633 10.2491 70.6662 10.2491C55.6692 10.2491 43.5117 22.3928 43.5117 37.3727C43.5117 52.3527 55.6692 64.4963 70.6662 64.4963Z" fill="#9C6B6B"/>
<path d="M50.3865 27.4973C50.1805 27.0944 50.0561 26.6549 50.0203 26.204C49.9845 25.7531 50.0381 25.2995 50.1779 24.8692C50.3177 24.439 50.541 24.0405 50.8351 23.6965C51.1292 23.3525 51.4883 23.0698 51.8919 22.8645C52.2955 22.6592 52.7356 22.5354 53.1871 22.5001C53.6385 22.4649 54.0926 22.5188 54.5232 22.6589C54.9538 22.799 55.3525 23.0225 55.6966 23.3167C56.0407 23.6108 56.3233 23.9698 56.5284 24.3731L64.2002 39.4211C64.4062 39.824 64.5306 40.2635 64.5664 40.7144C64.6022 41.1653 64.5486 41.6189 64.4088 42.0492C64.269 42.4794 64.0457 42.8779 63.7516 43.2219C63.4575 43.5659 63.0984 43.8486 62.6948 44.0539C62.2912 44.2592 61.8511 44.383 61.3996 44.4183C60.9481 44.4535 60.4941 44.3996 60.0635 44.2595C59.6329 44.1194 59.2342 43.8958 58.8901 43.6017C58.546 43.3076 58.2634 42.9486 58.0583 42.5453L50.3865 27.4973Z" fill="#FF6584"/>
<path opacity="0.2" d="M51.2422 29.1757L50.8881 28.4812C52.6552 27.1097 54.7303 26.1011 57.03 25.357L57.3841 26.0515C54.8951 26.5693 52.7775 27.5274 51.2422 29.1757Z" fill="black"/>
<path opacity="0.2" d="M52.8946 32.4168L52.5405 31.7223C54.3076 30.3508 56.3827 29.3422 58.6824 28.5981L59.0365 29.2926C56.5475 29.8104 54.4299 30.7685 52.8946 32.4168Z" fill="black"/>
<path opacity="0.2" d="M54.5469 35.658L54.1929 34.9634C55.96 33.5919 58.0351 32.5833 60.3348 31.8392L60.6889 32.5338C58.1999 33.0515 56.0823 34.0096 54.5469 35.658Z" fill="black"/>
<path opacity="0.2" d="M56.1993 38.899L55.8453 38.2045C57.6124 36.833 59.6875 35.8244 61.9872 35.0803L62.3413 35.7749C59.8523 36.2926 57.7347 37.2507 56.1993 38.899Z" fill="black"/>
<path opacity="0.2" d="M57.8517 42.1402L57.4977 41.4456C59.2648 40.0741 61.3399 39.0655 63.6396 38.3214L63.9937 39.016C61.5047 39.5337 59.3871 40.4918 57.8517 42.1402Z" fill="black"/>
<path d="M44.6308 33.1307C44.4249 32.7278 44.3005 32.2884 44.2648 31.8375C44.229 31.3866 44.2826 30.933 44.4224 30.5028C44.5623 30.0726 44.7856 29.6741 45.0797 29.3301C45.3738 28.9862 45.7329 28.7035 46.1364 28.4982C46.5399 28.293 46.98 28.1692 47.4315 28.1339C47.8829 28.0986 48.3369 28.1525 48.7675 28.2926C49.1981 28.4327 49.5968 28.6562 49.9409 28.9502C50.285 29.2443 50.5676 29.6033 50.7727 30.0065L58.4446 45.0545C58.8582 45.8679 58.9316 46.8121 58.6487 47.6796C58.3658 48.547 57.7498 49.2669 56.9359 49.6809C56.1219 50.0949 55.1768 50.1692 54.308 49.8875C53.4393 49.6059 52.718 48.9913 52.3026 48.1787L44.6308 33.1307Z" fill="#FF6584"/>
<path opacity="0.2" d="M45.4865 34.8091L45.1324 34.1146C46.8995 32.7431 48.9746 31.7345 51.2744 30.9904L51.6284 31.685C49.1395 32.2027 47.0219 33.1608 45.4865 34.8091Z" fill="black"/>
<path opacity="0.2" d="M47.1389 38.0502L46.7848 37.3557C48.5519 35.9842 50.627 34.9756 52.9268 34.2315L53.2808 34.9261C50.7918 35.4438 48.6743 36.4019 47.1389 38.0502Z" fill="black"/>
<path opacity="0.2" d="M48.7913 41.2914L48.4372 40.5969C50.2043 39.2254 52.2794 38.2167 54.5792 37.4727L54.9332 38.1672C52.4442 38.6849 50.3267 39.643 48.7913 41.2914Z" fill="black"/>
<path opacity="0.2" d="M50.4437 44.5325L50.0896 43.8379C51.8567 42.4664 53.9318 41.4578 56.2316 40.7137L56.5856 41.4083C54.0966 41.926 51.9791 42.8841 50.4437 44.5325Z" fill="black"/>
<path opacity="0.2" d="M52.0961 47.7736L51.742 47.0791C53.5091 45.7076 55.5842 44.6989 57.884 43.9549L58.238 44.6494C55.749 45.1671 53.6315 46.1252 52.0961 47.7736Z" fill="black"/>
<path d="M88.7248 39.2059L88.7491 39.2059C89.5754 39.2129 90.3846 38.9709 91.0712 38.5115C91.7578 38.0521 92.2898 37.3968 92.5979 36.6308C93.2314 35.0311 93.5508 33.3244 93.5383 31.6041C93.4952 24.3225 87.5645 18.3488 80.2752 18.2481C77.1709 18.2047 74.147 19.2349 71.7162 21.164C69.2854 23.0932 67.5972 25.8026 66.9379 28.833C66.2785 31.8634 66.6886 35.0283 68.0985 37.7912C69.5084 40.5541 71.8315 42.745 74.6738 43.9926C75.425 44.3248 76.2591 44.4225 77.0668 44.2728C77.8745 44.1232 78.6181 43.7333 79.2001 43.1542C80.4483 41.9008 81.9326 40.9067 83.5673 40.229C85.2021 39.5514 86.9549 39.2037 88.7248 39.2059Z" fill="#E6E6E6"/>
<path d="M81.8128 35.1374C84.2668 35.1374 86.2562 33.1502 86.2562 30.699C86.2562 28.2477 84.2668 26.2606 81.8128 26.2606C79.3587 26.2606 77.3693 28.2477 77.3693 30.699C77.3693 33.1502 79.3587 35.1374 81.8128 35.1374Z" fill="#F9A825"/>
<path d="M72.1555 30.1999C72.4446 30.1999 72.679 29.9658 72.679 29.677C72.679 29.3883 72.4446 29.1542 72.1555 29.1542C71.8664 29.1542 71.6321 29.3883 71.6321 29.677C71.6321 29.9658 71.8664 30.1999 72.1555 30.1999Z" fill="#3F3D56"/>
<path d="M54.8754 30.693C55.1645 30.693 55.3988 30.4589 55.3988 30.1702C55.3988 29.8814 55.1645 29.6473 54.8754 29.6473C54.5863 29.6473 54.3519 29.8814 54.3519 30.1702C54.3519 30.4589 54.5863 30.693 54.8754 30.693Z" fill="#3F3D56"/>
<path d="M74.9453 24.7811C75.2344 24.7811 75.4688 24.547 75.4688 24.2582C75.4688 23.9695 75.2344 23.7354 74.9453 23.7354C74.6562 23.7354 74.4219 23.9695 74.4219 24.2582C74.4219 24.547 74.6562 24.7811 74.9453 24.7811Z" fill="#3F3D56"/>
<path d="M74.9305 39.8521C75.2196 39.8521 75.4539 39.618 75.4539 39.3292C75.4539 39.0404 75.2196 38.8064 74.9305 38.8064C74.6414 38.8064 74.407 39.0404 74.407 39.3292C74.407 39.618 74.6414 39.8521 74.9305 39.8521Z" fill="#3F3D56"/>
<path d="M85.2985 23.7012C85.5876 23.7012 85.822 23.4671 85.822 23.1784C85.822 22.8896 85.5876 22.6555 85.2985 22.6555C85.0094 22.6555 84.7751 22.8896 84.7751 23.1784C84.7751 23.4671 85.0094 23.7012 85.2985 23.7012Z" fill="#3F3D56"/>
<path d="M51.4788 38.0027C51.7679 38.0027 52.0023 37.7687 52.0023 37.4799C52.0023 37.1911 51.7679 36.957 51.4788 36.957C51.1897 36.957 50.9554 37.1911 50.9554 37.4799C50.9554 37.7687 51.1897 38.0027 51.4788 38.0027Z" fill="#3F3D56"/>
<path d="M55.3051 45.5234C55.5942 45.5234 55.8286 45.2893 55.8286 45.0005C55.8286 44.7118 55.5942 44.4777 55.3051 44.4777C55.016 44.4777 54.7817 44.7118 54.7817 45.0005C54.7817 45.2893 55.016 45.5234 55.3051 45.5234Z" fill="#3F3D56"/>
<path d="M79.3442 47.9595C80.4349 47.9595 81.3191 47.0763 81.3191 45.9868C81.3191 44.8974 80.4349 44.0142 79.3442 44.0142C78.2535 44.0142 77.3693 44.8974 77.3693 45.9868C77.3693 47.0763 78.2535 47.9595 79.3442 47.9595Z" fill="#FF6584"/>
<path opacity="0.2" d="M80.8253 46.1101C80.8253 46.5025 80.6693 46.8788 80.3915 47.1563C80.1137 47.4337 79.737 47.5896 79.3442 47.5896C78.9514 47.5896 78.5746 47.4337 78.2968 47.1563C78.0191 46.8788 77.863 46.5025 77.863 46.1101" fill="black"/>
<path opacity="0.2" d="M77.863 45.8635C77.863 45.4712 78.0191 45.0948 78.2968 44.8174C78.5746 44.5399 78.9514 44.3841 79.3442 44.3841C79.737 44.3841 80.1137 44.5399 80.3915 44.8174C80.6693 45.0948 80.8253 45.4712 80.8253 45.8635" fill="black"/>
<path d="M78.6036 45.4937C78.6718 45.4937 78.727 45.4109 78.727 45.3087C78.727 45.2066 78.6718 45.1238 78.6036 45.1238C78.5354 45.1238 78.4802 45.2066 78.4802 45.3087C78.4802 45.4109 78.5354 45.4937 78.6036 45.4937Z" fill="#FF6584"/>
<path d="M79.3442 45.2471C79.4123 45.2471 79.4676 45.1643 79.4676 45.0622C79.4676 44.96 79.4123 44.8772 79.3442 44.8772C79.276 44.8772 79.2207 44.96 79.2207 45.0622C79.2207 45.1643 79.276 45.2471 79.3442 45.2471Z" fill="#FF6584"/>
<path d="M79.3442 46.8499C79.4123 46.8499 79.4676 46.7671 79.4676 46.6649C79.4676 46.5628 79.4123 46.48 79.3442 46.48C79.276 46.48 79.2207 46.5628 79.2207 46.6649C79.2207 46.7671 79.276 46.8499 79.3442 46.8499Z" fill="#FF6584"/>
<path d="M80.0847 45.8635C80.1529 45.8635 80.2082 45.7807 80.2082 45.6786C80.2082 45.5765 80.1529 45.4937 80.0847 45.4937C80.0166 45.4937 79.9613 45.5765 79.9613 45.6786C79.9613 45.7807 80.0166 45.8635 80.0847 45.8635Z" fill="#FF6584"/>
<path d="M79.9613 47.2197C80.0295 47.2197 80.0848 47.1369 80.0848 47.0348C80.0848 46.9327 80.0295 46.8499 79.9613 46.8499C79.8932 46.8499 79.8379 46.9327 79.8379 47.0348C79.8379 47.1369 79.8932 47.2197 79.9613 47.2197Z" fill="#FF6584"/>
<path d="M78.4802 46.6033C78.5483 46.6033 78.6036 46.5205 78.6036 46.4183C78.6036 46.3162 78.5483 46.2334 78.4802 46.2334C78.412 46.2334 78.3567 46.3162 78.3567 46.4183C78.3567 46.5205 78.412 46.6033 78.4802 46.6033Z" fill="#FF6584"/>
<path d="M83.2939 42.658C84.3846 42.658 85.2688 41.7748 85.2688 40.6854C85.2688 39.5959 84.3846 38.7128 83.2939 38.7128C82.2032 38.7128 81.3191 39.5959 81.3191 40.6854C81.3191 41.7748 82.2032 42.658 83.2939 42.658Z" fill="#FF6584"/>
<path opacity="0.2" d="M84.7751 40.8087C84.7751 41.2011 84.619 41.5774 84.3413 41.8548C84.0635 42.1323 83.6868 42.2882 83.2939 42.2882C82.9011 42.2882 82.5244 42.1323 82.2466 41.8548C81.9688 41.5774 81.8128 41.2011 81.8128 40.8087" fill="black"/>
<path opacity="0.2" d="M81.8128 40.5621C81.8128 40.1697 81.9688 39.7934 82.2466 39.516C82.5244 39.2385 82.9011 39.0826 83.2939 39.0826C83.6868 39.0826 84.0635 39.2385 84.3413 39.516C84.619 39.7934 84.7751 40.1697 84.7751 40.5621" fill="black"/>
<path d="M82.5533 40.1922C82.6215 40.1922 82.6768 40.1094 82.6768 40.0073C82.6768 39.9052 82.6215 39.8224 82.5533 39.8224C82.4852 39.8224 82.4299 39.9052 82.4299 40.0073C82.4299 40.1094 82.4852 40.1922 82.5533 40.1922Z" fill="#FF6584"/>
<path d="M83.2939 39.9457C83.3621 39.9457 83.4174 39.8629 83.4174 39.7607C83.4174 39.6586 83.3621 39.5758 83.2939 39.5758C83.2258 39.5758 83.1705 39.6586 83.1705 39.7607C83.1705 39.8629 83.2258 39.9457 83.2939 39.9457Z" fill="#FF6584"/>
<path d="M83.2939 41.5484C83.3621 41.5484 83.4174 41.4656 83.4174 41.3635C83.4174 41.2614 83.3621 41.1786 83.2939 41.1786C83.2258 41.1786 83.1705 41.2614 83.1705 41.3635C83.1705 41.4656 83.2258 41.5484 83.2939 41.5484Z" fill="#FF6584"/>
<path d="M84.0345 40.5621C84.1027 40.5621 84.1579 40.4793 84.1579 40.3772C84.1579 40.275 84.1027 40.1922 84.0345 40.1922C83.9663 40.1922 83.9111 40.275 83.9111 40.3772C83.9111 40.4793 83.9663 40.5621 84.0345 40.5621Z" fill="#FF6584"/>
<path d="M83.9111 41.9183C83.9792 41.9183 84.0345 41.8355 84.0345 41.7333C84.0345 41.6312 83.9792 41.5484 83.9111 41.5484C83.8429 41.5484 83.7877 41.6312 83.7877 41.7333C83.7877 41.8355 83.8429 41.9183 83.9111 41.9183Z" fill="#FF6584"/>
<path d="M82.4299 41.3018C82.4981 41.3018 82.5533 41.219 82.5533 41.1169C82.5533 41.0148 82.4981 40.932 82.4299 40.932C82.3617 40.932 82.3065 41.0148 82.3065 41.1169C82.3065 41.219 82.3617 41.3018 82.4299 41.3018Z" fill="#FF6584"/>
<path d="M87.2437 45.3704C88.3344 45.3704 89.2185 44.4872 89.2185 43.3978C89.2185 42.3083 88.3344 41.4251 87.2437 41.4251C86.153 41.4251 85.2688 42.3083 85.2688 43.3978C85.2688 44.4872 86.153 45.3704 87.2437 45.3704Z" fill="#6C63FF"/>
<path opacity="0.2" d="M88.7248 43.5211C88.7248 43.9134 88.5688 44.2897 88.291 44.5672C88.0133 44.8447 87.6365 45.0005 87.2437 45.0005C86.8509 45.0005 86.4741 44.8447 86.1963 44.5672C85.9186 44.2897 85.7625 43.9134 85.7625 43.5211" fill="black"/>
<path opacity="0.2" d="M85.7625 43.2745C85.7625 42.8821 85.9186 42.5058 86.1963 42.2283C86.4741 41.9509 86.8509 41.795 87.2437 41.795C87.6365 41.795 88.0133 41.9509 88.291 42.2283C88.5688 42.5058 88.7248 42.8821 88.7248 43.2745" fill="black"/>
<path d="M86.5031 42.9046C86.5713 42.9046 86.6265 42.8218 86.6265 42.7197C86.6265 42.6175 86.5713 42.5347 86.5031 42.5347C86.4349 42.5347 86.3797 42.6175 86.3797 42.7197C86.3797 42.8218 86.4349 42.9046 86.5031 42.9046Z" fill="#6C63FF"/>
<path d="M87.2437 42.658C87.3118 42.658 87.3671 42.5752 87.3671 42.4731C87.3671 42.3709 87.3118 42.2881 87.2437 42.2881C87.1755 42.2881 87.1202 42.3709 87.1202 42.4731C87.1202 42.5752 87.1755 42.658 87.2437 42.658Z" fill="#6C63FF"/>
<path d="M87.2437 44.2608C87.3118 44.2608 87.3671 44.178 87.3671 44.0758C87.3671 43.9737 87.3118 43.8909 87.2437 43.8909C87.1755 43.8909 87.1202 43.9737 87.1202 44.0758C87.1202 44.178 87.1755 44.2608 87.2437 44.2608Z" fill="#6C63FF"/>
<path d="M87.9842 43.2745C88.0524 43.2745 88.1077 43.1917 88.1077 43.0895C88.1077 42.9874 88.0524 42.9046 87.9842 42.9046C87.9161 42.9046 87.8608 42.9874 87.8608 43.0895C87.8608 43.1917 87.9161 43.2745 87.9842 43.2745Z" fill="#6C63FF"/>
<path d="M87.8608 44.6307C87.929 44.6307 87.9842 44.5479 87.9842 44.4457C87.9842 44.3436 87.929 44.2608 87.8608 44.2608C87.7927 44.2608 87.7374 44.3436 87.7374 44.4457C87.7374 44.5479 87.7927 44.6307 87.8608 44.6307Z" fill="#6C63FF"/>
<path d="M86.3797 44.0142C86.4478 44.0142 86.5031 43.9314 86.5031 43.8293C86.5031 43.7271 86.4478 43.6443 86.3797 43.6443C86.3115 43.6443 86.2562 43.7271 86.2562 43.8293C86.2562 43.9314 86.3115 44.0142 86.3797 44.0142Z" fill="#6C63FF"/>
<path d="M77.3693 45.617C78.46 45.617 79.3442 44.7338 79.3442 43.6443C79.3442 42.5549 78.46 41.6717 77.3693 41.6717C76.2786 41.6717 75.3944 42.5549 75.3944 43.6443C75.3944 44.7338 76.2786 45.617 77.3693 45.617Z" fill="#6C63FF"/>
<path opacity="0.2" d="M78.8505 43.7676C78.8505 44.16 78.6944 44.5363 78.4166 44.8138C78.1389 45.0912 77.7621 45.2471 77.3693 45.2471C76.9765 45.2471 76.5997 45.0912 76.322 44.8138C76.0442 44.5363 75.8882 44.16 75.8882 43.7676" fill="black"/>
<path opacity="0.2" d="M75.8882 43.521C75.8882 43.1287 76.0442 42.7524 76.322 42.4749C76.5997 42.1975 76.9765 42.0416 77.3693 42.0416C77.7621 42.0416 78.1389 42.1975 78.4166 42.4749C78.6944 42.7524 78.8505 43.1287 78.8505 43.521" fill="black"/>
<path d="M76.6287 43.1512C76.6969 43.1512 76.7522 43.0684 76.7522 42.9662C76.7522 42.8641 76.6969 42.7813 76.6287 42.7813C76.5606 42.7813 76.5053 42.8641 76.5053 42.9662C76.5053 43.0684 76.5606 43.1512 76.6287 43.1512Z" fill="#6C63FF"/>
<path d="M77.3693 42.9046C77.4375 42.9046 77.4927 42.8218 77.4927 42.7197C77.4927 42.6175 77.4375 42.5347 77.3693 42.5347C77.3011 42.5347 77.2459 42.6175 77.2459 42.7197C77.2459 42.8218 77.3011 42.9046 77.3693 42.9046Z" fill="#6C63FF"/>
<path d="M77.3693 44.5073C77.4375 44.5073 77.4927 44.4246 77.4927 44.3224C77.4927 44.2203 77.4375 44.1375 77.3693 44.1375C77.3011 44.1375 77.2459 44.2203 77.2459 44.3224C77.2459 44.4246 77.3011 44.5073 77.3693 44.5073Z" fill="#6C63FF"/>
<path d="M78.1099 43.5211C78.1781 43.5211 78.2333 43.4383 78.2333 43.3361C78.2333 43.234 78.1781 43.1512 78.1099 43.1512C78.0417 43.1512 77.9865 43.234 77.9865 43.3361C77.9865 43.4383 78.0417 43.5211 78.1099 43.5211Z" fill="#6C63FF"/>
<path d="M77.9865 44.8772C78.0546 44.8772 78.1099 44.7944 78.1099 44.6923C78.1099 44.5902 78.0546 44.5074 77.9865 44.5074C77.9183 44.5074 77.863 44.5902 77.863 44.6923C77.863 44.7944 77.9183 44.8772 77.9865 44.8772Z" fill="#6C63FF"/>
<path d="M76.5053 44.2608C76.5735 44.2608 76.6287 44.178 76.6287 44.0758C76.6287 43.9737 76.5735 43.8909 76.5053 43.8909C76.4371 43.8909 76.3819 43.9737 76.3819 44.0758C76.3819 44.178 76.4371 44.2608 76.5053 44.2608Z" fill="#6C63FF"/>
<path d="M81.8128 46.48C82.9035 46.48 83.7876 45.5968 83.7876 44.5074C83.7876 43.4179 82.9035 42.5347 81.8128 42.5347C80.7221 42.5347 79.8379 43.4179 79.8379 44.5074C79.8379 45.5968 80.7221 46.48 81.8128 46.48Z" fill="#6C63FF"/>
<path opacity="0.2" d="M83.2939 44.6306C83.2939 44.8249 83.2556 45.0173 83.1812 45.1968C83.1067 45.3763 82.9976 45.5394 82.8601 45.6768C82.7226 45.8142 82.5593 45.9231 82.3796 45.9975C82.1999 46.0718 82.0073 46.1101 81.8128 46.1101C81.6183 46.1101 81.4257 46.0718 81.246 45.9975C81.0663 45.9231 80.903 45.8142 80.7654 45.6768C80.6279 45.5394 80.5188 45.3763 80.4444 45.1968C80.3699 45.0173 80.3316 44.8249 80.3316 44.6306" fill="black"/>
<path opacity="0.2" d="M80.3316 44.3841C80.3316 44.1898 80.3699 43.9974 80.4444 43.8179C80.5188 43.6384 80.6279 43.4753 80.7654 43.3379C80.903 43.2005 81.0663 43.0916 81.246 43.0172C81.4257 42.9429 81.6183 42.9046 81.8128 42.9046C82.0073 42.9046 82.1999 42.9429 82.3796 43.0172C82.5593 43.0916 82.7226 43.2005 82.8601 43.3379C82.9976 43.4753 83.1067 43.6384 83.1812 43.8179C83.2556 43.9974 83.2939 44.1898 83.2939 44.3841" fill="black"/>
<path d="M81.0722 44.0142C81.1404 44.0142 81.1956 43.9314 81.1956 43.8293C81.1956 43.7271 81.1404 43.6443 81.0722 43.6443C81.004 43.6443 80.9488 43.7271 80.9488 43.8293C80.9488 43.9314 81.004 44.0142 81.0722 44.0142Z" fill="#6C63FF"/>
<path d="M81.8128 43.7676C81.8809 43.7676 81.9362 43.6848 81.9362 43.5827C81.9362 43.4805 81.8809 43.3978 81.8128 43.3978C81.7446 43.3978 81.6893 43.4805 81.6893 43.5827C81.6893 43.6848 81.7446 43.7676 81.8128 43.7676Z" fill="#6C63FF"/>
<path d="M81.8128 45.3704C81.8809 45.3704 81.9362 45.2876 81.9362 45.1855C81.9362 45.0833 81.8809 45.0005 81.8128 45.0005C81.7446 45.0005 81.6893 45.0833 81.6893 45.1855C81.6893 45.2876 81.7446 45.3704 81.8128 45.3704Z" fill="#6C63FF"/>
<path d="M82.5533 44.3841C82.6215 44.3841 82.6768 44.3013 82.6768 44.1991C82.6768 44.097 82.6215 44.0142 82.5533 44.0142C82.4852 44.0142 82.4299 44.097 82.4299 44.1991C82.4299 44.3013 82.4852 44.3841 82.5533 44.3841Z" fill="#6C63FF"/>
<path d="M82.4299 45.7402C82.4981 45.7402 82.5533 45.6574 82.5533 45.5553C82.5533 45.4532 82.4981 45.3704 82.4299 45.3704C82.3617 45.3704 82.3065 45.4532 82.3065 45.5553C82.3065 45.6574 82.3617 45.7402 82.4299 45.7402Z" fill="#6C63FF"/>
<path d="M80.9488 45.1238C81.0169 45.1238 81.0722 45.041 81.0722 44.9389C81.0722 44.8367 81.0169 44.7539 80.9488 44.7539C80.8806 44.7539 80.8253 44.8367 80.8253 44.9389C80.8253 45.041 80.8806 45.1238 80.9488 45.1238Z" fill="#6C63FF"/>
<path d="M84.8985 48.5759C85.9892 48.5759 86.8734 47.6927 86.8734 46.6033C86.8734 45.5138 85.9892 44.6306 84.8985 44.6306C83.8078 44.6306 82.9236 45.5138 82.9236 46.6033C82.9236 47.6927 83.8078 48.5759 84.8985 48.5759Z" fill="#FF6584"/>
<path opacity="0.2" d="M86.3797 46.7266C86.3797 47.1189 86.2236 47.4953 85.9459 47.7727C85.6681 48.0502 85.2913 48.206 84.8985 48.206C84.5057 48.206 84.1289 48.0502 83.8512 47.7727C83.5734 47.4953 83.4174 47.1189 83.4174 46.7266" fill="black"/>
<path opacity="0.2" d="M83.4174 46.48C83.4174 46.0876 83.5734 45.7113 83.8512 45.4338C84.1289 45.1564 84.5057 45.0005 84.8985 45.0005C85.2913 45.0005 85.6681 45.1564 85.9459 45.4338C86.2236 45.7113 86.3797 46.0876 86.3797 46.48" fill="black"/>
<path d="M84.1579 46.1101C84.2261 46.1101 84.2814 46.0273 84.2814 45.9252C84.2814 45.823 84.2261 45.7402 84.1579 45.7402C84.0898 45.7402 84.0345 45.823 84.0345 45.9252C84.0345 46.0273 84.0898 46.1101 84.1579 46.1101Z" fill="#FF6584"/>
<path d="M84.8985 45.8635C84.9667 45.8635 85.0219 45.7807 85.0219 45.6786C85.0219 45.5765 84.9667 45.4937 84.8985 45.4937C84.8303 45.4937 84.7751 45.5765 84.7751 45.6786C84.7751 45.7807 84.8303 45.8635 84.8985 45.8635Z" fill="#FF6584"/>
<path d="M84.8985 47.4663C84.9667 47.4663 85.0219 47.3835 85.0219 47.2814C85.0219 47.1792 84.9667 47.0964 84.8985 47.0964C84.8303 47.0964 84.7751 47.1792 84.7751 47.2814C84.7751 47.3835 84.8303 47.4663 84.8985 47.4663Z" fill="#FF6584"/>
<path d="M85.6391 46.48C85.7073 46.48 85.7625 46.3972 85.7625 46.2951C85.7625 46.1929 85.7073 46.1101 85.6391 46.1101C85.5709 46.1101 85.5157 46.1929 85.5157 46.2951C85.5157 46.3972 85.5709 46.48 85.6391 46.48Z" fill="#FF6584"/>
<path d="M85.5157 47.8362C85.5838 47.8362 85.6391 47.7534 85.6391 47.6512C85.6391 47.5491 85.5838 47.4663 85.5157 47.4663C85.4475 47.4663 85.3922 47.5491 85.3922 47.6512C85.3922 47.7534 85.4475 47.8362 85.5157 47.8362Z" fill="#FF6584"/>
<path d="M84.0345 47.2197C84.1027 47.2197 84.1579 47.1369 84.1579 47.0348C84.1579 46.9327 84.1027 46.8499 84.0345 46.8499C83.9663 46.8499 83.9111 46.9327 83.9111 47.0348C83.9111 47.1369 83.9663 47.2197 84.0345 47.2197Z" fill="#FF6584"/>
<path d="M59.5018 39.6055C59.7909 39.6055 60.0252 39.3714 60.0252 39.0826C60.0252 38.7939 59.7909 38.5598 59.5018 38.5598C59.2127 38.5598 58.9783 38.7939 58.9783 39.0826C58.9783 39.3714 59.2127 39.6055 59.5018 39.6055Z" fill="#3F3D56"/>
<path d="M73.7305 58.0614L61.1588 54.5789L61.6403 52.7921L74.212 56.2747L73.7305 58.0614Z" fill="#F9A825"/>
<path d="M71.8875 57.4642C67.5823 58.2874 63.16 58.2874 58.8549 57.4642V55.612C63.1696 56.3263 67.5727 56.3263 71.8875 55.612V57.4642Z" fill="#F9A825"/>
<path d="M73.2273 51.9076C68.9222 52.7308 64.4998 52.7308 60.1947 51.9076V50.0554C64.5094 50.7697 68.9125 50.7697 73.2273 50.0554V51.9076Z" fill="#F9A825"/>
<path d="M77.7339 54.1302C73.4288 54.9534 69.0064 54.9534 64.7013 54.1302V52.278C69.016 52.9923 73.4191 52.9923 77.7339 52.278V54.1302Z" fill="#F9A825"/>
<path d="M78.8301 56.2294C74.525 57.0526 70.1026 57.0526 65.7975 56.2294V54.3772C70.1122 55.0915 74.5153 55.0915 78.8301 54.3772V56.2294Z" fill="#F9A825"/>
<path d="M82.6519 58.9724L69.794 61.1297L69.4958 59.3023L82.3535 57.145L82.6519 58.9724Z" fill="#F9A825"/>
<path d="M80.7312 59.2099C77.1664 61.7766 73.1488 63.6483 68.8891 64.7268L68.1262 63.0438C72.3486 61.8628 76.3489 59.9992 79.9684 57.5269L80.7312 59.2099Z" fill="#F9A825"/>
<path d="M79.66 53.5937C76.0953 56.1604 72.0776 58.0321 67.8179 59.1106L67.0551 57.4275C71.2774 56.2466 75.2777 54.3829 78.8972 51.9106L79.66 53.5937Z" fill="#F9A825"/>
<path d="M84.6704 53.7056C81.1056 56.2723 77.088 58.144 72.8283 59.2225L72.0654 57.5394C76.2878 56.3585 80.2881 54.4948 83.9075 52.0225L84.6704 53.7056Z" fill="#F9A825"/>
<path d="M86.5311 55.1489C82.9663 57.7156 78.9486 59.5873 74.689 60.6658L73.9261 58.9828C78.1485 57.8018 82.1488 55.9382 85.7682 53.4659L86.5311 55.1489Z" fill="#F9A825"/>
<path d="M70.951 51.5348H70.3338V52.1513H70.951V51.5348Z" fill="#00BF71"/>
<path d="M72.8024 62.261H72.1853V62.8774H72.8024V62.261Z" fill="#00BF71"/>
<path d="M62.928 51.5348H62.3109V52.1513H62.928V51.5348Z" fill="#00BF71"/>
<path d="M77.2459 59.1788H76.6287V59.7952H77.2459V59.1788Z" fill="#00BF71"/>
<path d="M77.6162 55.6034H76.999V56.2198H77.6162V55.6034Z" fill="#00BF71"/>
<path d="M67.4356 53.9156L66.7206 53.431L66.4434 53.8391L67.1584 54.3236L67.4356 53.9156Z" fill="#00BF71"/>
<path d="M74.7179 55.2717L74.003 54.7872L73.7258 55.1953L74.4407 55.6798L74.7179 55.2717Z" fill="#00BF71"/>
<path d="M65.831 57.6142L65.116 57.1297L64.8388 57.5378L65.5538 58.0223L65.831 57.6142Z" fill="#00BF71"/>
<path d="M70.3573 57.5784L70.8424 56.8642L70.4338 56.5873L69.9487 57.3015L70.3573 57.5784Z" fill="#00BF71"/>
<path d="M73.6899 58.4414L74.175 57.7272L73.7664 57.4504L73.2813 58.1645L73.6899 58.4414Z" fill="#00BF71"/>
<path d="M82.5776 55.4823L83.0627 54.7681L82.6542 54.4913L82.1691 55.2054L82.5776 55.4823Z" fill="#00BF71"/>
<path d="M141 76.6446H0V77H141V76.6446Z" fill="#3F3D56"/>
</g>
<defs>
<clipPath id="clip0_75_122">
<rect width="141" height="77" fill="white"/>
</clipPath>
</defs>
</svg>
