<svg width="114" height="82" viewBox="0 0 114 82" fill="none" xmlns="http://www.w3.org/2000/svg">
<g clip-path="url(#clip0_75_280)">
<path d="M46.9731 19.2959H46.4555V7.07378C46.4555 6.14483 46.2433 5.22498 45.8308 4.36675C45.4184 3.50851 44.8139 2.7287 44.0518 2.07183C43.2897 1.41497 42.385 0.893916 41.3893 0.538425C40.3936 0.182934 39.3264 -3.34238e-05 38.2486 -3.05175e-05H8.20689C7.12915 -3.34238e-05 6.06196 0.182934 5.06625 0.538425C4.07054 0.893916 3.16582 1.41497 2.40374 2.07183C1.64166 2.7287 1.03714 3.50851 0.624708 4.36675C0.212274 5.22498 -1.68589e-06 6.14483 0 7.07378V74.125C-1.01153e-06 75.0539 0.212276 75.9738 0.62471 76.832C1.03715 77.6903 1.64166 78.4701 2.40374 79.1269C3.16582 79.7838 4.07054 80.3049 5.06625 80.6604C6.06196 81.0158 7.12915 81.1988 8.20689 81.1988H38.2486C39.3264 81.1988 40.3936 81.0158 41.3893 80.6604C42.385 80.3049 43.2897 79.7838 44.0518 79.1269C44.8139 78.4701 45.4184 77.6903 45.8308 76.832C46.2433 75.9738 46.4555 75.0539 46.4555 74.125V27.9957H46.9731V19.2959Z" fill="#680000"/>
<path d="M38.5798 1.84036H34.6584C34.8387 2.22145 34.9075 2.63491 34.8588 3.04433C34.8101 3.45375 34.6453 3.84656 34.379 4.18816C34.1126 4.52975 33.7529 4.80965 33.3315 5.00319C32.9101 5.19673 32.4399 5.29797 31.9624 5.29801H14.7519C14.2744 5.29797 13.8042 5.19673 13.3828 5.00319C12.9614 4.80965 12.6017 4.52975 12.3354 4.18816C12.069 3.84656 11.9043 3.45375 11.8555 3.04433C11.8068 2.63491 11.8757 2.22145 12.056 1.84036H8.39335C7.58851 1.84036 6.79154 1.977 6.04796 2.24248C5.30438 2.50795 4.62875 2.89707 4.05963 3.38761C3.49052 3.87814 3.03908 4.4605 2.73107 5.10142C2.42307 5.74233 2.26454 6.42927 2.26454 7.12299V74.0758C2.26454 74.7696 2.42307 75.4565 2.73107 76.0974C3.03907 76.7383 3.49052 77.3207 4.05963 77.8112C4.62874 78.3018 5.30438 78.6909 6.04796 78.9564C6.79154 79.2219 7.58851 79.3585 8.39335 79.3585H38.5798C39.3846 79.3585 40.1816 79.2219 40.9252 78.9564C41.6688 78.6909 42.3444 78.3018 42.9135 77.8112C43.4826 77.3207 43.9341 76.7383 44.2421 76.0974C44.5501 75.4565 44.7086 74.7696 44.7086 74.0758V7.12299C44.7086 6.42927 44.5501 5.74233 44.2421 5.10142C43.9341 4.4605 43.4826 3.87814 42.9135 3.38761C42.3444 2.89707 41.6688 2.50795 40.9252 2.24248C40.1816 1.977 39.3846 1.84036 38.5798 1.84036Z" fill="white"/>
<path d="M14.5931 15.4511H12.7907C12.7274 15.4511 12.6666 15.4728 12.6218 15.5115C12.577 15.5501 12.5518 15.6025 12.5518 15.6571V16.339C12.5518 16.3936 12.577 16.446 12.6218 16.4846C12.6666 16.5232 12.7274 16.5449 12.7907 16.5449H13.0894V17.5666H14.2944V16.5449H14.5931C14.6565 16.5449 14.7172 16.5232 14.762 16.4846C14.8069 16.446 14.832 16.3936 14.832 16.339V15.6571C14.832 15.6025 14.8069 15.5501 14.762 15.5115C14.7172 15.4728 14.6565 15.4511 14.5931 15.4511Z" fill="#E6E6E6"/>
<path d="M16.3983 21.6917C15.2945 20.2995 14.7302 18.6419 14.7863 16.9564C14.7873 16.9175 14.7727 16.8795 14.7448 16.8489C14.717 16.8182 14.6778 16.7968 14.6337 16.7883V16.4937H12.7302V16.7842H12.704C12.6522 16.7843 12.6026 16.8021 12.566 16.8337C12.5294 16.8653 12.5089 16.9081 12.5089 16.9528C12.509 16.9569 12.5091 16.961 12.5095 16.965C12.6594 18.7669 12.1531 20.3827 10.9903 21.8125C10.9234 21.8947 10.8892 21.9934 10.8929 22.0937L11.1011 27.6432C11.1061 27.7669 11.1663 27.8843 11.2693 27.9707C11.3723 28.0571 11.5099 28.1058 11.6536 28.1068H15.9591C16.1044 28.1058 16.2435 28.0559 16.3468 27.9678C16.4501 27.8796 16.5094 27.7602 16.512 27.635L16.5922 22.2469C16.5946 22.0492 16.527 21.8555 16.3983 21.6917Z" fill="#E6E6E6"/>
<path d="M15.7168 23.535H11.9692C11.9137 23.535 11.8589 23.5454 11.8085 23.5653C11.7581 23.5853 11.7133 23.6144 11.6772 23.6507C11.6411 23.687 11.6145 23.7296 11.5992 23.7756C11.584 23.8216 11.5805 23.8698 11.5889 23.9171L12.1552 27.0899H15.407L16.0949 23.9278C16.1053 23.8799 16.1034 23.8306 16.0892 23.7834C16.075 23.7363 16.0489 23.6924 16.0128 23.6549C15.9767 23.6174 15.9315 23.5872 15.8803 23.5665C15.8291 23.5458 15.7733 23.535 15.7168 23.535Z" fill="white"/>
<path d="M34.6566 32.0752H32.8543C32.7909 32.0752 32.7301 32.0969 32.6853 32.1355C32.6405 32.1741 32.6153 32.2265 32.6153 32.2812V32.963C32.6153 33.0177 32.6405 33.07 32.6853 33.1087C32.7301 33.1473 32.7909 33.169 32.8543 33.169H33.1529V34.1907H34.3579V33.169H34.6566C34.72 33.169 34.7808 33.1473 34.8256 33.1087C34.8704 33.07 34.8956 33.0177 34.8956 32.963V32.2812C34.8956 32.2265 34.8704 32.1741 34.8256 32.1355C34.7808 32.0969 34.72 32.0752 34.6566 32.0752Z" fill="#E6E6E6"/>
<path d="M36.4618 38.3158C35.358 36.9236 34.7937 35.266 34.8498 33.5805C34.8508 33.5416 34.8362 33.5036 34.8084 33.4729C34.7806 33.4423 34.7413 33.4209 34.6973 33.4124V33.1177H32.7938V33.4083H32.7675C32.7419 33.4083 32.7165 33.4127 32.6928 33.4212C32.6691 33.4297 32.6476 33.4421 32.6295 33.4577C32.6114 33.4734 32.597 33.492 32.5872 33.5124C32.5775 33.5328 32.5724 33.5547 32.5725 33.5768C32.5725 33.5809 32.5727 33.585 32.573 33.5891C32.723 35.3909 32.2166 37.0067 31.0539 38.4366C30.9869 38.5188 30.9528 38.6174 30.9564 38.7178L31.1646 44.2672C31.1696 44.391 31.2298 44.5083 31.3328 44.5947C31.4358 44.6811 31.5735 44.7299 31.7172 44.7309H36.0226C36.1679 44.7299 36.3071 44.68 36.4103 44.5918C36.5136 44.5037 36.5729 44.3843 36.5755 44.259L36.6557 38.871C36.6581 38.6732 36.5905 38.4795 36.4618 38.3158Z" fill="#E6E6E6"/>
<path d="M35.7803 40.1591H32.0327C31.9772 40.1591 31.9224 40.1695 31.872 40.1894C31.8216 40.2094 31.7768 40.2385 31.7407 40.2748C31.7046 40.3111 31.678 40.3537 31.6628 40.3997C31.6475 40.4457 31.644 40.4939 31.6524 40.5412L32.2187 43.714H35.4706L36.1584 40.5519C36.1689 40.504 36.1669 40.4547 36.1527 40.4075C36.1385 40.3604 36.1125 40.3165 36.0763 40.279C36.0402 40.2415 35.995 40.2113 35.9438 40.1906C35.8927 40.1699 35.8368 40.1591 35.7803 40.1591Z" fill="white"/>
<path d="M12.0592 55.5768H11.2043C11.1742 55.5768 11.1454 55.587 11.1241 55.6054C11.1029 55.6237 11.0909 55.6485 11.0909 55.6745V55.9979C11.0909 56.0238 11.1029 56.0487 11.1241 56.067C11.1454 56.0853 11.1742 56.0956 11.2043 56.0956H11.346V56.5802H11.9175V56.0956H12.0592C12.0893 56.0956 12.1181 56.0853 12.1394 56.067C12.1606 56.0487 12.1726 56.0238 12.1726 55.9979V55.6745C12.1726 55.6485 12.1606 55.6237 12.1394 55.6054C12.1181 55.587 12.0893 55.5768 12.0592 55.5768Z" fill="#E6E6E6"/>
<path d="M12.9155 58.5369C12.3919 57.8766 12.1243 57.0903 12.1509 56.2908C12.1514 56.2723 12.1444 56.2543 12.1312 56.2398C12.118 56.2252 12.0994 56.2151 12.0785 56.211V56.0713H11.1756V56.2091H11.1632C11.151 56.2091 11.1389 56.2112 11.1277 56.2152C11.1165 56.2193 11.1063 56.2251 11.0977 56.2326C11.0891 56.24 11.0823 56.2488 11.0776 56.2585C11.073 56.2682 11.0706 56.2786 11.0706 56.2891C11.0706 56.291 11.0707 56.2929 11.0709 56.2949C11.1542 57.1107 10.8989 57.9256 10.3503 58.5943C10.3185 58.6332 10.3023 58.68 10.3041 58.7276L10.4028 61.36C10.4052 61.4187 10.4338 61.4744 10.4826 61.5153C10.5314 61.5563 10.5968 61.5795 10.6649 61.5799H12.7072C12.7761 61.5794 12.8421 61.5558 12.8911 61.514C12.9401 61.4722 12.9682 61.4155 12.9695 61.3561L13.0075 58.8003C13.0086 58.7065 12.9766 58.6146 12.9155 58.5369Z" fill="#E6E6E6"/>
<path d="M12.6216 59.5046H10.6729V60.3444H12.6216V59.5046Z" fill="white"/>
<path d="M16.039 55.5768H15.184C15.154 55.5768 15.1251 55.587 15.1039 55.6054C15.0826 55.6237 15.0707 55.6485 15.0707 55.6745V55.9979C15.0707 56.0238 15.0826 56.0487 15.1039 56.067C15.1251 56.0853 15.154 56.0956 15.184 56.0956H15.3257V56.5802H15.8973V56.0956H16.039C16.069 56.0956 16.0978 56.0853 16.1191 56.067C16.1404 56.0487 16.1523 56.0238 16.1523 55.9979V55.6745C16.1523 55.6485 16.1404 55.6237 16.1191 55.6054C16.0978 55.587 16.069 55.5768 16.039 55.5768Z" fill="#E6E6E6"/>
<path d="M16.8953 58.5369C16.3717 57.8766 16.104 57.0903 16.1306 56.2908C16.1311 56.2723 16.1241 56.2543 16.1109 56.2398C16.0978 56.2252 16.0791 56.2151 16.0582 56.211V56.0713H15.1553V56.2091H15.1429C15.1307 56.2091 15.1187 56.2112 15.1074 56.2152C15.0962 56.2193 15.086 56.2251 15.0774 56.2326C15.0688 56.24 15.062 56.2488 15.0574 56.2585C15.0527 56.2682 15.0503 56.2786 15.0504 56.2891C15.0504 56.291 15.0504 56.2929 15.0506 56.2949C15.134 57.1107 14.8786 57.9256 14.33 58.5943C14.2983 58.6332 14.2821 58.68 14.2838 58.7276L14.3825 61.36C14.3849 61.4187 14.4135 61.4744 14.4623 61.5153C14.5112 61.5563 14.5765 61.5795 14.6446 61.5799H16.6869C16.7559 61.5794 16.8218 61.5558 16.8708 61.514C16.9198 61.4722 16.9479 61.4155 16.9492 61.3561L16.9872 58.8003C16.9884 58.7065 16.9563 58.6146 16.8953 58.5369Z" fill="#E6E6E6"/>
<path d="M16.6013 59.5046H14.6527V60.3444H16.6013V59.5046Z" fill="white"/>
<path d="M20.0187 55.5768H19.1637C19.1337 55.5768 19.1049 55.587 19.0836 55.6054C19.0623 55.6237 19.0504 55.6485 19.0504 55.6745V55.9979C19.0504 56.0238 19.0623 56.0487 19.0836 56.067C19.1049 56.0853 19.1337 56.0956 19.1637 56.0956H19.3054V56.5802H19.877V56.0956H20.0187C20.0487 56.0956 20.0776 56.0853 20.0988 56.067C20.1201 56.0487 20.132 56.0238 20.132 55.9979V55.6745C20.132 55.6485 20.1201 55.6237 20.0988 55.6054C20.0776 55.587 20.0487 55.5768 20.0187 55.5768Z" fill="#E6E6E6"/>
<path d="M20.875 58.5369C20.3514 57.8766 20.0837 57.0903 20.1103 56.2908C20.1108 56.2723 20.1039 56.2543 20.0907 56.2398C20.0775 56.2252 20.0589 56.2151 20.038 56.211V56.0713H19.1351V56.2091H19.1226C19.1104 56.2091 19.0984 56.2112 19.0872 56.2152C19.0759 56.2193 19.0657 56.2251 19.0571 56.2326C19.0485 56.24 19.0417 56.2488 19.0371 56.2585C19.0325 56.2682 19.0301 56.2786 19.0301 56.2891C19.0301 56.291 19.0302 56.2929 19.0303 56.2949C19.1137 57.1107 18.8583 57.9256 18.3097 58.5943C18.278 58.6332 18.2618 58.68 18.2635 58.7276L18.3623 61.36C18.3646 61.4187 18.3932 61.4744 18.4421 61.5153C18.4909 61.5563 18.5562 61.5795 18.6244 61.5799H20.6666C20.7356 61.5794 20.8016 61.5558 20.8506 61.514C20.8996 61.4722 20.9277 61.4155 20.9289 61.3561L20.967 58.8003C20.9681 58.7065 20.936 58.6146 20.875 58.5369Z" fill="#E6E6E6"/>
<path d="M20.5811 59.5046H18.6324V60.3444H20.5811V59.5046Z" fill="white"/>
<path d="M31.5255 49.1456H29.7232C29.6918 49.1456 29.6607 49.1509 29.6317 49.1613C29.6028 49.1716 29.5764 49.1868 29.5542 49.2059C29.532 49.225 29.5144 49.2477 29.5024 49.2727C29.4904 49.2977 29.4842 49.3245 29.4842 49.3515V50.0334C29.4842 50.088 29.5094 50.1404 29.5542 50.1791C29.599 50.2177 29.6598 50.2394 29.7232 50.2394H30.0219V51.2611H31.2269V50.2394H31.5255C31.5889 50.2394 31.6497 50.2177 31.6945 50.1791C31.7393 50.1404 31.7645 50.088 31.7645 50.0334V49.3515C31.7645 49.3245 31.7583 49.2977 31.7463 49.2727C31.7343 49.2477 31.7167 49.225 31.6945 49.2059C31.6723 49.1868 31.646 49.1716 31.617 49.1613C31.588 49.1509 31.5569 49.1456 31.5255 49.1456Z" fill="#E6E6E6"/>
<path d="M33.3308 55.3861C32.227 53.9939 31.6627 52.3364 31.7187 50.6508C31.7197 50.6119 31.7051 50.574 31.6773 50.5433C31.6495 50.5127 31.6102 50.4913 31.5662 50.4827V50.1881H29.6627V50.4787H29.6365C29.6108 50.4787 29.5854 50.4831 29.5617 50.4916C29.5381 50.5 29.5165 50.5125 29.4984 50.5281C29.4803 50.5438 29.466 50.5623 29.4562 50.5828C29.4464 50.6032 29.4414 50.6251 29.4414 50.6472C29.4414 50.6513 29.4416 50.6554 29.4419 50.6595C29.5919 52.4613 29.0855 54.0771 27.9228 55.507C27.8559 55.5891 27.8217 55.6878 27.8254 55.7881L28.0335 61.3376C28.0385 61.4614 28.0988 61.5787 28.2017 61.6651C28.3047 61.7515 28.4424 61.8003 28.5861 61.8012H32.8915C33.0369 61.8002 33.176 61.7503 33.2793 61.6622C33.3825 61.5741 33.4418 61.4546 33.4445 61.3294L33.5247 55.9413C33.527 55.7436 33.4594 55.5499 33.3308 55.3861Z" fill="#E6E6E6"/>
<path d="M32.6492 57.2295H28.9016C28.8462 57.2295 28.7913 57.2398 28.7409 57.2598C28.6905 57.2797 28.6457 57.3089 28.6096 57.3452C28.5735 57.3814 28.5469 57.424 28.5317 57.47C28.5164 57.516 28.5129 57.5643 28.5214 57.6115L29.0877 60.7843H32.3395L33.0274 57.6222C33.0378 57.5743 33.0358 57.525 33.0216 57.4779C33.0074 57.4307 32.9814 57.3868 32.9453 57.3493C32.9092 57.3118 32.8639 57.2816 32.8127 57.2609C32.7616 57.2402 32.7057 57.2295 32.6492 57.2295Z" fill="white"/>
<path d="M32.5095 28.8212H21.7658C22.5169 25.3209 22.3441 21.0941 21.7658 16.5484H32.5095C31.9465 21.0941 31.7783 25.3209 32.5095 28.8212Z" fill="#E6E6E6"/>
<path d="M27.2024 24.5815C28.6321 24.5815 29.7912 23.5825 29.7912 22.3501C29.7912 21.1177 28.6321 20.1187 27.2024 20.1187C25.7726 20.1187 24.6135 21.1177 24.6135 22.3501C24.6135 23.5825 25.7726 24.5815 27.2024 24.5815Z" fill="white"/>
<path d="M22.6719 45.1106H11.9282C12.6793 41.6102 12.5065 37.3834 11.9282 32.8378H22.6719C22.1089 37.3834 21.9407 41.6102 22.6719 45.1106Z" fill="#E6E6E6"/>
<path d="M17.3648 40.8709C18.7945 40.8709 19.9536 39.8718 19.9536 38.6395C19.9536 37.4071 18.7945 36.4081 17.3648 36.4081C15.935 36.4081 14.7759 37.4071 14.7759 38.6395C14.7759 39.8718 15.935 40.8709 17.3648 40.8709Z" fill="white"/>
<path d="M38.5933 29.6022H27.8496C28.6007 26.1019 28.4279 21.8751 27.8496 17.3294H38.5933C38.0303 21.8751 37.8621 26.1019 38.5933 29.6022Z" fill="#E6E6E6"/>
<path d="M33.2861 25.3625C34.7159 25.3625 35.875 24.3635 35.875 23.1311C35.875 21.8987 34.7159 20.8997 33.2861 20.8997C31.8564 20.8997 30.6973 21.8987 30.6973 23.1311C30.6973 24.3635 31.8564 25.3625 33.2861 25.3625Z" fill="white"/>
<path d="M38.5933 29.0444H27.8496C28.6007 25.544 28.4279 21.3172 27.8496 16.7716H38.5933C38.0303 21.3172 37.8621 25.544 38.5933 29.0444Z" fill="#E6E6E6"/>
<path d="M33.2861 24.8047C34.7159 24.8047 35.875 23.8057 35.875 22.5733C35.875 21.3409 34.7159 20.3419 33.2861 20.3419C31.8564 20.3419 30.6973 21.3409 30.6973 22.5733C30.6973 23.8057 31.8564 24.8047 33.2861 24.8047Z" fill="white"/>
<path d="M38.5933 29.6022H27.8496C28.6007 26.1019 28.4279 21.8751 27.8496 17.3294H38.5933C38.0303 21.8751 37.8621 26.1019 38.5933 29.6022Z" fill="#E6E6E6"/>
<path d="M33.2861 25.3625C34.7159 25.3625 35.875 24.3635 35.875 23.1311C35.875 21.8987 34.7159 20.8997 33.2861 20.8997C31.8564 20.8997 30.6973 21.8987 30.6973 23.1311C30.6973 24.3635 31.8564 25.3625 33.2861 25.3625Z" fill="white"/>
<path d="M41.0527 28.1518H5.84441V31.4989H41.0527V28.1518Z" fill="#E6E6E6"/>
<path d="M41.0527 44.7758H5.84441V48.123H41.0527V44.7758Z" fill="#E6E6E6"/>
<path d="M41.0527 61.3999H5.84441V64.7471H41.0527V61.3999Z" fill="#E6E6E6"/>
<path d="M102.299 74.9791L93.5275 69.6316C96.4858 67.1477 99.1764 63.6108 101.75 59.6118L110.521 64.9592C107.016 68.3902 104.047 71.7574 102.299 74.9791Z" fill="#6C63FF"/>
<path d="M102.301 69.2858C103.731 69.2858 104.89 68.2868 104.89 67.0544C104.89 65.822 103.731 64.823 102.301 64.823C100.872 64.823 99.7125 65.822 99.7125 67.0544C99.7125 68.2868 100.872 69.2858 102.301 69.2858Z" fill="white"/>
<path d="M59.9864 50.5775H59.0235C58.9897 50.5775 58.9572 50.5891 58.9333 50.6098C58.9093 50.6304 58.8959 50.6584 58.8959 50.6876V51.0518C58.8959 51.0663 58.8992 51.0806 58.9056 51.094C58.912 51.1073 58.9214 51.1194 58.9333 51.1296C58.9451 51.1399 58.9592 51.148 58.9747 51.1535C58.9902 51.159 59.0068 51.1619 59.0235 51.1619H59.1831V51.7077H59.8268V51.1619H59.9864C60.0202 51.1619 60.0527 51.1503 60.0766 51.1296C60.1006 51.109 60.114 51.081 60.114 51.0518V50.6876C60.114 50.6584 60.1006 50.6304 60.0766 50.6098C60.0527 50.5891 60.0202 50.5775 59.9864 50.5775Z" fill="#E6E6E6"/>
<path d="M60.9508 53.9113C60.3611 53.1676 60.0597 52.2821 60.0896 51.3817C60.0901 51.3609 60.0823 51.3406 60.0675 51.3242C60.0526 51.3079 60.0316 51.2964 60.0081 51.2919V51.1345H58.9912V51.2897H58.9772C58.9635 51.2897 58.95 51.2921 58.9373 51.2966C58.9247 51.3011 58.9132 51.3078 58.9035 51.3161C58.8938 51.3245 58.8861 51.3344 58.8809 51.3453C58.8757 51.3562 58.873 51.3679 58.873 51.3798C58.873 51.3819 58.8731 51.3841 58.8733 51.3863C58.9672 52.3051 58.6796 53.2228 58.0618 53.9759C58.026 54.0198 58.0077 54.0725 58.0097 54.1261L58.1209 57.0907C58.1236 57.1568 58.1558 57.2195 58.2108 57.2657C58.2658 57.3118 58.3393 57.3379 58.4161 57.3384H60.7161C60.7938 57.3378 60.8681 57.3112 60.9233 57.2641C60.9784 57.217 61.0101 57.1532 61.0115 57.0863L61.0544 54.208C61.0556 54.1023 61.0195 53.9988 60.9508 53.9113Z" fill="#6C63FF"/>
<path opacity="0.2" d="M59.7857 50.6962C59.7857 50.7592 59.7567 50.8196 59.705 50.8641C59.6534 50.9086 59.5833 50.9336 59.5103 50.9336C59.4372 50.9336 59.3672 50.9086 59.3155 50.8641C59.2639 50.8196 59.2349 50.7592 59.2349 50.6962" fill="black"/>
<path d="M60.5028 54.4825H58.5612V55.5983H60.5028V54.4825Z" fill="white"/>
<path d="M90.4557 62.159H88.6534C88.59 62.159 88.5292 62.1807 88.4844 62.2193C88.4396 62.2579 88.4144 62.3103 88.4144 62.365V63.0468C88.4144 63.1015 88.4396 63.1539 88.4844 63.1925C88.5292 63.2311 88.59 63.2528 88.6534 63.2528H88.9521V64.2745H90.157V63.2528H90.4557C90.5191 63.2528 90.5799 63.2311 90.6247 63.1925C90.6695 63.1539 90.6947 63.1015 90.6947 63.0468V62.365C90.6947 62.3103 90.6695 62.2579 90.6247 62.2193C90.5799 62.1807 90.5191 62.159 90.4557 62.159Z" fill="#E6E6E6"/>
<path d="M92.261 68.3996C91.1571 67.0074 90.5929 65.3498 90.6489 63.6643C90.6499 63.6254 90.6353 63.5874 90.6075 63.5567C90.5797 63.5261 90.5404 63.5047 90.4964 63.4962V63.2015H88.5929V63.4921H88.5667C88.541 63.4921 88.5156 63.4965 88.4919 63.505C88.4682 63.5135 88.4467 63.5259 88.4286 63.5415C88.4105 63.5572 88.3961 63.5758 88.3864 63.5962C88.3766 63.6166 88.3716 63.6385 88.3716 63.6606C88.3716 63.6647 88.3718 63.6688 88.3721 63.6729C88.5221 65.4747 88.0157 67.0905 86.853 68.5204C86.7861 68.6026 86.7519 68.7012 86.7556 68.8016L86.9637 74.351C86.9687 74.4748 87.029 74.5921 87.1319 74.6785C87.2349 74.7649 87.3726 74.8137 87.5163 74.8147H91.8217C91.9671 74.8136 92.1062 74.7638 92.2095 74.6756C92.3127 74.5875 92.372 74.4681 92.3746 74.3428L92.4549 68.9548C92.4572 68.757 92.3896 68.5633 92.261 68.3996Z" fill="#6C63FF"/>
<path opacity="0.2" d="M90.08 62.3812C90.08 62.499 90.0257 62.6121 89.929 62.6954C89.8323 62.7787 89.7012 62.8256 89.5644 62.8256C89.4277 62.8256 89.2966 62.7787 89.1999 62.6954C89.1032 62.6121 89.0489 62.499 89.0489 62.3812" fill="black"/>
<path d="M91.5794 70.2429H87.8318C87.7763 70.2429 87.7215 70.2533 87.6711 70.2732C87.6207 70.2932 87.5759 70.3223 87.5398 70.3586C87.5037 70.3949 87.4771 70.4375 87.4619 70.4835C87.4466 70.5295 87.4431 70.5777 87.4515 70.625L88.0178 73.7978H91.2697L91.9575 70.6357C91.968 70.5878 91.966 70.5385 91.9518 70.4913C91.9376 70.4442 91.9116 70.4003 91.8754 70.3628C91.8393 70.3253 91.7941 70.2951 91.7429 70.2744C91.6918 70.2537 91.6359 70.2429 91.5794 70.2429Z" fill="white"/>
<path d="M85.3133 74.9703H74.5696C75.3208 71.47 75.148 67.2431 74.5696 62.6975H85.3133C84.7504 67.2432 84.5822 71.47 85.3133 74.9703Z" fill="#FF6363"/>
<path d="M80.0062 70.7306C81.436 70.7306 82.595 69.7316 82.595 68.4992C82.595 67.2668 81.436 66.2678 80.0062 66.2678C78.5764 66.2678 77.4174 67.2668 77.4174 68.4992C77.4174 69.7316 78.5764 70.7306 80.0062 70.7306Z" fill="white"/>
<path d="M41.369 36.3461L43.7809 36.1571L45.3158 32.9444L42.575 31.6214L41.369 36.3461Z" fill="#FFB8B8"/>
<path d="M63.5037 45.1661C63.5839 44.9937 63.6154 44.8074 63.5957 44.6224C63.5759 44.4375 63.5054 44.2592 63.3901 44.1023C63.2747 43.9454 63.1177 43.8145 62.9321 43.7201C62.7465 43.6258 62.5375 43.5708 62.3224 43.5598L58.5776 43.3673L58.0262 44.9477L61.8813 45.8602C62.2034 45.9365 62.5468 45.9079 62.8461 45.7799C63.1453 45.6518 63.3794 45.4334 63.5037 45.1661Z" fill="#FFB8B8"/>
<path d="M59.4827 45.8868L59.4415 42.9213L51.1235 41.7773L44.7154 35.4426C44.382 35.113 43.9213 34.8988 43.4187 34.8395C42.916 34.7803 42.4055 34.8801 41.9817 35.1204C41.7251 35.2659 41.5087 35.4582 41.3478 35.6838C41.1869 35.9093 41.0854 36.1625 41.0506 36.4256C41.0157 36.6886 41.0483 36.9551 41.1461 37.2061C41.2438 37.4571 41.4043 37.6865 41.6163 37.8781L46.9029 43.4858L59.4827 45.8868Z" fill="#575A89"/>
<path d="M39.5053 79.2468H41.6979L47.1364 58.0528L52.7706 64.6001L56.0595 78.7743H58.1425L57.704 63.5606L50.3588 47.3075H43.1231C41.1458 50.392 39.5947 53.5715 41.369 56.8515L39.5053 79.2468Z" fill="#2F2E41"/>
<path d="M54.7154 80.5341C54.6912 80.6009 54.6838 80.6715 54.6936 80.741C54.7035 80.8106 54.7304 80.8775 54.7726 80.9373C54.8148 80.9972 54.8714 81.0486 54.9384 81.0882C55.0055 81.1278 55.0816 81.1546 55.1616 81.1668L60.527 81.9875C60.739 82.0209 60.9579 81.9863 61.1423 81.8903C61.3268 81.7942 61.4641 81.6433 61.5284 81.466C61.591 81.2965 61.5822 81.1135 61.5038 80.9491C61.4253 80.7846 61.2821 80.6493 61.0994 80.5668C59.9196 80.0447 58.9043 79.2839 58.1405 78.3495C57.5508 78.8228 56.8917 78.7783 56.1918 78.4295L55.4495 78.5095L54.7154 80.5341Z" fill="#2F2E41"/>
<path d="M38.4901 80.5341C38.4659 80.6009 38.4584 80.6715 38.4683 80.741C38.4781 80.8106 38.5051 80.8775 38.5473 80.9373C38.5895 80.9972 38.646 81.0486 38.7131 81.0882C38.7802 81.1278 38.8563 81.1546 38.9363 81.1668L44.3016 81.9875C44.5136 82.0209 44.7325 81.9863 44.917 81.8903C45.1015 81.7942 45.2388 81.6433 45.3031 81.466C45.3656 81.2965 45.3569 81.1135 45.2784 80.9491C45.2 80.7846 45.0568 80.6493 44.874 80.5668C43.6943 80.0447 42.679 79.2839 41.9151 78.3495C41.3254 78.8228 40.6663 78.7783 39.9665 78.4295L39.2241 78.5095L38.4901 80.5341Z" fill="#2F2E41"/>
<path d="M45.3705 34.1255C47.0659 34.1255 48.4402 32.9409 48.4402 31.4797C48.4402 30.0184 47.0659 28.8338 45.3705 28.8338C43.6752 28.8338 42.3009 30.0184 42.3009 31.4797C42.3009 32.9409 43.6752 34.1255 45.3705 34.1255Z" fill="#FFB8B8"/>
<path d="M42.6298 48.0162L50.6328 47.8272L48.2825 41.4514C49.7431 39.4331 48.2731 37.4169 46.1928 35.4012L44.5483 34.4562L41.9172 34.2672C40.778 35.3179 40.1547 36.7078 40.1778 38.1457C40.2299 41.2248 40.8624 44.5768 42.6298 48.0162Z" fill="#575A89"/>
<path d="M61.0171 52.3079C61.1695 52.1766 61.2836 52.016 61.3498 51.8392C61.4161 51.6625 61.4326 51.4747 61.3982 51.2914C61.3637 51.108 61.2792 50.9344 61.1516 50.7847C61.024 50.635 60.8569 50.5136 60.6642 50.4305L57.3092 48.9838L56.081 50.2498L59.2087 52.396C59.4701 52.5753 59.7989 52.6654 60.1324 52.6492C60.4659 52.633 60.7809 52.5115 61.0171 52.3079Z" fill="#FFB8B8"/>
<path d="M56.9914 51.607L58.307 48.8667L51.1817 44.9945L48.1815 36.9977C48.0254 36.5817 47.6997 36.2285 47.2646 36.0036C46.8295 35.7787 46.3146 35.6973 45.8153 35.7746C45.5129 35.8213 45.2262 35.9248 44.9753 36.0776C44.7245 36.2304 44.5156 36.4288 44.3635 36.6588C44.2114 36.8888 44.1198 37.1448 44.0951 37.4087C44.0704 37.6726 44.1133 37.938 44.2207 38.186L46.5217 45.1341L56.9914 51.607Z" fill="#575A89"/>
<path d="M40.3275 30.4402C40.3275 31.4697 41.1032 33.0641 42.0816 33.7475C42.7399 34.2074 43.6099 34.188 43.9453 33.5585C44.2894 32.9128 45.4755 31.395 47.5632 30.4402C50.3461 29.1674 46.5762 26.9898 43.9453 27.3219C41.9684 27.5714 40.3275 28.718 40.3275 30.4402Z" fill="#2F2E41"/>
<path d="M42.1913 29.0228C43.4022 29.0228 44.3839 28.1766 44.3839 27.1329C44.3839 26.0891 43.4022 25.243 42.1913 25.243C40.9803 25.243 39.9986 26.0891 39.9986 27.1329C39.9986 28.1766 40.9803 29.0228 42.1913 29.0228Z" fill="#2F2E41"/>
<path d="M44.7128 26.4714C44.7125 25.995 44.5034 25.5362 44.1273 25.187C43.7512 24.8379 43.2358 24.6242 42.6846 24.5887C42.7391 24.5852 42.7935 24.5815 42.849 24.5815C43.4306 24.5815 43.9883 24.7807 44.3995 25.1351C44.8106 25.4895 45.0417 25.9702 45.0417 26.4714C45.0417 26.9727 44.8106 27.4534 44.3995 27.8078C43.9883 28.1622 43.4306 28.3613 42.849 28.3613C42.7935 28.3613 42.7391 28.3577 42.6846 28.3542C43.2358 28.3187 43.7512 28.105 44.1273 27.7558C44.5034 27.4067 44.7125 26.9479 44.7128 26.4714Z" fill="#2F2E41"/>
<path d="M45.4254 32.4246C45.6978 32.4246 45.9187 32.1707 45.9187 31.8576C45.9187 31.5445 45.6978 31.2906 45.4254 31.2906C45.1529 31.2906 44.932 31.5445 44.932 31.8576C44.932 32.1707 45.1529 32.4246 45.4254 32.4246Z" fill="#FFB8B8"/>
<path d="M107.549 75.7809H73.4169L66.1891 46.3302H60.0206V45.0088H67.4318L74.6596 74.4593H107.549V75.7809Z" fill="#3F3D56"/>
<path d="M78.4188 81.1612C80.2332 81.1612 81.7042 79.8934 81.7042 78.3294C81.7042 76.7655 80.2332 75.4977 78.4188 75.4977C76.6043 75.4977 75.1334 76.7655 75.1334 78.3294C75.1334 79.8934 76.6043 81.1612 78.4188 81.1612Z" fill="#3F3D56"/>
<path d="M102.95 81.1612C104.764 81.1612 106.235 79.8934 106.235 78.3294C106.235 76.7655 104.764 75.4977 102.95 75.4977C101.135 75.4977 99.6642 76.7655 99.6642 78.3294C99.6642 79.8934 101.135 81.1612 102.95 81.1612Z" fill="#3F3D56"/>
<path d="M106.927 75.1585H73.7181L67.8587 50.2003H112.425C112.653 50.2003 112.878 50.2428 113.084 50.3248C113.291 50.4068 113.474 50.5264 113.622 50.6754C113.77 50.8244 113.878 50.9992 113.94 51.1878C114.002 51.3764 114.016 51.5743 113.981 51.7679L108.482 74.0122C108.425 74.3322 108.237 74.624 107.952 74.8345C107.666 75.0449 107.302 75.1599 106.927 75.1585ZM74.0787 74.781H106.927C107.198 74.782 107.46 74.6989 107.666 74.5471C107.872 74.3952 108.008 74.1845 108.049 73.9536L113.548 51.7093C113.573 51.5696 113.564 51.4267 113.519 51.2906C113.474 51.1544 113.396 51.0283 113.289 50.9207C113.182 50.8132 113.05 50.7269 112.901 50.6677C112.752 50.6085 112.59 50.5779 112.425 50.5779H68.3905L74.0787 74.781Z" fill="#3F3D56"/>
<path d="M80.174 75.0787L76.3367 50.4199L76.7689 50.3583L80.6061 75.0172L80.174 75.0787Z" fill="#3F3D56"/>
<path d="M101.51 74.8893L101.078 74.8289L104.803 50.3589L105.235 50.4193L101.51 74.8893Z" fill="#3F3D56"/>
<path d="M91.3447 50.3891H90.9067V75.0479H91.3447V50.3891Z" fill="#3F3D56"/>
<path d="M70.0964 56.9966L70.0953 57.3742L112.498 57.4627L112.499 57.0851L70.0964 56.9966Z" fill="#3F3D56"/>
<path d="M109.507 68.6602L72.2551 68.8797L72.2581 69.2573L109.51 69.0378L109.507 68.6602Z" fill="#3F3D56"/>
<path d="M60.6777 46.6134C62.0083 46.6134 63.087 46.1063 63.087 45.4807C63.087 44.8551 62.0083 44.348 60.6777 44.348C59.3471 44.348 58.2684 44.8551 58.2684 45.4807C58.2684 46.1063 59.3471 46.6134 60.6777 46.6134Z" fill="#3F3D56"/>
</g>
<defs>
<clipPath id="clip0_75_280">
<rect width="114" height="82" fill="white"/>
</clipPath>
</defs>
</svg>
