<svg width="159" height="87" viewBox="0 0 159 87" fill="none" xmlns="http://www.w3.org/2000/svg">
<path opacity="0.1" d="M147 60.1688C147.01 56.6596 146.129 53.1996 144.429 50.0805C142.729 46.9614 140.262 44.2748 137.234 42.2473C137.318 41.4892 137.361 40.7276 137.363 39.9654C137.363 27.9132 127.181 18.1428 114.619 18.1428C110.751 18.1389 106.948 19.0829 103.58 20.883C94.6895 15.3492 83.0825 12 70.3846 12C49.7239 12 31.9517 20.8684 24.0672 33.5843C23.629 33.56 23.1883 33.5467 22.7437 33.5467C10.1846 33.5467 4.55711e-05 43.3171 4.55711e-05 55.3693C-0.00887367 59.6273 1.29165 63.7958 3.74311 67.3668C3.74311 78.2107 14.5611 87 27.9002 87H124.673C135.15 87 143.644 80.0986 143.644 71.584C145.847 68.142 147.009 64.193 147 60.1688Z" fill="#6C63FF"/>
<path d="M115.161 19.9739C114.113 20.3609 113.062 20.7491 112.087 21.2602C111.643 21.4914 111.218 21.747 110.762 21.9575C110.272 22.1863 109.75 22.3591 109.233 22.5441C107.806 23.0543 106.421 23.6488 105.086 24.3233C105.201 23.015 104.983 21.5936 104.089 20.5738C103.958 20.4227 103.812 20.2818 103.653 20.1528C103.021 19.6392 102.124 19.5066 101.503 19.0575C101.881 18.4758 102.72 17.9476 103.292 17.5035C103.909 17.0256 104.549 16.5725 105.212 16.1441C106.538 15.2867 107.95 14.536 109.431 13.9013C110.37 13.4985 111.351 13.1382 112.388 13.0153C112.519 12.9896 112.655 13.0002 112.779 13.0458C112.94 13.1236 112.998 13.2989 113.037 13.4559C113.231 14.2408 113.329 15.0464 113.49 15.8374C113.569 16.244 113.677 16.6459 113.811 17.041C113.985 17.5083 114.185 17.9677 114.411 18.4174C114.662 18.9358 114.912 19.4546 115.161 19.9739Z" fill="#FBBEBE"/>
<path d="M85.4166 42.1565C85.4163 43.772 84.8332 45.346 83.7505 46.6541C82.6678 47.9622 81.1409 48.9374 79.3877 49.4405C77.6345 49.9437 75.7446 49.9491 73.9876 49.456C72.2307 48.9628 70.6966 47.9964 69.6042 46.6945C68.4988 45.3795 67.9032 43.7893 67.9044 42.1565C67.9044 40.1231 68.8269 38.173 70.469 36.7352C72.1111 35.2974 74.3382 34.4897 76.6605 34.4897C78.9828 34.4897 81.2099 35.2974 82.852 36.7352C84.4941 38.173 85.4166 40.1231 85.4166 42.1565Z" fill="#BE6F72"/>
<path d="M73.5236 48.913C73.992 49.6201 74.4645 50.3332 74.7647 51.1035C75.065 51.8739 75.1817 52.727 74.9343 53.5143C77.917 52.1392 81.4667 52.2499 84.7495 51.5538C84.8373 51.545 84.9182 51.5076 84.9761 51.4492C84.996 51.4093 85.0063 51.3662 85.0063 51.3226C85.0063 51.279 84.996 51.2359 84.9761 51.196C84.2888 48.9692 84.0245 46.6587 84.1936 44.3568L82.4799 45.2439C81.7297 45.6496 80.9523 46.0154 80.1518 46.3392C79.0191 46.7736 77.8169 47.0365 76.6341 47.3407C75.6973 47.5841 73.8377 47.8993 73.2484 48.6161C73.3547 48.704 73.4473 48.8038 73.5236 48.913Z" fill="#BE6F72"/>
<path d="M68.6994 38.603C68.1296 38.8038 67.4596 39.035 66.9357 38.7539C66.5507 38.5458 66.3922 38.1137 66.4159 37.7182C66.4395 37.3227 66.6118 36.9479 66.748 36.5706C67.026 35.7954 67.1761 34.9886 67.486 34.2171C67.796 33.4455 68.3019 32.702 69.1052 32.2943C70.5841 31.5446 72.4979 32.1641 74.1393 31.7491C74.8342 31.5751 75.4388 31.2246 76.0851 30.9495C76.7314 30.6745 77.4583 30.4628 78.156 30.61C78.9732 30.7767 79.5764 31.3791 80.3381 31.6858C81.172 32.0217 82.1699 31.9986 82.9288 32.4476C83.4667 32.7665 83.8058 33.2812 84.1074 33.7863C85.0723 35.4093 85.8342 37.1189 86.3798 38.8853C86.598 39.5178 86.7227 40.1722 86.7509 40.8324C86.7578 41.677 86.4966 42.5045 86.238 43.3199L85.8211 44.6098C85.6668 45.0966 85.5084 45.5834 85.2165 46.0239C84.9246 46.4645 84.4743 46.8356 83.917 46.9634C83.222 47.1204 82.4132 46.8162 82.1102 46.2466C81.9239 45.8937 81.9323 45.4897 81.9225 45.1015C81.9072 44.3412 81.8141 43.5837 81.6446 42.838C81.5584 42.4644 81.443 42.0761 81.1525 41.7938C80.7773 41.4287 80.1796 41.307 79.6237 41.2985C78.9732 41.2912 78.2602 41.4458 77.8808 41.907C77.5764 42.2794 77.5236 42.8027 77.1192 43.0935C76.9394 43.2143 76.7257 43.2904 76.5007 43.3138C76.0419 43.3638 75.5771 43.2778 75.1808 43.0693C74.7845 42.8608 74.4794 42.542 74.3144 42.1638C74.1866 41.8425 74.124 41.4433 73.7766 41.2924C73.5959 41.2133 73.3804 41.2279 73.1873 41.1768C72.5952 41.0198 72.4395 40.3627 72.3853 39.8236C72.3228 39.192 72.5632 37.9446 71.6668 37.902C70.7008 37.8557 69.5875 38.3437 68.6994 38.603Z" fill="#3F3D56"/>
<path d="M70.7995 46.9135C70.4909 47.0437 70.1532 47.1959 70.0323 47.4758C69.985 47.5853 69.9767 47.7058 69.9336 47.8177C69.7376 48.313 68.9732 48.4104 68.5785 48.8047C68.4004 49.004 68.2807 49.2383 68.2296 49.4874C67.966 50.4695 68.0513 51.4988 68.4742 52.4373C68.5968 52.7347 68.7858 53.0077 69.0302 53.2405C69.7362 53.8709 70.9538 53.8587 71.8335 53.4291C72.7133 52.9995 73.3207 52.2462 73.8363 51.482C74.1097 51.0973 74.3383 50.6896 74.5187 50.265C74.6773 49.8332 74.7904 49.3896 74.8565 48.9398C75.165 47.1861 75.5681 45.2414 75.4291 43.4635C75.0121 43.4403 74.2158 43.4148 73.8474 43.6436C73.386 43.9308 73.5139 44.5101 73.3471 44.9299C72.9524 45.94 71.8071 46.473 70.7995 46.9135Z" fill="#3F3D56"/>
<path d="M71.1608 47.146C70.6396 47.174 69.7057 46.669 69.1831 46.6945C68.8274 46.151 68.5131 45.5876 68.2421 45.0078C68.5201 44.6586 68.9676 44.5734 69.6445 45.0078C70.1879 45.3425 70.9385 46.4998 71.1608 47.146Z" fill="#3F3D56"/>
<path d="M79.0177 27.9181C78.4521 28.1797 78.1018 28.1919 77.8224 28.1396C77.5431 28.0873 76.9885 28.3307 76.9885 28.3307C72.0893 29.7983 71.8961 30.4907 71.8961 30.4907L77.5681 28.7371C78.6591 28.3185 78.68 28.4657 78.68 28.4657C79.5139 29.1521 80.5758 28.6872 80.5758 28.6872C80.5758 28.6872 82.0448 28.0787 81.6126 27.4934C81.1803 26.908 79.5848 27.6613 79.0177 27.9181ZM81.3805 27.8086C81.3805 27.8086 80.9635 28.7821 79.4639 28.6239C79.4639 28.6239 78.7272 28.529 79.0386 28.0483C79.0386 28.0483 80.5674 27.4861 80.9719 27.5262C81.3763 27.5664 81.3763 27.8134 81.3763 27.8134L81.3805 27.8086Z" fill="#E8E8F0"/>
<path opacity="0.1" d="M79.0177 27.9181C78.4521 28.1797 78.1018 28.1919 77.8224 28.1396C77.5431 28.0873 76.9885 28.3307 76.9885 28.3307C72.0893 29.7983 71.8961 30.4907 71.8961 30.4907L77.5681 28.7371C78.6591 28.3185 78.68 28.4657 78.68 28.4657C79.5139 29.1521 80.5758 28.6872 80.5758 28.6872C80.5758 28.6872 82.0448 28.0787 81.6126 27.4934C81.1803 26.908 79.5848 27.6613 79.0177 27.9181ZM81.3805 27.8086C81.3805 27.8086 80.9635 28.7821 79.4639 28.6239C79.4639 28.6239 78.7272 28.529 79.0386 28.0483C79.0386 28.0483 80.5674 27.4861 80.9719 27.5262C81.3763 27.5664 81.3763 27.8134 81.3763 27.8134L81.3805 27.8086Z" fill="black"/>
<path d="M79.329 25.2043C78.4812 25.2287 78.3047 25.7836 78.3047 25.7836C78.135 25.961 78.0355 26.1817 78.0213 26.4128C78.007 26.6438 78.0786 26.8727 78.2255 27.0651L76.7203 28.3757C76.4351 28.4721 76.1899 28.6418 76.017 28.8625C76.017 28.8625 72.7119 31.4181 72.7606 31.6506C72.7606 31.6506 73.2998 31.8939 76.7203 29.1643L77.6181 28.4682C77.6181 28.4682 77.8169 27.1673 79.2192 26.9202C79.2192 26.9202 79.3582 26.9738 79.4319 26.6842C79.5105 26.5453 79.6153 26.419 79.7418 26.3106C79.9281 26.1597 80.1769 25.1788 79.329 25.2043ZM79.5667 26.0842C79.5667 26.0842 79.1122 27.1113 78.4645 26.8144C77.8169 26.5174 78.4465 25.8323 78.4465 25.8323C79.5695 24.8758 79.5667 26.0842 79.5667 26.0842Z" fill="#E8E8F0"/>
<path opacity="0.1" d="M76.7495 28.8869C76.8485 28.8869 76.9288 28.8166 76.9288 28.7299C76.9288 28.6432 76.8485 28.5729 76.7495 28.5729C76.6504 28.5729 76.5702 28.6432 76.5702 28.7299C76.5702 28.8166 76.6504 28.8869 76.7495 28.8869Z" fill="black"/>
<path d="M92.434 23.7659C91.9109 23.5246 91.3677 23.3179 90.8093 23.1477C90.0669 22.9634 89.3042 22.8491 88.5341 22.8069C86.1009 22.6041 83.6603 22.4865 81.2123 22.454C80.7801 22.454 80.3381 22.4455 79.9281 22.5757C79.5618 22.6988 79.2301 22.8893 78.9552 23.1343C78.4789 23.533 78.1006 24.0125 77.8433 24.5435C77.7606 24.6766 77.736 24.8314 77.7738 24.9792C77.8294 25.1204 78.0518 25.2141 78.1782 25.1143C77.8547 25.3426 77.617 25.6508 77.4961 25.9989C77.3751 26.347 77.3765 26.7189 77.5 27.0663C77.3071 27.1546 77.1434 27.285 77.0249 27.4449C76.9063 27.6048 76.8368 27.7887 76.8231 27.979C77.8336 28.1428 78.8737 28.0986 79.8614 27.85C79.5667 27.7843 79.2623 28.0265 79.2443 28.2918C79.2462 28.425 79.2902 28.5552 79.3714 28.668C79.4526 28.7808 79.5678 28.8717 79.7043 28.9307C79.98 29.0449 80.2837 29.0976 80.5883 29.084C81.7655 29.084 82.9107 28.7347 84.0851 28.6897C84.983 28.6544 85.9086 28.7968 86.7662 28.568C87.7613 28.2978 88.6495 27.5324 89.6752 27.6918C90.4938 27.8196 91.0275 28.4853 91.5612 29.0426C92.4146 29.9322 93.4695 30.6526 94.516 31.367C95.3222 31.9171 96.1644 32.4817 97.1637 32.6679C97.4628 32.7393 97.7799 32.7261 98.0699 32.6302C98.3123 32.5167 98.5157 32.3486 98.6592 32.1434C99.7364 30.8048 99.7377 29.1193 99.6752 27.5506C99.6432 26.7487 99.4431 26.6403 98.5953 26.3081C97.6113 25.9211 96.6309 25.5248 95.6543 25.1192C94.5758 24.6778 93.5024 24.2267 92.434 23.7659Z" fill="#FBBEBE"/>
<path d="M103.699 26.7694C103.533 26.856 103.358 26.9282 103.176 26.9848C102.872 27.048 102.562 26.9349 102.266 26.8472C101.015 26.4822 99.6252 26.5686 98.416 26.1171C98.8125 28.1099 98.2935 30.1592 96.9719 31.8185C96.7218 32.13 96.3924 32.4489 95.9587 32.4732C96.1519 32.9928 96.7468 33.3068 97.3111 33.5405C98.2122 33.9139 99.1549 34.2051 100.124 34.4094C100.402 34.4666 100.741 34.4946 100.902 34.2877C101 34.166 101.041 33.9579 101.212 33.9652C101.474 34.2086 101.388 34.7075 101.749 34.8171C101.862 34.8422 101.98 34.8422 102.092 34.8171L102.898 34.6954C103.14 34.677 103.373 34.6068 103.577 34.4909C103.704 34.394 103.809 34.2767 103.886 34.1453C104.79 32.7981 105.137 31.2392 105.276 29.6998C105.344 28.9355 105.429 28.125 105.369 27.3584C105.314 26.7012 104.352 26.5028 103.699 26.7694Z" fill="#E8E8F0"/>
<path opacity="0.1" d="M103.699 26.7694C103.533 26.856 103.358 26.9282 103.176 26.9848C102.872 27.048 102.562 26.9349 102.266 26.8472C101.015 26.4822 99.6252 26.5686 98.416 26.1171C98.8125 28.1099 98.2935 30.1592 96.9719 31.8185C96.7218 32.13 96.3924 32.4489 95.9587 32.4732C96.1519 32.9928 96.7468 33.3068 97.3111 33.5405C98.2122 33.9139 99.1549 34.2051 100.124 34.4094C100.402 34.4666 100.741 34.4946 100.902 34.2877C101 34.166 101.041 33.9579 101.212 33.9652C101.474 34.2086 101.388 34.7075 101.749 34.8171C101.862 34.8422 101.98 34.8422 102.092 34.8171L102.898 34.6954C103.14 34.677 103.373 34.6068 103.577 34.4909C103.704 34.394 103.809 34.2767 103.886 34.1453C104.79 32.7981 105.137 31.2392 105.276 29.6998C105.344 28.9355 105.429 28.125 105.369 27.3584C105.314 26.7012 104.352 26.5028 103.699 26.7694Z" fill="black"/>
<path d="M57.1066 66.2436C56.7105 65.7982 56.3032 65.3261 55.7167 65.0912C55.3788 64.9719 55.0231 64.8956 54.6604 64.8648C52.7049 64.6214 50.7452 64.3683 48.7716 64.3209C48.1267 64.305 47.4345 64.3209 46.9092 64.6507C46.3074 65.0267 46.0753 65.7191 46.0419 66.3653C46.006 67.1348 46.1805 67.9007 46.5508 68.5992C46.9212 69.2977 47.4767 69.9087 48.1712 70.3813C49.3525 71.1699 50.8453 71.4997 52.3018 71.7601C53.0676 71.8976 53.8376 72.0205 54.6104 72.1252C55.3831 72.2298 56.1698 72.3126 56.9162 72.5219C58.5117 72.9698 59.9197 73.9823 61.593 74.0662C61.6717 74.0769 61.7521 74.0649 61.8224 74.0321C61.8958 73.9802 61.9452 73.9067 61.9614 73.8253C62.3297 72.6874 63.6069 69.9627 61.9614 69.1668C61.101 68.7518 60.1462 68.7335 59.3039 68.2066C58.4617 67.6797 57.7459 66.9629 57.1066 66.2436Z" fill="#BE6F72"/>
<path d="M43.0565 73.7973C41.9738 72.9722 40.4797 72.5353 39.693 71.4851C39.3469 71.0226 39.1718 70.4798 38.9981 69.9468L38.4866 68.338C38.4472 68.2392 38.4293 68.1347 38.4338 68.0301C38.4727 67.6942 38.9244 67.5348 39.3052 67.4825C41.251 67.2172 43.2775 67.9036 44.734 69.0645C46.1906 70.2255 47.126 71.827 47.675 73.4869C47.7136 73.5714 47.7195 73.6646 47.6917 73.7522C47.6441 73.8302 47.569 73.8925 47.4776 73.9299C46.7744 74.295 45.8292 74.8268 45.0078 74.9388C44.1864 75.0507 43.6416 74.2378 43.0565 73.7973Z" fill="#BE6F72"/>
<path d="M90.5591 66.8606L96.2575 68.8576C96.7982 69.0469 97.2432 69.4001 97.5113 69.8527C97.7795 70.3053 97.8529 70.8271 97.7183 71.3232L93.4778 86.9403H82.876L84.7217 69.1728C84.7217 69.1728 88.7523 66.2521 90.5591 66.8606Z" fill="#3F3D56"/>
<path d="M96.063 64.9865C95.9573 65.1885 95.8017 65.3881 95.8253 65.6084C95.8392 65.7398 95.917 65.864 95.9059 65.9942C95.8837 66.2497 95.5459 66.3921 95.2541 66.3946C94.9622 66.397 94.6689 66.3142 94.3812 66.358C93.9087 66.4286 93.589 66.8095 93.1804 67.0298C92.6106 67.3365 91.8989 67.3182 91.2346 67.3705C89.8447 67.4801 88.5299 67.9364 87.2721 68.4561C86.4173 68.809 85.5098 69.2617 85.1873 70.0381C84.7245 71.1334 85.6223 72.287 85.8211 73.4456C85.8744 73.8356 85.8874 74.2291 85.86 74.6212C85.7141 78.7126 85.4625 82.8514 85.1956 86.9379L34.2489 86.9903L36.7576 83.141C39.2038 79.3867 41.7153 75.5619 45.4053 72.6911C45.9527 72.2584 46.5676 71.8962 47.2316 71.6153L50.1906 73.9275C50.4275 74.1338 50.7024 74.3037 51.0037 74.4301C51.5596 74.6285 52.1823 74.5153 52.7785 74.5323C53.9252 74.5652 54.9731 75.0775 55.9683 75.5777C56.6982 75.9245 57.4003 76.3144 58.0697 76.7447C58.4617 77.0076 59.0274 77.1719 59.436 77.4141L59.3401 73.0452C59.3304 72.6509 59.3234 72.2469 59.4582 71.8708C59.7195 71.1407 60.4659 70.6247 60.8245 69.9298C60.9871 69.617 61.0663 69.2763 61.2025 68.9562C61.3951 68.5448 61.6344 68.1514 61.9169 67.7819L63.7612 65.1873C64.2171 64.5472 64.6716 63.9071 65.1664 63.2901C67.3304 60.5872 70.2435 58.4223 73.0775 56.25C73.0116 55.631 73.1749 55.0098 73.5431 54.4781C73.6883 54.3011 73.8086 54.1095 73.9016 53.9074C73.9617 53.6678 73.979 53.4215 73.9531 53.1772C73.9531 53.1152 73.9531 53.0555 73.9531 52.9898C73.9839 52.5919 74.1738 52.2161 74.4896 51.9286C74.8148 51.6329 75.2498 51.4528 75.6779 51.2849C77.8932 50.4174 80.1966 49.7337 82.5577 49.2428C82.9343 49.1649 83.3332 49.0919 83.7043 49.1905C83.8169 49.5081 84.2005 49.6201 84.5841 49.7004L84.8301 49.7503C85.4816 49.8735 86.0892 50.1332 86.6008 50.5072C87.1387 50.9186 87.5084 51.4686 87.8684 52.0102C90.5744 56.0784 91.8211 61.416 96.0074 64.372C96.2103 64.5119 96.1686 64.7918 96.063 64.9865Z" fill="#030213"/>
<path opacity="0.1" d="M113.135 15.0184C111.67 17.8381 108.783 20.6164 105.014 20.6164C104.706 20.6166 104.398 20.6032 104.092 20.5763C103.961 20.4251 103.815 20.2842 103.656 20.1552C103.023 19.6416 102.127 19.509 101.506 19.0599C101.884 18.4782 102.723 17.9501 103.294 17.5059C103.912 17.028 104.552 16.5749 105.215 16.1466C106.541 15.2892 107.953 14.5385 109.433 13.9037C110.373 13.5009 111.354 13.1407 112.391 13.0178C112.522 12.992 112.658 13.0026 112.782 13.0482C112.943 13.1261 113.001 13.3013 113.04 13.4583C113.233 14.2372 112.973 14.2274 113.135 15.0184Z" fill="black"/>
<path d="M105.014 20.3718C110.157 20.3718 114.326 16.7213 114.326 12.2182C114.326 7.71512 110.157 4.06464 105.014 4.06464C99.8708 4.06464 95.7016 7.71512 95.7016 12.2182C95.7016 16.7213 99.8708 20.3718 105.014 20.3718Z" fill="#FBBEBE"/>
<path d="M124.406 39.3356C124.255 40.3214 123.99 41.2913 123.617 42.2307C123.478 42.5727 123.307 42.9061 123.13 43.2347C122.095 45.1563 121.527 47.2336 121.256 49.3462C121.235 49.5126 121.2 49.6773 121.151 49.8391C120.947 50.5206 120.516 51.1291 120.187 51.7704C119.851 52.4631 119.572 53.1761 119.353 53.9037C119.274 54.0863 119.247 54.2832 119.275 54.4769C119.326 54.6826 119.496 54.842 119.616 55.0282C120.233 55.9592 119.52 57.097 119.279 58.1509C119.197 58.516 119.161 58.9127 118.89 59.1975C118.659 59.4409 118.301 59.5528 117.96 59.6551C113.107 61.0998 108.139 62.2322 103.097 63.0431C102.345 63.1648 101.568 63.2779 100.822 63.1562C100.075 63.0345 99.3319 62.6305 99.0762 62.0001C98.9288 61.635 98.9539 61.2383 98.9664 60.8513C98.9942 60.0384 98.9664 59.2206 98.9163 58.4016C98.7551 55.706 98.3896 53.0008 99.1943 50.4184C99.4348 49.6566 99.7739 48.9215 100.046 48.1682C100.579 46.6994 100.716 45.1806 100.85 43.657C100.959 42.4011 101.066 41.1403 101.388 39.9015C101.627 38.9778 101.468 38.0176 101.454 37.0708C101.427 34.9042 102.154 32.7817 103.539 30.9861C103.779 30.6757 104.044 30.3691 104.17 30.0125C104.348 29.5014 104.226 28.9525 104.145 28.422C103.942 27.0691 104.024 25.6952 104.387 24.3683C104.501 23.8718 104.718 23.3978 105.028 22.97C105.374 22.5282 105.87 22.1948 106.366 21.8808C109.247 20.0625 112.425 18.6367 115.793 17.6519C116.103 18.3383 116.401 19.1403 116.638 19.8424C116.67 19.9374 116.693 20.0578 116.604 20.1187C116.515 20.1795 116.423 20.1467 116.326 20.1491C116.225 20.1586 116.131 20.1945 116.054 20.2521C115.977 20.3097 115.922 20.3862 115.896 20.4716C115.848 20.6439 115.866 20.8256 115.949 20.9876C116.138 21.4135 116.545 21.7311 116.937 22.0317L118.908 23.5371C119.144 23.7304 119.401 23.9024 119.677 24.0507C119.924 24.1724 120.194 24.2588 120.448 24.3707C121.468 24.8222 122.173 25.7021 122.566 26.6416C122.96 27.581 122.782 28.7104 123.294 29.6024C124.998 32.5596 124.985 36.0583 124.406 39.3356Z" fill="#E8E8F0"/>
<path d="M123.111 70.2778C123.71 72.3913 123.695 74.6023 123.068 76.7094C122.955 77.0855 122.823 77.4749 122.912 77.8558C122.964 78.0724 123.085 78.2756 123.112 78.4959C123.125 78.6969 123.1 78.8982 123.039 79.0922C122.422 81.6478 122.643 84.3032 122.891 86.9112C122.786 86.9112 122.752 86.9537 122.641 86.9537H119.963C119.916 86.2686 118.943 85.755 118.468 85.2086C118.008 84.673 117.69 84.0546 117.537 83.3981C117.383 82.7416 117.399 82.0635 117.582 81.413C117.999 79.9526 119.228 78.7856 119.857 77.3897C120.552 75.8539 120.493 74.1149 121.231 72.5961C121.654 71.7187 122.447 71.0336 123.111 70.2778Z" fill="#3F3D56"/>
<path opacity="0.1" d="M123.111 70.2778C123.71 72.3913 123.695 74.6023 123.068 76.7094C122.955 77.0855 122.823 77.4749 122.912 77.8558C122.964 78.0724 123.085 78.2756 123.112 78.4959C123.125 78.6969 123.1 78.8982 123.039 79.0922C122.422 81.6478 122.643 84.3032 122.891 86.9112C122.786 86.9112 122.752 86.9537 122.641 86.9537H119.963C119.916 86.2686 118.943 85.755 118.468 85.2086C118.008 84.673 117.69 84.0546 117.537 83.3981C117.383 82.7416 117.399 82.0635 117.582 81.413C117.999 79.9526 119.228 78.7856 119.857 77.3897C120.552 75.8539 120.493 74.1149 121.231 72.5961C121.654 71.7187 122.447 71.0336 123.111 70.2778Z" fill="black"/>
<path d="M117.49 58.5647C115.214 58.2458 113.008 59.2498 110.809 59.8595C107.45 60.7905 103.752 60.8477 100.648 62.3092C100.371 62.426 100.12 62.5851 99.9059 62.779C99.654 63.0521 99.4955 63.382 99.4487 63.7306C99.3099 64.5014 99.4804 65.2905 99.9309 65.9637C100.124 66.2509 100.367 66.515 100.517 66.8229C100.873 67.5531 100.636 68.3952 100.574 69.1935C100.435 70.9764 101.225 72.7117 101.383 74.4934C101.478 75.5436 101.354 76.617 101.636 77.6416C101.813 78.2842 102.145 78.8902 102.283 79.5401C102.42 80.1899 102.36 80.8252 102.406 81.4677C102.536 83.309 103.493 85.0979 103.26 86.9318L121.328 86.9842C120.658 84.9433 120.101 82.8331 120.708 80.7777C120.919 80.1278 121.181 79.4914 121.492 78.8732C122.502 76.735 123.54 74.5907 124.098 72.3296C124.655 70.0685 124.705 67.6541 123.761 65.4928C122.711 63.0832 120.477 61.0789 119.991 58.5355C119.157 58.4381 118.326 58.6815 117.49 58.5647Z" fill="#3F3D56"/>
<path d="M98.5286 8.24125C98.3535 7.91997 97.8573 7.70822 97.5237 7.91145C97.1901 8.11468 97.2332 8.56861 97.1512 8.93369C96.9928 9.65169 96.1783 10.1409 95.3444 10.2553C94.9539 10.3101 94.5188 10.2882 94.2158 10.0667C94.0207 9.90302 93.8771 9.69805 93.7989 9.47159C92.965 7.52446 93.4723 5.25119 94.8371 3.55232C95.1267 3.17164 95.4859 2.83532 95.9004 2.55686C97.0498 1.82668 98.587 1.82668 100.009 1.86563C100.297 1.89304 100.59 1.86351 100.864 1.77922C101.072 1.683 101.263 1.55994 101.431 1.41414C102.777 0.377293 104.638 -0.0583759 106.434 0.0109905C108.23 0.0803568 109.957 0.619467 111.553 1.33625C112.316 1.67822 113.064 2.06642 113.661 2.60675C115.097 3.90037 115.447 5.81708 115.729 7.60356C116.032 9.53122 116.334 11.5124 115.824 13.4072C115.535 14.4806 114.99 15.5296 115.054 16.6309C113.9 16.9196 112.726 17.1468 111.54 17.3112C110.985 17.3879 110.342 17.4329 109.935 17.0885C109.763 16.9269 109.637 16.7316 109.568 16.519C109.128 15.3787 109.275 14.0765 108.609 13.0227C108.331 12.593 107.933 12.2318 107.453 11.9727C106.972 11.7135 106.425 11.5649 105.861 11.5404C105.425 11.527 104.929 11.6207 104.705 11.9481C104.619 12.1087 104.553 12.2767 104.508 12.4495C104.199 13.2636 102.936 13.6664 102.103 13.2125C101.686 12.9837 101.401 12.604 101.025 12.3193C100.547 11.9603 99.9337 11.7753 99.3972 11.4856C97.6099 10.5157 99.2207 9.51296 98.5286 8.24125Z" fill="#3F3D56"/>
<path d="M84.5897 49.7016C83.8294 49.9146 83.1373 50.3003 82.3979 50.5717C81.0956 51.0476 79.664 51.1583 78.2978 51.4625C76.9852 51.7708 75.72 52.217 74.5299 52.7914C74.4423 52.8328 74.1671 53.0348 73.9475 53.1736C73.9475 53.1115 73.9475 53.0519 73.9475 52.9862C73.9783 52.5882 74.1682 52.2125 74.484 51.925C74.8092 51.6293 75.2442 51.4491 75.6723 51.2812C77.8896 50.4147 80.1948 49.7322 82.5577 49.2428C82.9343 49.1649 83.3332 49.0919 83.7043 49.1905C83.8225 49.5081 84.2061 49.6201 84.5897 49.7016Z" fill="#3F3D56"/>
<path opacity="0.1" d="M64.8856 80.9103C66.3811 82.3707 67.7223 83.9649 69.4624 85.1965C67.4541 82.8611 64.5729 81.3022 61.9683 79.5413C61.4402 79.1835 60.3839 78.676 60.0642 78.1588C59.5597 77.3483 60.6743 77.9239 61.1372 78.1442C62.5826 78.8318 63.7946 79.8467 64.8856 80.9103Z" fill="black"/>
<path opacity="0.1" d="M118.694 38.2829C118.623 38.8086 118.399 39.3076 118.173 39.7968C117.617 41.0138 117.021 42.2185 116.181 43.298C115.603 44.0415 114.915 44.7133 114.312 45.4398C113.693 46.211 113.125 47.0126 112.611 47.8409C111.663 49.311 110.739 50.7932 109.839 52.2876C109.41 53.0032 108.983 53.7248 108.429 54.371C108.039 54.8072 107.622 55.2233 107.178 55.6172C106.205 56.5153 105.205 57.3453 104.335 58.3188C103.905 58.8056 103.186 58.993 102.515 59.1585C102.29 59.2239 102.056 59.2608 101.82 59.2681C101.582 59.2535 101.348 59.208 101.125 59.133C100.375 58.9327 99.6415 58.6887 98.9288 58.4028C98.7676 55.7073 98.4021 53.002 99.2068 50.4196C99.4473 49.6578 99.7864 48.9227 100.059 48.1695C100.591 46.7006 100.729 45.1818 100.862 43.6582C101.028 43.3527 101.204 43.0497 101.375 42.7552C102.534 40.7497 103.511 38.5409 103.21 36.3054C103.133 35.9024 103.079 35.4962 103.05 35.0884C103.053 34.5885 103.149 34.0923 103.335 33.6196C103.751 32.503 104.438 31.4787 105.35 30.6173C106.262 29.7559 107.376 29.0779 108.616 28.63C109.008 28.4698 109.435 28.3867 109.867 28.3867C110.423 28.4122 110.955 28.6653 111.497 28.5729C113.333 29.2799 114.819 30.4871 115.93 31.9499C117.04 33.4127 117.101 35.3671 118.309 36.769C118.666 37.195 118.764 37.7584 118.694 38.2829Z" fill="black"/>
<path d="M78.5076 31.6785L78.4493 31.5677L76.1782 32.4853L75.7988 32.6387L75.4208 32.7908L78.623 38.8695L79.001 38.7161L79.3805 38.5628L81.6515 37.6452L81.5931 37.5357L79.3221 38.4533L79.2637 38.3425L81.5348 37.4249L81.4764 37.3142L79.2053 38.2318L79.147 38.121L81.418 37.2035L81.361 37.0927L79.0886 38.0103L79.0302 37.9008L81.3026 36.9832L81.2443 36.8724L78.9719 37.79L78.9135 37.6793L81.1859 36.7617L81.1275 36.651L78.8565 37.5685L78.7981 37.4578L81.0691 36.5402L81.0108 36.4307L78.7397 37.3483L78.6814 37.2375L80.9524 36.32L80.894 36.2092L78.623 37.1268L78.5646 37.0161L80.837 36.0985L80.7787 35.9877L78.5062 36.9053L78.4479 36.7958L80.7203 35.877L80.6619 35.7675L78.3895 36.685L78.3325 36.5743L80.6035 35.6567L80.5452 35.546L78.2741 36.4636L78.2158 36.3528L80.4868 35.4352L80.4284 35.3245L78.1574 36.2421L78.099 36.1325L80.3701 35.215L80.3131 35.1042L78.0406 36.0218L77.9823 35.9111L80.2547 34.9935L80.1963 34.8827L77.9239 35.8003L77.8669 35.6896L80.1379 34.7732L80.0796 34.6625L77.8085 35.58L77.7502 35.4693L80.0212 34.5517L79.9628 34.441L77.6918 35.3586L77.6334 35.2478L79.9044 34.3302L79.8475 34.2195L77.575 35.1383L77.5167 35.0275L79.7891 34.11L79.7307 33.9992L77.4583 34.9168L77.3999 34.8061L79.6723 33.8885L79.614 33.7777L77.3429 34.6953L77.2846 34.5846L79.5556 33.667L79.4972 33.5575L77.2262 34.4751L77.1678 34.3643L79.4388 33.4467L79.3805 33.336L77.1094 34.2536L77.0511 34.1428L79.3235 33.2252L79.2651 33.1157L76.9927 34.0321L76.9343 33.9226L79.2067 33.005L79.1484 32.8942L76.8759 33.8118L76.819 33.7011L79.09 32.7835L79.0316 32.6727L76.7606 33.5903L76.7022 33.4796L78.9732 32.562L78.9149 32.4525L76.6438 33.3701L76.5855 33.2593L78.8565 32.3417L78.7995 32.231L76.5271 33.1486L76.4687 33.0378L78.7411 32.1202L78.6828 32.0095L76.4103 32.9271L76.352 32.8176L78.6244 31.9L78.566 31.7892L76.2936 32.7068L76.2366 32.5961L78.5076 31.6785Z" fill="black"/>
<path opacity="0.1" d="M85.6376 45.0479C85.3444 45.4824 84.8954 45.8597 84.3381 45.9874C83.6432 46.1444 82.8343 45.8402 82.5313 45.2706C82.345 44.9177 82.3534 44.5137 82.3437 44.1255C82.3283 43.3652 82.2353 42.6077 82.0657 41.862C81.9795 41.4884 81.8641 41.1001 81.5737 40.8178C81.1984 40.4527 80.6008 40.331 80.0448 40.3225C79.3944 40.3152 78.6814 40.4698 78.3019 40.931C77.9976 41.3034 77.9448 41.8267 77.5403 42.1175C77.3605 42.2383 77.1468 42.3144 76.9218 42.3378C76.463 42.3878 75.9983 42.3018 75.6019 42.0933C75.2056 41.8848 74.9005 41.566 74.7356 41.1878C74.6077 40.8665 74.5451 40.4673 74.1977 40.3164C74.017 40.2373 73.8016 40.2519 73.6084 40.2008C73.0163 40.0438 72.8606 39.3867 72.8064 38.8476C72.7439 38.216 72.9843 36.9686 72.0879 36.926C71.1289 36.8798 70.0156 37.3677 69.1275 37.627C68.5576 37.8278 67.8877 38.059 67.3637 37.7779C66.9787 37.5698 66.8203 37.1377 66.8439 36.7422C66.8676 36.3467 67.0399 35.9719 67.1761 35.5946C67.4096 34.957 67.55 34.2949 67.764 33.6475C67.6634 33.8307 67.5738 34.0183 67.4958 34.2098C67.1872 34.9777 67.0427 35.7918 66.7592 36.5633C66.6202 36.9406 66.4506 37.3154 66.427 37.7109C66.4033 38.1064 66.566 38.5385 66.9468 38.7466C67.4708 39.0277 68.1407 38.7965 68.7105 38.5957C69.5986 38.3364 70.7119 37.8484 71.6709 37.8947C72.5674 37.9373 72.3269 39.1847 72.3895 39.8163C72.4437 40.3554 72.5993 41.0125 73.1914 41.1695C73.3846 41.2206 73.6 41.206 73.7807 41.2851C74.1282 41.436 74.1977 41.8352 74.3186 42.1565C74.4836 42.5347 74.7886 42.8535 75.185 43.062C75.5813 43.2705 76.046 43.3565 76.5049 43.3065C76.7299 43.2831 76.9435 43.207 77.1233 43.0862C77.5278 42.7954 77.5806 42.2721 77.885 41.8997C78.2644 41.436 78.9774 41.2815 79.6279 41.2912C80.1838 41.2985 80.7884 41.4202 81.1567 41.7865C81.4472 42.0688 81.5626 42.4571 81.6487 42.8307C81.8183 43.5764 81.9113 44.3339 81.9267 45.0942C81.9364 45.4824 81.9267 45.8864 82.1143 46.2393C82.4159 46.8089 83.2262 47.1131 83.9211 46.9561C84.4771 46.8283 84.9274 46.4511 85.2207 46.0166C85.4439 45.6619 85.6157 45.2842 85.7321 44.8922C85.7016 44.9482 85.671 44.998 85.6376 45.0479Z" fill="black"/>
<path d="M92.7871 44.2399C91.6752 43.3053 90.6703 42.2709 89.6724 41.2389C88.7162 40.2519 87.7572 39.2601 86.9872 38.1563C86.5105 37.4736 86.0852 36.7288 85.3527 36.2506C84.7968 35.8855 84.1171 35.7151 83.5028 35.4364C83.0608 35.2356 82.6536 34.9813 82.2172 34.7732C81.2652 34.3227 80.1938 34.1013 79.1122 34.1319C78.6633 34.1453 78.1532 34.2365 77.9225 34.5748C77.8433 34.6905 77.8058 34.8255 77.7251 34.9399C77.4764 35.305 76.8773 35.4085 76.673 35.7918C76.3283 36.4368 77.368 37.0294 77.4333 37.7389C77.4639 38.0943 77.2401 38.4253 77.1748 38.777C77.0636 39.3855 77.4236 39.9659 77.771 40.4965C78.5146 41.6332 79.4194 42.8781 80.8801 43.1641C81.3972 43.2651 81.9434 43.2322 82.4479 43.3758C82.8545 43.5108 83.2309 43.7073 83.5598 43.9563C84.9322 44.9035 86.1417 46.0187 87.1512 47.2677C87.621 47.8482 88.0463 48.4542 88.5202 49.031C90.0286 50.8585 92.0081 52.3486 94.2978 53.3804L96.0032 48.6343C96.2659 47.9041 96.473 46.9026 95.7252 46.333C94.7885 45.5944 93.7085 45.0114 92.7871 44.2399Z" fill="#FBBEBE"/>
<path d="M111.351 27.9692C110.809 28.0605 110.272 27.8086 109.721 27.783C109.289 27.7829 108.862 27.866 108.47 28.0264C107.23 28.4745 106.116 29.1526 105.205 30.014C104.293 30.8754 103.605 31.8995 103.189 33.0159C103.005 33.4906 102.91 33.9883 102.908 34.4896C102.916 34.8973 103.014 35.2989 103.068 35.7066C103.369 37.9385 102.392 40.1485 101.235 42.1565C100.594 43.2651 99.8712 44.4346 100.023 45.6698C100.042 45.8353 100.073 46.0215 99.9574 46.1566C99.8184 46.3172 99.5182 46.3257 99.3889 46.4949C99.2596 46.664 99.3778 46.9196 99.2749 47.1107C99.136 47.3808 98.6829 47.348 98.359 47.2518C97.4713 46.9888 96.6491 46.5799 95.9365 46.0471C94.7815 46.6373 93.5459 47.3407 93.1665 48.4627C93.0774 48.749 93.0155 49.0412 92.9817 49.3365L92.3854 53.6932C92.3062 54.27 92.2673 54.9466 92.7648 55.3312C93.6224 55.9957 95.1498 55.1353 96.0671 55.7364C96.302 55.8898 96.4549 56.1186 96.6231 56.3267C97.6252 57.5302 99.35 58.0596 100.968 58.5172C101.191 58.5913 101.425 58.6364 101.663 58.651C101.899 58.6452 102.134 58.6083 102.358 58.5415C103.03 58.376 103.748 58.1837 104.178 57.703C105.05 56.7295 106.049 55.8995 107.022 55.0014C107.465 54.6069 107.883 54.1908 108.273 53.7552C108.829 53.1078 109.254 52.3862 109.684 51.6706C110.581 50.1762 111.504 48.6939 112.452 47.2239C112.972 46.399 113.545 45.601 114.169 44.8338C114.773 44.1036 115.46 43.4343 116.038 42.6919C116.872 41.6113 117.471 40.4016 118.03 39.1907C118.256 38.704 118.48 38.2014 118.552 37.6768C118.625 37.1523 118.527 36.5889 118.163 36.1666C116.955 34.7635 116.896 32.8103 115.785 31.3475C114.675 29.8847 113.189 28.675 111.351 27.9692Z" fill="#E8E8F0"/>
<path d="M78.5452 32.1775C78.5127 32.1955 78.4852 32.2196 78.4646 32.248C78.4439 32.2764 78.4306 32.3084 78.4256 32.3418C78.4256 32.4026 78.4826 32.4501 78.5132 32.5048C78.598 32.6606 78.4618 32.8407 78.3061 32.9478C78.1504 33.0549 77.9614 33.1376 77.8766 33.2946C77.8636 33.3154 77.8578 33.3391 77.86 33.3628C77.8694 33.3949 77.8909 33.4232 77.9211 33.4431C78.0126 33.5352 78.1314 33.6035 78.2644 33.6402C78.4771 33.6792 78.6814 33.5563 78.862 33.4553C79.058 33.3468 79.2668 33.257 79.4847 33.1875C79.5522 33.1701 79.6157 33.1425 79.6723 33.106C79.7418 33.0454 79.7846 32.9652 79.7933 32.8797C79.8405 32.5742 79.6543 32.2809 79.4416 32.0278C79.1859 31.7296 78.7634 32.0132 78.5452 32.1775Z" fill="#3F3D56"/>
<path d="M57.2219 68.2421L42.795 61.7946C42.6897 61.7476 42.5608 61.7841 42.507 61.8763L38.8303 68.1837C38.7766 68.2759 38.8184 68.3888 38.9236 68.4358L53.3505 74.8833C53.4558 74.9304 53.5847 74.8938 53.6385 74.8016L57.3152 68.4942C57.3689 68.402 57.3271 68.2891 57.2219 68.2421Z" fill="#3F3D56"/>
<path d="M55.8936 68.4042L43.4475 62.8419L40.2895 68.2594L52.7357 73.8217L55.8936 68.4042Z" fill="#E8E8F0"/>
<path d="M41.5947 65.4302C41.6327 65.365 41.5721 65.2712 41.4593 65.2208C41.3465 65.1704 41.2242 65.1824 41.1862 65.2476C41.1481 65.3129 41.2087 65.4067 41.3216 65.4571C41.4344 65.5075 41.5566 65.4955 41.5947 65.4302Z" fill="#E6E8EC"/>
<path d="M55.2053 71.5288C55.2678 71.4216 55.1677 71.2674 54.9817 71.1842C54.7958 71.1011 54.5944 71.1206 54.5319 71.2278C54.4694 71.3349 54.5696 71.4892 54.7555 71.5723C54.9415 71.6554 55.1429 71.6359 55.2053 71.5288Z" fill="#E6E8EC"/>
<g opacity="0.1">
<path d="M115.821 12.5505C115.532 13.6238 114.987 14.6728 115.051 15.7742C113.897 16.0629 112.723 16.29 111.538 16.4545C110.982 16.5311 110.34 16.5762 109.932 16.2318C109.76 16.0701 109.634 15.8749 109.565 15.6622C109.125 14.5219 109.272 13.2198 108.606 12.1659C108.328 11.7362 107.93 11.375 107.45 11.1159C106.97 10.8568 106.422 10.7081 105.859 10.6837C105.422 10.6703 104.926 10.764 104.702 11.0913C104.617 11.2519 104.55 11.42 104.505 11.5927C104.196 12.4069 102.933 12.8097 102.101 12.3558C101.684 12.127 101.399 11.7473 101.022 11.4625C100.544 11.1035 99.931 10.9185 99.3945 10.6289C98.9108 10.3685 98.6787 10.1056 98.58 9.83423C98.4577 10.4196 98.423 10.9575 99.3945 11.4808C99.931 11.7704 100.544 11.9554 101.022 12.3144C101.399 12.5967 101.678 12.9788 102.101 13.2076C102.934 13.6591 104.196 13.2587 104.505 12.4446C104.55 12.2718 104.617 12.1038 104.702 11.9432C104.926 11.6158 105.422 11.5221 105.859 11.5355C106.422 11.56 106.97 11.7087 107.45 11.9678C107.93 12.2269 108.328 12.5881 108.606 13.0178C109.272 14.0717 109.125 15.3738 109.565 16.5141C109.635 16.7285 109.763 16.9251 109.938 17.0873C110.345 17.428 110.989 17.3866 111.543 17.31C112.729 17.1455 113.902 16.9184 115.057 16.6297C114.989 15.5284 115.538 14.4793 115.827 13.406C116.049 12.5277 116.139 11.6275 116.092 10.7287C116.07 11.3422 115.979 11.9524 115.821 12.5505Z" fill="black"/>
<path d="M98.6634 8.58196C98.7651 8.1817 98.7163 7.76338 98.5244 7.38935C98.3493 7.06807 97.8531 6.85632 97.5195 7.05955C97.186 7.26278 97.2332 7.71671 97.1512 8.08179C96.9928 8.7998 96.1783 9.28901 95.3444 9.4034C94.9539 9.45817 94.5188 9.43626 94.2158 9.21478C94.0207 9.05112 93.8771 8.84615 93.7989 8.61969C93.5854 8.11355 93.4558 7.58326 93.4139 7.04495C93.3433 7.86859 93.4746 8.69593 93.7989 9.47155C93.8771 9.69802 94.0207 9.90299 94.2158 10.0666C94.5188 10.2881 94.9539 10.31 95.3444 10.2553C96.1686 10.1409 96.9872 9.6468 97.1512 8.93366C97.2304 8.56857 97.1762 8.12682 97.5209 7.9175C97.8656 7.70819 98.3548 7.92602 98.5258 8.2473C98.5853 8.35417 98.6315 8.46638 98.6634 8.58196Z" fill="black"/>
</g>
</svg>
