<svg width="125" height="92" viewBox="0 0 125 92" fill="none" xmlns="http://www.w3.org/2000/svg">
<g clip-path="url(#clip0_75_503)">
<path d="M107.314 38.4135C109.037 40.3577 110.959 40.668 113.08 39.3442C112.19 37.8091 111.978 36.1394 112.215 34.3804H108.083C108.266 35.9261 108.216 37.3653 107.314 38.4135Z" fill="#FFB8B8"/>
<path d="M114.138 89.2923L116.348 88.0515L117.309 74.9181V67.9894L112.215 67.886L113.657 74.8147L114.138 89.2923Z" fill="#FFB8B8"/>
<path d="M107.73 89.2923L105.519 88.0515L104.558 74.9181V67.9894L109.652 67.886L108.21 74.8147L107.73 89.2923Z" fill="#FFB8B8"/>
<path d="M104.334 69.4372L109.717 68.9201L110.582 63.6461L111.639 68.8167L117.502 68.4031C117.63 65.8904 117.304 63.3043 116.54 60.6472L103.661 60.3369L104.334 69.4372Z" fill="#2F2E41"/>
<path d="M98.7399 49.6303L92.2656 44.2662C92.1984 44.2105 92.1246 44.1649 92.046 44.1305L91.105 43.7186C90.3492 43.3877 88.9095 42.2872 89.6116 41.154C90.1777 40.2404 92.3446 41.8771 92.6111 42.4834C92.6954 42.6742 92.8335 42.8315 93.0059 42.9327L94.3216 43.7084C94.3536 43.7273 94.3866 43.7441 94.4204 43.7589L99.4296 45.9435C99.5685 46.004 99.7187 46.028 99.868 46.0136C100.017 45.9991 100.161 45.9465 100.288 45.8601L101.196 45.2406C101.325 45.1524 101.472 45.0995 101.625 45.0863C101.777 45.0731 101.93 45.1002 102.071 45.165C102.212 45.2299 102.336 45.3307 102.432 45.4586C102.528 45.5866 102.594 45.7378 102.624 45.8993L102.924 47.5292C102.967 47.7639 102.932 48.0075 102.824 48.2168C102.716 48.4261 102.543 48.5877 102.336 48.6729L99.6498 49.7743C99.4994 49.836 99.3367 49.8552 99.1774 49.83C99.0181 49.8048 98.8675 49.736 98.7399 49.6303Z" fill="#FFB8B8"/>
<path d="M99.9426 45.722C101.735 45.2049 101.547 47.8993 102.914 49.2242L105.603 46.9402L104.046 38.8271C103.628 38.9556 103.244 39.1869 102.923 39.5026C102.603 39.8184 102.355 40.2101 102.199 40.6466L99.9426 45.722Z" fill="#6C63FF"/>
<path d="M103.277 60.854H116.829C114.636 54.4947 114.849 47.9543 116.717 41.2893C116.748 41.1787 116.742 41.0597 116.701 40.953C116.66 40.8462 116.585 40.7584 116.49 40.7046L112.6 38.5169C111.073 39.5859 109.432 39.2574 107.698 37.793L103.469 39.034C104.62 46.4733 104.653 53.7599 103.277 60.854Z" fill="#680000"/>
<path d="M106.666 91.7212L101.018 91.9787C100.772 91.99 100.531 91.9029 100.341 91.7343C100.151 91.5658 100.026 91.3276 99.9898 91.0657C99.953 90.8012 100.009 90.5314 100.148 90.3093C100.286 90.0872 100.497 89.9288 100.738 89.8651L101.696 89.6125L105.461 87.2645C106.019 87.8859 106.787 88.4114 107.726 88.8589L107.737 90.5097C107.739 90.8217 107.629 91.1223 107.429 91.3483C107.229 91.5743 106.955 91.708 106.666 91.7212Z" fill="#2F2E41"/>
<path d="M124.944 91.9999H0.0454273V91.6678H125L124.944 91.9999Z" fill="#3F3D56"/>
<path d="M115.155 91.6289L120.803 91.8865C121.049 91.8977 121.29 91.8107 121.479 91.6421C121.669 91.4735 121.794 91.2354 121.831 90.9735C121.868 90.7089 121.811 90.4392 121.673 90.2171C121.534 89.995 121.324 89.8365 121.082 89.7729L120.124 89.5202L116.359 87.1722C115.802 87.7937 115.033 88.3192 114.094 88.7667L114.083 90.4175C114.081 90.7295 114.192 91.0301 114.392 91.2561C114.592 91.482 114.865 91.6157 115.155 91.6289Z" fill="#2F2E41"/>
<path d="M109.716 36.2419C111.415 36.2419 112.792 34.7603 112.792 32.9327C112.792 31.105 111.415 29.6235 109.716 29.6235C108.018 29.6235 106.641 31.105 106.641 32.9327C106.641 34.7603 108.018 36.2419 109.716 36.2419Z" fill="#FFB8B8"/>
<path d="M114.522 59.8198L113.506 61.9456C113.416 62.1332 113.365 62.3391 113.354 62.5497C113.344 62.7604 113.375 62.971 113.445 63.1678C113.516 63.3646 113.625 63.5431 113.764 63.6915C113.903 63.8399 114.07 63.9549 114.254 64.029C114.448 64.1074 114.656 64.138 114.863 64.1185C115.07 64.099 115.27 64.0299 115.448 63.9164C115.627 63.8028 115.78 63.6476 115.895 63.4622C116.011 63.2769 116.086 63.066 116.116 62.845L116.54 59.7164L118.078 51.8571L117.982 47.9274H114.907C115.956 50.8502 115.435 55.1613 114.522 59.8198Z" fill="#FFB8B8"/>
<path d="M114.426 48.3411H118.559L117.959 43.4644C117.878 42.803 117.644 42.1741 117.278 41.6351C116.913 41.096 116.428 40.6639 115.868 40.3784L114.426 48.3411Z" fill="#6C63FF"/>
<path d="M112.986 31.1099C113.048 30.6679 113.022 30.2168 112.911 29.7862C112.799 29.3556 112.605 28.9551 112.34 28.6108C111.815 27.9427 110.936 27.3958 109.476 27.6538C106.292 28.2166 105.374 31.0684 105.686 31.7856C105.998 32.5028 106.954 34.1653 106.954 34.1653C106.954 34.1653 106.253 32.5196 107.014 32.1846C107.776 31.8496 110.723 30.53 111.752 31.1245C112.043 31.2818 112.29 31.5193 112.468 31.8129C112.646 32.1064 112.749 32.4456 112.766 32.7957L112.986 31.1099Z" fill="#2F2E41"/>
<path d="M60.3451 17.338L59.1086 18.0131C57.6842 14.9955 55.7973 12.2579 53.527 9.9153C42.3779 -1.61714 24.5875 -1.2401 13.8691 10.7558C3.15071 22.7517 3.50114 41.8934 14.6502 53.4258C16.7722 55.6251 19.2032 57.4508 21.8537 58.8354L21.2488 60.1778C17.0477 57.983 13.3922 54.7441 10.5845 50.7287C7.77672 46.7133 5.89729 42.0367 5.10145 37.0853C4.30561 32.1339 4.61622 27.0497 6.00759 22.253C7.39897 17.4563 9.83118 13.0846 13.1033 9.49923C16.3754 5.91383 20.3934 3.21762 24.8254 1.63336C29.2574 0.0491048 33.9762 -0.377724 38.5919 0.388143C43.2075 1.15401 47.5875 3.09059 51.37 6.03787C55.1525 8.98515 58.229 12.8585 60.3451 17.338Z" fill="#E6E6E6"/>
<path d="M18.5096 45.0941C16.6908 47.1298 15.698 49.8595 15.7497 52.6827C15.8013 55.506 16.8933 58.1915 18.7852 60.1485C20.6772 62.1055 23.2142 63.1737 25.8381 63.1181C28.4621 63.0625 30.958 61.8876 32.7769 59.852L34.4805 57.9453L20.2132 43.1875L18.5096 45.0941Z" fill="#E6E6E6"/>
<path d="M19.2573 42.1046C18.8524 42.5587 18.6315 43.1671 18.643 43.7963C18.6546 44.4255 18.8976 45.024 19.3187 45.4607L32.4046 58.9965C32.8264 59.4328 33.392 59.6709 33.9769 59.6585C34.5619 59.6461 35.1183 59.3842 35.5238 58.9304C35.9293 58.4766 36.1506 57.8681 36.1391 57.2387C36.1275 56.6093 35.8841 56.0106 35.4624 55.5743L22.3764 42.0385C21.9544 41.6029 21.3889 41.3652 20.8042 41.3776C20.2194 41.39 19.6631 41.6514 19.2573 42.1046Z" fill="#535461"/>
<path d="M58.5055 31.0568L60.209 29.1502C62.0279 27.1145 63.0207 24.3848 62.969 21.5616C62.9173 18.7383 61.8254 16.0528 59.9335 14.0958C58.9966 13.1268 57.8916 12.3658 56.6815 11.8563C55.4713 11.3468 54.1798 11.0987 52.8805 11.1262C50.2566 11.1818 47.7606 12.3567 45.9418 14.3923L44.2382 16.299L58.5055 31.0568Z" fill="#E6E6E6"/>
<path d="M43.1949 15.3139C42.79 15.768 42.5691 16.3764 42.5806 17.0056C42.5922 17.6348 42.8352 18.2333 43.2563 18.67L56.3422 32.2058C56.7641 32.6416 57.3295 32.8793 57.9142 32.8666C58.4989 32.854 59.055 32.5921 59.4603 32.1385C59.8656 31.6849 60.0869 31.0767 60.0756 30.4476C60.0643 29.8185 59.8213 29.22 59.4 28.7836L46.3141 15.2478C45.892 14.8122 45.3265 14.5745 44.7418 14.5869C44.157 14.5993 43.6007 14.8607 43.1949 15.3139Z" fill="#535461"/>
<path d="M48.715 46.5949V45.4952C48.715 45.4952 53.1753 42.7957 56.7993 45.4952V46.495L48.715 46.5949Z" fill="#535461"/>
<path d="M89.322 46.5949V45.4952C89.322 45.4952 93.7822 42.7957 97.4062 45.4952V46.495L89.322 46.5949Z" fill="#535461"/>
<path d="M62.0958 46.495H57.7285C57.7285 46.495 56.6134 45.0953 52.8965 45.1952C49.1797 45.2952 48.4363 46.495 48.4363 46.495C48.4363 46.495 44.7659 49.1444 43.9296 52.4438C43.9296 52.4438 39.4228 66.9908 39.3299 78.3885C39.237 89.7861 43.3256 91.3858 45.4628 91.6857C47.6 91.9857 51.4098 91.5857 55.1267 81.4878L56.7063 75.589C56.7063 75.589 56.9851 72.0897 60.3303 74.2893C63.6755 76.4888 66.649 73.0895 66.649 73.0895H79.1935C79.1935 73.0895 83.3749 75.889 87.1847 73.6894C87.1847 73.6894 88.6715 71.5898 90.0653 78.6884C90.0653 78.6884 94.3397 93.2854 100.937 91.7857C107.535 90.286 106.791 78.0885 106.791 78.0885C106.791 78.0885 105.909 59.4423 102.285 52.8437C102.285 52.8437 98.8 45.9951 96.4769 45.6951C96.4769 45.6951 91.4592 44.6953 89.5078 45.5952L88.3927 46.5949L62.0958 46.495Z" fill="#CBD7C7"/>
<path d="M51.9673 64.9912C56.4321 64.9912 60.0515 61.0968 60.0515 56.2929C60.0515 51.4891 56.4321 47.5947 51.9673 47.5947C47.5025 47.5947 43.8831 51.4891 43.8831 56.2929C43.8831 61.0968 47.5025 64.9912 51.9673 64.9912Z" fill="#535461"/>
<path d="M94.1539 64.9912C98.6187 64.9912 102.238 61.0968 102.238 56.2929C102.238 51.4891 98.6187 47.5947 94.1539 47.5947C89.6891 47.5947 86.0697 51.4891 86.0697 56.2929C86.0697 61.0968 89.6891 64.9912 94.1539 64.9912Z" fill="#535461"/>
<path d="M53.376 54.3534L52.2981 55.3791C52.2068 55.4656 52.0894 55.5133 51.9678 55.5133C51.8462 55.5133 51.7287 55.4656 51.6374 55.3791L50.5577 54.3534C50.5049 54.3033 50.4625 54.2418 50.4334 54.1729C50.4042 54.1039 50.389 54.0292 50.3886 53.9534V51.131C50.3888 50.9885 50.4416 50.852 50.5353 50.7513C50.6291 50.6507 50.7561 50.5941 50.8885 50.5941H53.0489C53.1813 50.5939 53.3083 50.6502 53.402 50.7507C53.4958 50.8512 53.5486 50.9876 53.5488 51.13V53.9514C53.5483 54.0278 53.5325 54.1032 53.5027 54.1725C53.4729 54.2418 53.4297 54.3034 53.376 54.3534Z" fill="#E6E6E6"/>
<path d="M53.376 58.2315L52.2981 57.2067C52.2068 57.1203 52.0894 57.0726 51.9678 57.0726C51.8462 57.0726 51.7287 57.1203 51.6374 57.2067L50.5577 58.2325C50.5049 58.2826 50.4625 58.3441 50.4334 58.413C50.4042 58.4819 50.389 58.5567 50.3886 58.6324V61.4519C50.3883 61.5943 50.4407 61.7309 50.5341 61.8318C50.6275 61.9327 50.7543 61.9895 50.8866 61.9898H53.0489C53.1813 61.99 53.3083 61.9337 53.402 61.8332C53.4958 61.7327 53.5486 61.5963 53.5489 61.4539V58.6334C53.5483 58.5571 53.5325 58.4817 53.5027 58.4124C53.4729 58.3431 53.4297 58.2814 53.376 58.2315Z" fill="#E6E6E6"/>
<path d="M50.1656 57.8106L51.1189 56.6489C51.1993 56.5507 51.2436 56.4243 51.2436 56.2934C51.2436 56.1626 51.1993 56.0362 51.1189 55.938L50.1656 54.7763C50.119 54.7195 50.0618 54.6739 49.9978 54.6426C49.9337 54.6112 49.8642 54.5948 49.7939 54.5943H47.1735C47.041 54.5946 46.9141 54.6514 46.8206 54.7522C46.727 54.853 46.6745 54.9897 46.6745 55.1322V57.4567C46.6742 57.5991 46.7266 57.7358 46.82 57.8366C46.9134 57.9375 47.0402 57.9943 47.1725 57.9946H49.7948C49.8652 57.9938 49.9346 57.977 49.9985 57.9453C50.0624 57.9136 50.1193 57.8677 50.1656 57.8106Z" fill="#E6E6E6"/>
<path d="M53.77 57.8107L52.8185 56.6479C52.7379 56.5498 52.6935 56.4234 52.6935 56.2925C52.6935 56.1616 52.7379 56.0352 52.8185 55.937L53.7719 54.7753C53.8184 54.7185 53.8756 54.6729 53.9396 54.6415C54.0037 54.6102 54.0732 54.5937 54.1435 54.5933H56.7639C56.8963 54.5931 57.0233 54.6494 57.1171 54.7499C57.2108 54.8504 57.2636 54.9868 57.2639 55.1292V57.4557C57.2641 57.5981 57.2118 57.7348 57.1184 57.8357C57.025 57.9365 56.8981 57.9934 56.7658 57.9936H54.1445C54.0736 57.9935 54.0035 57.9771 53.9389 57.9456C53.8743 57.914 53.8167 57.868 53.77 57.8107Z" fill="#E6E6E6"/>
<path d="M62.9321 72.0897C66.1652 72.0897 68.7862 69.2697 68.7862 65.791C68.7862 62.3123 66.1652 59.4923 62.9321 59.4923C59.699 59.4923 57.078 62.3123 57.078 65.791C57.078 69.2697 59.699 72.0897 62.9321 72.0897Z" fill="#535461"/>
<path d="M83.1891 72.0897C86.4222 72.0897 89.0432 69.2697 89.0432 65.791C89.0432 62.3123 86.4222 59.4923 83.1891 59.4923C79.956 59.4923 77.335 62.3123 77.335 65.791C77.335 69.2697 79.956 72.0897 83.1891 72.0897Z" fill="#535461"/>
<path d="M62.9321 69.9901C65.0875 69.9901 66.8348 68.1101 66.8348 65.791C66.8348 63.4719 65.0875 61.5919 62.9321 61.5919C60.7767 61.5919 59.0294 63.4719 59.0294 65.791C59.0294 68.1101 60.7767 69.9901 62.9321 69.9901Z" fill="#E6E6E6"/>
<path d="M62.9321 68.6904C62.3992 68.6904 61.8782 68.5204 61.435 68.2018C60.9919 67.8832 60.6465 67.4304 60.4425 66.9006C60.2385 66.3708 60.1852 65.7878 60.2892 65.2254C60.3931 64.6629 60.6498 64.1463 61.0267 63.7408C61.4035 63.3353 61.8837 63.0592 62.4064 62.9473C62.9291 62.8354 63.471 62.8929 63.9634 63.1123C64.4558 63.3318 64.8766 63.7034 65.1727 64.1802C65.4688 64.657 65.6269 65.2176 65.6269 65.791C65.626 66.5597 65.3419 67.2967 64.8367 67.8402C64.3315 68.3838 63.6466 68.6895 62.9321 68.6904ZM62.9321 63.0916C62.4359 63.0916 61.9508 63.2499 61.5383 63.5465C61.1257 63.8431 60.8041 64.2647 60.6142 64.758C60.4243 65.2512 60.3746 65.794 60.4714 66.3177C60.5682 66.8413 60.8072 67.3223 61.1581 67.6998C61.5089 68.0773 61.956 68.3344 62.4427 68.4386C62.9293 68.5428 63.4338 68.4893 63.8922 68.285C64.3507 68.0807 64.7425 67.7347 65.0182 67.2907C65.2939 66.8468 65.441 66.3249 65.441 65.791C65.4403 65.0753 65.1757 64.3892 64.7053 63.8831C64.235 63.377 63.5973 63.0924 62.9321 63.0916Z" fill="#535461"/>
<path d="M83.1891 69.9901C85.3445 69.9901 87.0918 68.1101 87.0918 65.791C87.0918 63.4719 85.3445 61.5919 83.1891 61.5919C81.0337 61.5919 79.2864 63.4719 79.2864 65.791C79.2864 68.1101 81.0337 69.9901 83.1891 69.9901Z" fill="#E6E6E6"/>
<path d="M83.1891 68.6904C82.6561 68.6904 82.1351 68.5204 81.692 68.2018C81.2489 67.8832 80.9035 67.4304 80.6995 66.9006C80.4955 66.3708 80.4422 65.7878 80.5462 65.2254C80.6501 64.6629 80.9068 64.1463 81.2836 63.7408C81.6605 63.3353 82.1407 63.0592 82.6634 62.9473C83.1861 62.8354 83.7279 62.8929 84.2203 63.1123C84.7127 63.3318 85.1336 63.7034 85.4297 64.1802C85.7258 64.657 85.8839 65.2176 85.8839 65.791C85.883 66.5597 85.5989 67.2967 85.0937 67.8402C84.5885 68.3838 83.9035 68.6895 83.1891 68.6904ZM83.1891 63.0916C82.6929 63.0916 82.2078 63.2499 81.7952 63.5465C81.3827 63.8431 81.0611 64.2647 80.8712 64.758C80.6813 65.2512 80.6316 65.794 80.7284 66.3177C80.8252 66.8413 81.0642 67.3223 81.4151 67.6998C81.7659 68.0773 82.213 68.3344 82.6997 68.4386C83.1863 68.5428 83.6908 68.4893 84.1492 68.285C84.6077 68.0807 84.9995 67.7347 85.2752 67.2907C85.5509 66.8468 85.698 66.3249 85.698 65.791C85.6972 65.0753 85.4327 64.3892 84.9623 63.8831C84.492 63.377 83.8543 63.0924 83.1891 63.0916Z" fill="#535461"/>
<path d="M73.2465 68.2905C74.1702 68.2905 74.919 67.4848 74.919 66.4909C74.919 65.4969 74.1702 64.6912 73.2465 64.6912C72.3227 64.6912 71.5739 65.4969 71.5739 66.4909C71.5739 67.4848 72.3227 68.2905 73.2465 68.2905Z" fill="#535461"/>
<path d="M70.6902 60.877C70.8918 60.877 71.0554 60.7011 71.0554 60.4841C71.0554 60.2671 70.8918 60.0912 70.6902 60.0912C70.4885 60.0912 70.325 60.2671 70.325 60.4841C70.325 60.7011 70.4885 60.877 70.6902 60.877Z" fill="#535461"/>
<path d="M72.058 60.877C72.2597 60.877 72.4232 60.7011 72.4232 60.4841C72.4232 60.2671 72.2597 60.0912 72.058 60.0912C71.8563 60.0912 71.6928 60.2671 71.6928 60.4841C71.6928 60.7011 71.8563 60.877 72.058 60.877Z" fill="#535461"/>
<path d="M71.8758 62.7416C72.0775 62.7416 72.241 62.5657 72.241 62.3487C72.241 62.1317 72.0775 61.9558 71.8758 61.9558C71.6742 61.9558 71.5107 62.1317 71.5107 62.3487C71.5107 62.5657 71.6742 62.7416 71.8758 62.7416Z" fill="#535461"/>
<path d="M73.1535 62.7916C73.3588 62.7916 73.5252 62.6126 73.5252 62.3917C73.5252 62.1708 73.3588 61.9918 73.1535 61.9918C72.9483 61.9918 72.7818 62.1708 72.7818 62.3917C72.7818 62.6126 72.9483 62.7916 73.1535 62.7916Z" fill="#535461"/>
<path d="M74.4293 62.7416C74.631 62.7416 74.7945 62.5657 74.7945 62.3487C74.7945 62.1317 74.631 61.9558 74.4293 61.9558C74.2277 61.9558 74.0642 62.1317 74.0642 62.3487C74.0642 62.5657 74.2277 62.7416 74.4293 62.7416Z" fill="#535461"/>
<path d="M71.3285 61.8588C71.5302 61.8588 71.6937 61.6829 71.6937 61.4659C71.6937 61.2489 71.5302 61.073 71.3285 61.073C71.1269 61.073 70.9634 61.2489 70.9634 61.4659C70.9634 61.6829 71.1269 61.8588 71.3285 61.8588Z" fill="#535461"/>
<path d="M72.5031 61.8918C72.7083 61.8918 72.8748 61.7128 72.8748 61.4919C72.8748 61.271 72.7083 61.092 72.5031 61.092C72.2978 61.092 72.1314 61.271 72.1314 61.4919C72.1314 61.7128 72.2978 61.8918 72.5031 61.8918Z" fill="#535461"/>
<path d="M73.7111 61.8918C73.9163 61.8918 74.0828 61.7128 74.0828 61.4919C74.0828 61.271 73.9163 61.092 73.7111 61.092C73.5058 61.092 73.3394 61.271 73.3394 61.4919C73.3394 61.7128 73.5058 61.8918 73.7111 61.8918Z" fill="#535461"/>
<path d="M74.9767 61.8588C75.1783 61.8588 75.3418 61.6829 75.3418 61.4659C75.3418 61.2489 75.1783 61.073 74.9767 61.073C74.775 61.073 74.6115 61.2489 74.6115 61.4659C74.6115 61.6829 74.775 61.8588 74.9767 61.8588Z" fill="#535461"/>
<path d="M73.1535 60.892C73.3588 60.892 73.5252 60.713 73.5252 60.4921C73.5252 60.2712 73.3588 60.0922 73.1535 60.0922C72.9483 60.0922 72.7818 60.2712 72.7818 60.4921C72.7818 60.713 72.9483 60.892 73.1535 60.892Z" fill="#535461"/>
<path d="M74.4544 60.892C74.6597 60.892 74.8261 60.713 74.8261 60.4921C74.8261 60.2712 74.6597 60.0922 74.4544 60.0922C74.2492 60.0922 74.0827 60.2712 74.0827 60.4921C74.0827 60.713 74.2492 60.892 74.4544 60.892Z" fill="#535461"/>
<path d="M75.524 60.877C75.7256 60.877 75.8891 60.7011 75.8891 60.4841C75.8891 60.2671 75.7256 60.0912 75.524 60.0912C75.3223 60.0912 75.1588 60.2671 75.1588 60.4841C75.1588 60.7011 75.3223 60.877 75.524 60.877Z" fill="#535461"/>
<path d="M59.3546 47.347C59.1827 47.3472 59.0179 47.4208 58.8964 47.5516C58.7748 47.6823 58.7065 47.8597 58.7063 48.0446V50.1442C58.7065 50.3292 58.7748 50.5065 58.8964 50.6372C59.0179 50.768 59.1827 50.8416 59.3546 50.8418H59.8192C59.9911 50.8416 60.1559 50.768 60.2774 50.6372C60.399 50.5065 60.4673 50.3292 60.4675 50.1442V48.0446C60.4673 47.8597 60.399 47.6823 60.2774 47.5516C60.1559 47.4208 59.9911 47.3472 59.8192 47.347H59.3546Z" fill="#535461"/>
<path d="M86.4878 47.347C86.3159 47.3472 86.1511 47.4208 86.0296 47.5516C85.908 47.6823 85.8397 47.8597 85.8395 48.0446V50.1442C85.8397 50.3292 85.908 50.5065 86.0296 50.6373C86.1511 50.768 86.3159 50.8416 86.4878 50.8418H86.9524C87.1243 50.8416 87.2891 50.768 87.4107 50.6373C87.5322 50.5065 87.6006 50.3292 87.6007 50.1442V48.0446C87.6006 47.8597 87.5322 47.6823 87.4107 47.5516C87.2891 47.4208 87.1243 47.3472 86.9524 47.347H86.4878Z" fill="#535461"/>
<path d="M94.2468 53.3936C95.4785 53.3936 96.4769 52.3193 96.4769 50.9941C96.4769 49.6688 95.4785 48.5945 94.2468 48.5945C93.0152 48.5945 92.0167 49.6688 92.0167 50.9941C92.0167 52.3193 93.0152 53.3936 94.2468 53.3936Z" fill="#E6E6E6"/>
<path d="M89.5078 58.4925C90.7395 58.4925 91.7379 57.4182 91.7379 56.093C91.7379 54.7678 90.7395 53.6935 89.5078 53.6935C88.2761 53.6935 87.2777 54.7678 87.2777 56.093C87.2777 57.4182 88.2761 58.4925 89.5078 58.4925Z" fill="#E6E6E6"/>
<path d="M99.1717 58.1926C100.403 58.1926 101.402 57.1183 101.402 55.7931C101.402 54.4679 100.403 53.3936 99.1717 53.3936C97.94 53.3936 96.9415 54.4679 96.9415 55.7931C96.9415 57.1183 97.94 58.1926 99.1717 58.1926Z" fill="#E6E6E6"/>
<path d="M94.6185 63.4915C95.8502 63.4915 96.8486 62.4172 96.8486 61.092C96.8486 59.7667 95.8502 58.6924 94.6185 58.6924C93.3868 58.6924 92.3884 59.7667 92.3884 61.092C92.3884 62.4172 93.3868 63.4915 94.6185 63.4915Z" fill="#E6E6E6"/>
<path d="M63.5593 45.9474C63.061 45.948 62.5833 46.1613 62.2309 46.5404C61.8785 46.9195 61.6803 47.4335 61.6798 47.9697V56.9178C61.6803 57.454 61.8785 57.968 62.2309 58.3471C62.5833 58.7262 63.061 58.9395 63.5593 58.9401H82.6547C83.153 58.9395 83.6308 58.7262 83.9831 58.3471C84.3355 57.968 84.5337 57.454 84.5343 56.9178V47.9697C84.5337 47.4335 84.3355 46.9195 83.9831 46.5404C83.6308 46.1613 83.153 45.948 82.6547 45.9474H63.5593Z" fill="#535461"/>
<path d="M95.7619 52.0938H92.7377L94.1976 49.4009L95.7619 52.0938ZM93.0613 51.8938H95.4265L94.2031 49.7877L93.0613 51.8938Z" fill="#535461"/>
<path d="M90.7623 57.2927H88.2534V54.8932H90.7623V57.2927ZM88.4392 57.0927H90.5764V55.0931H88.4392V57.0927Z" fill="#535461"/>
<path d="M99.1717 57.2927C98.896 57.2927 98.6265 57.2048 98.3973 57.04C98.1681 56.8752 97.9895 56.641 97.884 56.3669C97.7785 56.0929 97.7509 55.7914 97.8047 55.5004C97.8584 55.2095 97.9912 54.9423 98.1861 54.7326C98.381 54.5229 98.6294 54.38 98.8998 54.3222C99.1701 54.2643 99.4504 54.294 99.7051 54.4075C99.9598 54.521 100.177 54.7132 100.331 54.9598C100.484 55.2065 100.566 55.4964 100.566 55.793C100.565 56.1906 100.418 56.5718 100.157 56.853C99.8955 57.1341 99.5412 57.2923 99.1717 57.2927ZM99.1717 54.4933C98.9328 54.4933 98.6992 54.5695 98.5006 54.7123C98.3019 54.8551 98.1471 55.0581 98.0557 55.2956C97.9642 55.5331 97.9403 55.7945 97.9869 56.0466C98.0335 56.2987 98.1486 56.5303 98.3175 56.7121C98.4865 56.8938 98.7017 57.0176 98.936 57.0678C99.1704 57.1179 99.4132 57.0922 99.634 56.9938C99.8547 56.8954 100.043 56.7288 100.176 56.5151C100.309 56.3014 100.38 56.0501 100.38 55.793C100.379 55.4484 100.252 55.1181 100.025 54.8744C99.799 54.6307 99.492 54.4937 99.1717 54.4933Z" fill="#535461"/>
<path d="M93.6156 59.8965L93.4842 60.0378L95.575 62.2874L95.7064 62.146L93.6156 59.8965Z" fill="#535461"/>
<path d="M95.6227 59.8948L93.4858 62.0946L93.6143 62.2391L95.7512 60.0393L95.6227 59.8948Z" fill="#535461"/>
<path d="M19.752 23.1012C14.6785 24.6062 9.12277 25.7391 7.13206 23.9815C8.22199 22.0292 8.85064 20.1049 8.90396 18.2156C8.91598 17.3512 9.24139 16.526 9.81079 15.916C10.1878 15.5241 10.6428 15.2299 11.1413 15.0556C11.6397 14.8813 12.1686 14.8316 12.6876 14.9102L14.0043 15.109C14.0487 15.1157 14.0928 15.1232 14.1366 15.1317C14.7686 15.2606 15.3472 15.5991 15.7913 16.0998C16.2353 16.6006 16.5225 17.2384 16.6125 17.9236C16.8899 19.9723 17.8227 21.7459 19.752 23.1012Z" fill="#2F2E41"/>
<path d="M24.6461 42.5373L26.6185 42.9749C26.7691 43.0083 26.911 43.0774 27.0337 43.1772C27.1564 43.2769 27.257 43.4049 27.3281 43.5516C27.3991 43.6984 27.4389 43.8604 27.4445 44.0258C27.4502 44.1912 27.4215 44.3558 27.3606 44.5078C27.3018 44.6547 27.2142 44.7862 27.104 44.8935C26.9937 45.0007 26.8633 45.0812 26.7215 45.1294C26.5798 45.1776 26.4301 45.1924 26.2826 45.1729C26.135 45.1533 25.9931 45.0998 25.8665 45.016L22.8495 43.0194L17.7248 30.0575L20.3791 29.2314L24.6461 42.5373Z" fill="#A0616A"/>
<path d="M10.5954 59.5459L9.10195 60.0132L7.97149 57.5012L9.12105 56.8567L10.5954 59.5459Z" fill="#A0616A"/>
<path d="M9.83658 70.3086L8.00418 69.7866L8.29104 66.3994L9.86799 66.5039L9.83658 70.3086Z" fill="#A0616A"/>
<path d="M10.0277 57.1977L8.08691 58.5719L0.622565 49.4875C0.460656 49.2905 0.341094 49.0575 0.272386 48.8051C0.203679 48.5526 0.187515 48.287 0.225041 48.0271C0.262568 47.7672 0.352864 47.5194 0.489506 47.3014C0.626149 47.0833 0.80578 46.9003 1.01562 46.7654L10.3144 40.7871L11.7386 45.1891L6.89669 50.078L10.0277 57.1977Z" fill="#2F2E41"/>
<path d="M11.6621 61.9529C11.6572 61.9597 11.6523 61.9665 11.6474 61.9733C11.5234 62.7547 11.3056 63.4675 10.8191 63.9835C10.6748 64.3335 10.4158 64.6141 10.0915 64.7717C9.76725 64.9293 9.40037 64.9528 9.06096 64.8378C8.74087 64.7294 8.46574 64.5047 8.28263 64.2021C8.09951 63.8995 8.01979 63.5379 8.0571 63.179L8.41975 59.6913C9.28969 59.4761 9.95318 58.9438 10.289 57.9082L11.1345 58.5278C11.3847 58.7097 11.5978 58.9445 11.7608 59.218C11.9239 59.4915 12.0335 59.7978 12.0828 60.1183C12.1322 60.4388 12.1204 60.7668 12.048 61.0822C11.9757 61.3977 11.8444 61.6939 11.6621 61.9529Z" fill="#2F2E41"/>
<path d="M12.5821 22.3543C14.2319 22.3543 15.5692 20.9154 15.5692 19.1403C15.5692 17.3653 14.2319 15.9263 12.5821 15.9263C10.9324 15.9263 9.595 17.3653 9.595 19.1403C9.595 20.9154 10.9324 22.3543 12.5821 22.3543Z" fill="#A0616A"/>
<path d="M15.169 24.2782L10.4598 28.4745L10.093 26.7472L10.915 25.3991C11.1431 24.0764 10.9958 22.6179 10.6039 21.0707L13.6763 21.0738C13.8089 22.324 14.2613 23.4147 15.169 24.2782Z" fill="#A0616A"/>
<path d="M16.4948 35.2856L10.1374 37.3692L9.64277 34.9364C8.45137 33.2152 7.93346 31.6442 8.71291 30.3625L8.32067 28.4331C9.44586 27.4799 10.3307 26.5046 10.8165 25.4927L14.728 23.8483L17.6035 24.0386L18.4526 27.1002L16.4948 35.2856Z" fill="#FF6363"/>
<path d="M21.0113 29.5738C19.6561 29.5583 18.3299 29.9956 17.2154 30.8252L17.6035 24.0386C17.9974 24.0952 18.3709 24.2612 18.6871 24.5202C19.0033 24.7792 19.2514 25.1224 19.407 25.5159L21.0113 29.5738Z" fill="#6C63FF"/>
<path d="M10.0078 67.3146L7.98995 66.7802L8.28696 48.3325L10.9965 45.14L10.39 41.0926L9.99751 36.5585L16.6161 34.7927C18.8532 39.1632 20.2053 43.1369 18.2316 45.619L10.0078 67.3146Z" fill="#2F2E41"/>
<path d="M9.54432 73.5432C9.53527 73.547 9.52621 73.5508 9.51714 73.5545C8.93122 74.2866 8.28746 74.8834 7.47807 75.0933C7.12305 75.3612 6.68875 75.479 6.2581 75.4243C5.82746 75.3696 5.43064 75.1461 5.14342 74.7965C4.87254 74.4668 4.71653 74.0462 4.70207 73.6064C4.68761 73.1666 4.81561 72.7352 5.06415 72.3857L7.47996 68.9893C8.51396 69.3529 9.51762 69.2458 10.4732 68.3915L10.994 69.6102C11.149 69.9693 11.2344 70.3586 11.2449 70.7544C11.2554 71.1501 11.1909 71.5441 11.0552 71.9121C10.9196 72.2801 10.7156 72.6146 10.4559 72.895C10.1961 73.1755 9.88593 73.396 9.54432 73.5432Z" fill="#2F2E41"/>
<path d="M2.17315 44.7562L0.402031 46.3878C0.255057 46.5232 0.142229 46.6963 0.074008 46.8911C0.0057867 47.086 -0.0156208 47.2961 0.0117694 47.5022C0.0391597 47.7083 0.114462 47.9036 0.230695 48.0701C0.346928 48.2365 0.50033 48.3686 0.676682 48.4543C0.942163 48.5832 1.24324 48.5989 1.51905 48.4981C1.79485 48.3974 2.02482 48.1877 2.16245 47.9115L3.44322 45.3412L9.31679 33.8086L7.10773 33.3618L2.17315 44.7562Z" fill="#A0616A"/>
<path d="M9.6707 34.1326C8.52347 33.7599 7.44885 33.5405 6.61541 33.8301C6.79012 31.504 7.15019 29.4261 8.32067 28.4331L9.9846 28.6434L9.6707 34.1326Z" fill="#6C63FF"/>
<path d="M15.9168 18.3951L9.52789 17.9721L9.60651 16.5973C11.8367 14.9792 13.9664 15.1202 15.9954 17.0202L15.9168 18.3951Z" fill="#2F2E41"/>
</g>
<defs>
<clipPath id="clip0_75_503">
<rect width="125" height="92" fill="white"/>
</clipPath>
</defs>
</svg>
