<svg width="108" height="91" viewBox="0 0 108 91" fill="none" xmlns="http://www.w3.org/2000/svg">
<g clip-path="url(#clip0_75_578)">
<path d="M0 90.8037C0 90.8985 0.0782364 90.9747 0.175662 90.9747H107.824C107.922 90.9747 108 90.8985 108 90.8037C108 90.7088 107.922 90.6327 107.824 90.6327H0.175662C0.0782364 90.6327 0 90.7088 0 90.8037Z" fill="#3F3D56"/>
<path d="M65.4681 20.2103L66.0585 23.5152L59.7114 24.521L61.1874 19.923L65.4681 20.2103Z" fill="#A0616A"/>
<path d="M81.6567 22.3949C82.9354 22.9529 83.2416 24.9908 82.3405 26.9464C81.9914 27.7331 81.4538 28.4267 80.7727 28.9696L79.4842 32.318C78.6391 36.3096 76.7148 40.5121 74.0647 40.1863C70.3139 39.7252 69.1323 35.2874 69.1323 35.2874L74.1797 33.3653L76.4332 29.1364L77.2014 27.4109C77.1648 26.5551 77.3393 25.7032 77.7103 24.9265C78.6114 22.9699 80.378 21.8369 81.6567 22.3949Z" fill="#A0616A"/>
<path d="M38.6887 86.6197L35.1885 84.1014L35.2163 84.0472L54.7174 46.225L54.7541 46.2188L70.4569 43.6232L73.7276 50.7145L82.2806 62.4204C82.8697 63.2268 83.1776 64.1761 83.1712 65.1656L83.0329 86.0173L77.7271 86.1648L77.7199 86.0987L75.8691 69.24C75.7341 68.0112 75.0794 66.8745 74.0725 66.1215L63.6335 58.3142L38.6887 86.6197Z" fill="#2F2E41"/>
<path d="M35.7251 84.3669C35.7251 84.3669 33.9539 84.6543 33.3634 85.6601C32.773 86.6659 31.0017 88.8212 31.0017 88.8212C31.0017 88.8212 29.6732 91.2639 32.773 90.9765C35.8728 90.6891 37.0536 89.3959 37.0536 89.3959L38.3821 85.8038L35.7251 84.3669Z" fill="#2F2E41"/>
<path d="M80.4502 84.3669C80.4502 84.3669 82.2215 84.6543 82.8119 85.6601C83.4024 86.6659 85.1736 88.8212 85.1736 88.8212C85.1736 88.8212 86.5021 91.2639 83.4024 90.9765C80.3026 90.6891 79.1217 89.3959 79.1217 89.3959L77.7933 85.8038L80.4502 84.3669Z" fill="#2F2E41"/>
<path d="M56.7592 24.3773L67.2393 22.3657L73.1436 24.2336L71.52 45.6431L54.7665 46.2896L56.7592 24.3773Z" fill="#FFD363"/>
<path d="M72.0923 23.754L74.3754 27.1108L74.9051 35.3864L68.125 35.8874L68.3077 25.1661L72.0923 23.754Z" fill="#FFD363"/>
<path d="M78.3666 31.8085L75.6231 30.7474L72.1351 37.0363L75.3208 38.5826L78.3666 31.8085Z" fill="#A0616A"/>
<path d="M80.2788 26.4564C80.0883 26.4564 79.8973 26.425 79.7149 26.3616C79.2756 26.2086 78.9188 25.8814 78.7362 25.4635L76.6554 20.7047C75.8715 18.912 74.9712 17.1455 73.9793 15.4543L73.5447 14.7133C73.2457 14.2657 66.165 3.65807 65.8283 2.82962C65.5743 2.20491 66.3331 0.923934 66.3655 0.869631L66.3743 0.857845C66.3912 0.839604 68.0897 -0.961965 70.1337 0.711071C72.1407 2.35351 75.5186 13.2386 75.6613 13.7012L75.7527 13.9253C76.5859 15.9742 77.6393 17.947 78.8839 19.7884L81.681 23.9264C81.941 24.3113 82.0222 24.7879 81.9034 25.2338C81.7846 25.6796 81.4761 26.0576 81.0568 26.271C80.8151 26.3941 80.5474 26.4564 80.2788 26.4564Z" fill="#3F3D56"/>
<path d="M61.616 27.9698L64.9114 28.1499L71.2429 21.6479L73.7169 18.7851C73.9336 17.9548 74.3513 17.1872 74.9352 16.5463C76.3741 14.9229 78.4001 14.3296 79.461 15.2207C80.522 16.1117 80.2161 18.1496 78.7775 19.7722C78.2116 20.4286 77.4925 20.9435 76.6803 21.2738L76.0702 22.057L69.0825 31.6178C67.8218 33.3428 65.5924 34.1234 63.4917 33.5754L59.2149 32.4596L61.616 27.9698Z" fill="#A0616A"/>
<path d="M59.7666 34.3768L54.6814 31.1971C53.0652 30.1865 52.4442 28.2069 53.2045 26.49C53.6664 25.4472 54.573 24.6656 55.6923 24.3457C56.8101 24.0255 58.0083 24.2055 58.9761 24.8398L63.9695 28.1114L59.7666 34.3768Z" fill="#FFE663"/>
<path d="M62.2237 21.4251C65.1014 21.4251 67.4343 19.1542 67.4343 16.3529C67.4343 13.5516 65.1014 11.2807 62.2237 11.2807C59.346 11.2807 57.0132 13.5516 57.0132 16.3529C57.0132 19.1542 59.346 21.4251 62.2237 21.4251Z" fill="#A0616A"/>
<path d="M65.6514 20.7311L65.2015 20.0014C65.2015 20.0014 67.1719 18.7084 65.5439 17.958C63.916 17.2076 63.6587 15.3728 63.6587 15.3728C63.6587 15.3728 58.9034 14.0389 59.1603 13.038C59.4172 12.0372 58.6889 11.3284 59.8883 10.9112C61.0877 10.494 66.4426 10.9104 67.0425 12.1196C67.6424 13.3289 68.2426 16.6649 67.9428 17.1237C67.643 17.5824 65.6514 20.7311 65.6514 20.7311Z" fill="#2F2E41"/>
<path d="M64.3012 14.9973L59.46 11.8704C59.46 11.8704 53.2053 9.99457 55.5619 13.5806L57.554 13.9765C57.554 13.9765 62.9732 15.206 64.3012 14.9973Z" fill="#FFD363"/>
<path d="M62.8446 14.2886L67.9001 17.9994C67.9001 17.9994 70.8553 12.8698 66.2283 10.3266C61.6014 7.78337 58.6675 11.7662 58.6675 11.7662L59.8886 13.0379L62.8446 14.2886Z" fill="#FFCA63"/>
<path d="M26.5188 5.91344C26.5188 7.46236 27.809 8.71962 29.4017 8.71962C30.1811 8.71962 30.8881 8.41794 31.4062 7.92794C31.9479 7.41781 32.2829 6.70372 32.2829 5.91344C32.2829 4.36444 30.9929 3.10718 29.4017 3.10718C28.9028 3.10718 28.4349 3.2308 28.0259 3.44633C27.9566 3.48366 27.8887 3.52393 27.8222 3.56701C27.1994 3.96362 26.7462 4.5886 26.5853 5.32002C26.5647 5.40337 26.5498 5.48813 26.541 5.57435C26.5262 5.685 26.5188 5.79851 26.5188 5.91344Z" fill="#FFB763"/>
<path d="M26.541 5.57434C26.5867 5.62317 26.634 5.67635 26.6856 5.73669C26.8599 5.94072 26.9292 6.05136 27.0267 6.20508C27.1107 6.33873 27.2171 6.50543 27.4251 6.78706C27.8547 7.36756 28.0702 7.65921 28.4053 7.92365C28.736 8.18366 29.1478 8.50843 29.7662 8.55011C29.809 8.55298 29.8518 8.55298 29.8932 8.55298C30.6415 8.55298 31.1877 8.11469 31.3958 7.91789C31.9405 7.4006 32.0541 6.77267 32.0778 6.52697C32.0969 6.3287 32.1235 5.6332 31.6556 5.00822C31.2423 4.45641 30.671 4.25961 30.1175 4.06702C29.7558 3.942 29.4814 3.89745 29.2378 3.85725C28.9042 3.80266 28.6178 3.75523 28.1794 3.53107C28.1189 3.4995 28.0687 3.47214 28.0259 3.44632C27.9566 3.48365 27.8887 3.52392 27.8222 3.56699C27.8326 3.57275 27.8444 3.5799 27.8563 3.58713C27.9138 3.62018 27.9845 3.66038 28.082 3.71068C28.5499 3.95063 28.8673 4.00381 29.2023 4.05839C29.4489 4.09867 29.7042 4.14034 30.0482 4.25961C30.5943 4.44925 31.111 4.62739 31.4859 5.12889C31.911 5.69649 31.8859 6.32723 31.8696 6.50684C31.8476 6.731 31.7442 7.30147 31.2496 7.77133C31.0504 7.95957 30.5102 8.39491 29.7811 8.34608C29.2275 8.30868 28.8451 8.00693 28.5366 7.76558C28.2237 7.5184 28.0141 7.2339 27.5964 6.66919C27.3912 6.39191 27.2879 6.22809 27.2053 6.09731C27.1078 5.94359 27.031 5.82144 26.8481 5.60738C26.7492 5.49099 26.662 5.39761 26.5853 5.32001C26.5647 5.40336 26.5498 5.48811 26.541 5.57434Z" fill="#E6E6E6"/>
</g>
<defs>
<clipPath id="clip0_75_578">
<rect width="108" height="91" fill="white"/>
</clipPath>
</defs>
</svg>
