<svg width="112" height="75" viewBox="0 0 112 75" fill="none" xmlns="http://www.w3.org/2000/svg">
<g clip-path="url(#clip0_75_822)">
<path d="M88.5056 74.8638C87.9488 74.8635 87.3946 74.7906 86.8585 74.6471L64.6014 68.9747L64.6667 68.7518L86.924 74.4241C87.4388 74.5619 87.9709 74.6319 88.5056 74.6322C91.1249 74.6322 93.4481 73.1871 94.155 70.7864L109.999 16.9892L110.033 16.8721C110.449 15.4466 110.255 13.9222 109.493 12.6328C108.731 11.3434 107.464 10.3941 105.968 9.99285L70.192 0.440851C68.6943 0.0428884 67.092 0.226739 65.7365 0.952082C64.3809 1.67743 63.3829 2.88504 62.9612 4.31008L61.7181 8.5317L61.4839 8.46918L62.727 4.24755C63.1661 2.76338 64.2056 1.50564 65.6173 0.750208C67.0291 -0.00522472 68.6979 -0.196666 70.2577 0.217874L106.034 9.76987C107.572 10.1825 108.88 11.1523 109.677 12.4716C110.474 13.7908 110.696 15.3547 110.297 16.8285L110.298 16.8287L110.266 16.9402L94.3892 70.8489C93.6529 73.3491 91.2335 74.8638 88.5056 74.8638Z" fill="#2F2E41"/>
<path d="M63.1091 9.73382L63.5165 9.84266L64.7703 10.1773L64.9016 9.73035L64.4322 9.6053L64.8445 8.20542L65.8356 7.38565L66.0994 10.0511L65.3698 9.8554L65.2385 10.3023L67.1112 10.8025L67.2426 10.3556L66.8449 10.2502L66.463 6.86692L68.4088 5.25631L68.9548 5.4022L69.0861 4.95526L67.2122 4.45505L67.0808 4.90199L67.6986 5.06641L65.2239 6.91786L65.9097 4.58937L66.3791 4.71442L66.5105 4.26748L64.6365 3.76727L64.5052 4.21421L65.2081 4.40179L63.7305 9.41772L63.0277 9.23015L63.0094 9.29036L62.934 9.54972L63.1091 9.73382Z" fill="#6C63FF"/>
<path d="M66.1238 13.9601C65.6558 14.1531 65.1992 14.3699 64.7557 14.6097C64.6742 14.6537 64.5928 14.6988 64.5125 14.744V13.3117C64.5131 12.7964 64.4365 12.2837 64.2851 11.7891C64.3556 11.7474 64.4274 11.7022 64.4979 11.6571C64.5624 11.6165 64.628 11.5749 64.6925 11.5332C65.0927 12.3811 65.5717 13.1933 66.1238 13.9601Z" fill="#6C63FF"/>
<path d="M88.4115 70.8439L87.8661 70.6982L87.7348 71.1441L89.6083 71.6443L89.7396 71.1984L89.1226 71.0337L91.5966 69.1815L90.9104 71.5111L90.4421 71.386L90.3108 71.8319L92.1843 72.3321L92.3156 71.8862L91.613 71.6986L93.0905 66.6817L93.7931 66.8692L93.9245 66.4233L92.051 65.9231L91.9197 66.369L92.388 66.4941L91.9756 67.8944L90.985 68.7142L90.7217 66.0492L91.4512 66.244L91.5826 65.7981L89.7092 65.2979L89.5779 65.7438L89.9759 65.8501L90.358 69.2331L88.4115 70.8439Z" fill="#6C63FF"/>
<path d="M90.6964 62.1399C91.5731 61.7818 92.4072 61.3355 93.1844 60.8086C93.6007 61.6489 94.0794 62.4598 94.6167 63.2353C93.7456 63.6043 92.9127 64.05 92.1287 64.5667C91.7279 63.7189 91.2485 62.9068 90.6964 62.1399Z" fill="#6C63FF"/>
<path d="M74.2893 38.0319C74.2893 38.0319 73.6742 41.8361 73.4914 42.0278C73.3087 42.2195 74.7683 46.6978 74.7683 46.6978L79.4488 44.0994C79.4488 44.0994 80.3595 39.2919 80.6593 39.1314C80.9592 38.971 74.2893 38.0319 74.2893 38.0319Z" fill="#FFB8B8"/>
<path opacity="0.1" d="M74.2893 38.0319C74.2893 38.0319 73.6742 41.8361 73.4914 42.0278C73.3087 42.2195 74.7683 46.6978 74.7683 46.6978L79.4488 44.0994C79.4488 44.0994 80.3595 39.2919 80.6593 39.1314C80.9592 38.971 74.2893 38.0319 74.2893 38.0319Z" fill="black"/>
<path d="M77.9104 41.7151C80.4626 41.7151 82.5315 39.7452 82.5315 37.3152C82.5315 34.8852 80.4626 32.9153 77.9104 32.9153C75.3583 32.9153 73.2894 34.8852 73.2894 37.3152C73.2894 39.7452 75.3583 41.7151 77.9104 41.7151Z" fill="#FFB8B8"/>
<path d="M75.9076 44.1159L75.5049 43.7679L73.6948 41.315C73.6948 41.315 73.4871 41.1848 73.2901 41.8538L73.0931 42.5227L71.3925 43.1509L67.6296 58.5008L77.6994 61.1894L81.8464 45.8218L79.8986 43.8587L79.6829 42.9116L76.6758 44.0805L75.9076 44.1159Z" fill="white"/>
<path d="M64.5125 60.0738L64.7557 60.1386L80.4381 64.3255L85.6818 47.8084C85.6818 47.8084 84.4414 46.8751 83.471 46.7362C83.471 46.7362 81.8415 44.9785 81.1398 44.7909C80.4369 44.6034 79.6598 42.9534 79.6598 42.9534C79.6598 42.9534 78.839 45.7404 77.4284 47.5282C76.0177 49.3159 73.5613 55.5152 73.5613 55.5152L72.8681 44.146L73.6464 41.2872C73.1939 41.5424 72.7819 41.8579 72.423 42.2239C71.8746 42.7982 70.4749 43.266 70.4749 43.266C70.4749 43.266 66.7877 44.2062 66.1359 44.2734C65.4853 44.3394 65.185 44.5003 65.185 44.5003L64.7557 47.3128L64.5125 48.906V60.0738Z" fill="#2F2E41"/>
<path d="M66.6528 53.6707C66.5068 54.5935 65.0062 58.4018 65.0062 58.4018L64.7557 58.6415L64.5125 58.8742V44.7701C64.5802 44.7002 64.6632 44.6452 64.7557 44.6091C64.8931 44.5548 65.0374 44.5182 65.185 44.5003L65.6544 44.6254C65.6544 44.6254 66.7987 52.7467 66.6528 53.6707Z" fill="#2F2E41"/>
<path d="M77.3351 58.5668C77.3351 58.5668 79.6366 54.6117 81.3787 55.5578C83.1208 56.504 80.328 59.1254 80.328 59.1254L77.3351 58.5668Z" fill="#FFB8B8"/>
<path d="M70.2112 57.0255C70.2112 57.0255 65.7945 55.726 65.696 56.0605C65.5975 56.395 64.3882 58.3569 64.7395 58.4507C65.0908 58.5445 67.8167 59.152 67.7839 59.2635C67.751 59.375 69.0905 59.9731 69.0905 59.9731L70.2112 57.0255Z" fill="#FFB8B8"/>
<path d="M78.8214 44.5192L76.0104 44.6244L75.425 44.4681L73.0813 42.9866L72.3051 45.1984L75.2608 45.0255L75.8462 45.1818L78.2767 46.7928L78.8214 44.5192Z" fill="#6C63FF"/>
<path d="M71.2677 61.1564L70.836 62.0318L64.6341 60.4107L64.5125 60.0738V58.2177L64.7557 58.308L65.0062 58.4018L71.2677 61.1564Z" fill="#2F2E41"/>
<path d="M71.4991 57.3694C71.4991 57.3694 70.0426 56.74 70.0098 56.8515C69.977 56.963 68.0224 60.169 68.4908 60.294C68.9591 60.4191 70.617 61.2225 70.617 61.2225L71.4991 57.3694Z" fill="white"/>
<path d="M84.8622 47.5891L85.6819 47.8079C85.6819 47.8079 86.1502 47.933 86.1874 48.6644C86.2246 49.3959 86.8602 52.8124 86.5604 52.9729C86.2605 53.1333 86.1763 52.9906 86.3448 53.2761C86.5133 53.5616 86.6632 53.4814 86.4805 53.6731C86.2977 53.8648 85.8783 60.006 84.5191 62.0482C83.1599 64.0904 82.7473 65.0625 82.279 64.9375L70.1389 61.6961C70.1389 61.6961 70.6795 57.1506 71.1807 57.1641C71.6819 57.1777 79.8925 58.8889 79.8925 58.8889C79.8925 58.8889 83.073 47.2316 84.8622 47.5891Z" fill="#2F2E41"/>
<path d="M75.1877 32.4927L74.4296 31.975C74.4296 31.975 76.6898 30.7655 79.1028 31.5674L78.6057 30.7253C78.6057 30.7253 80.4664 30.5915 81.5494 32.5359C82.1187 33.5581 82.7731 34.7556 83.0405 35.9792L83.9446 36.2206L83.3556 36.8384L84.4647 37.9096L83.1471 37.4186C83.0929 38.0733 82.8597 38.7031 82.4708 39.2454L81.9271 39.9673C81.9271 39.9673 81.3878 37.301 81.4739 37.0087L81.2587 37.7394C81.2587 37.7394 80.6081 36.8563 80.7373 36.4179L80.1261 36.8065L80.1326 35.9411L77.0561 35.9868L77.7103 35.4521L75.8805 35.2L76.808 34.5806C76.808 34.5806 74.5328 34.9978 74.2193 35.7811C73.9058 36.5645 72.6068 37.3212 72.6068 37.3212L72.3615 36.4674C72.3615 36.4674 72.6392 32.9946 75.1877 32.4927Z" fill="#2F2E41"/>
<path d="M73.5991 34.0756L73.6352 33.9256C73.9866 32.469 71.2835 29.7601 71.2562 29.7329L71.2082 29.6852L71.227 29.6216C71.2804 29.44 71.4949 29.2787 73.3744 29.6666C74.1062 29.8177 74.836 30.0018 75.1415 30.0807C75.1074 29.249 74.0246 28.1471 74.0131 28.1354L73.8768 27.998L74.0673 27.9448C75.3156 27.5964 76.7767 28.7519 77.2437 29.1611L78.0242 26.5108L79.5688 28.683C80.517 27.3315 81.8885 27.3862 81.9485 27.3894L82.141 27.3994L82.0485 27.5605C81.3988 28.6924 81.2817 29.4359 81.2749 29.8024C83.0037 27.8469 84.5616 28.0172 84.6294 28.0257L84.8655 28.0554L84.7018 28.2201C82.4386 30.497 82.1721 33.5007 82.1697 33.5308L82.1615 33.632L73.5991 34.0756ZM71.5256 29.668C72.0035 30.1612 74.0701 32.3868 73.8989 33.8281L81.9383 33.4117C82.0046 32.8759 82.4123 30.3262 84.3346 28.2591C83.8107 28.3037 82.5749 28.588 81.2731 30.1721L81.1239 30.3536L81.06 30.1313C81.05 30.0962 80.8324 29.2819 81.7353 27.6276C81.3213 27.6649 80.3576 27.8712 79.6765 28.9539L79.5785 29.1097L78.1168 27.0541L77.3666 29.6014L77.2195 29.4594C77.203 29.4436 75.6348 27.9485 74.3308 28.1268C74.6656 28.4979 75.4664 29.4753 75.3787 30.2437L75.3632 30.3796L75.225 30.3427C73.6893 29.9327 71.9353 29.5828 71.5256 29.668Z" fill="#6C63FF"/>
<path d="M85.2353 27.4157C85.1523 27.3936 85.078 27.3484 85.0219 27.286C84.9657 27.2237 84.9303 27.1468 84.92 27.0653C84.9098 26.9837 84.9251 26.9011 84.9642 26.8278C85.0032 26.7546 85.0642 26.694 85.1394 26.6538C85.2146 26.6135 85.3007 26.5954 85.3867 26.6018C85.4727 26.6081 85.5548 26.6385 85.6226 26.6893C85.6905 26.7401 85.741 26.8088 85.7678 26.8869C85.7945 26.965 85.7964 27.0489 85.7731 27.128C85.7418 27.234 85.6675 27.3238 85.5667 27.3777C85.4659 27.4317 85.3467 27.4454 85.2353 27.4157ZM85.4052 26.8389C85.3685 26.8291 85.3295 26.8299 85.2932 26.8412C85.2569 26.8525 85.225 26.8737 85.2014 26.9023C85.1778 26.9309 85.1637 26.9655 85.1607 27.0017C85.1578 27.0379 85.1662 27.0742 85.1849 27.1059C85.2036 27.1375 85.2317 27.1632 85.2658 27.1797C85.2998 27.1961 85.3382 27.2026 85.3761 27.1983C85.414 27.194 85.4497 27.179 85.4787 27.1554C85.5077 27.1317 85.5286 27.1004 85.5389 27.0655C85.5527 27.0185 85.5463 26.9683 85.5213 26.9259C85.4962 26.8834 85.4545 26.8521 85.4052 26.8389Z" fill="#6C63FF"/>
<path d="M82.2062 26.607C82.1232 26.5848 82.0489 26.5397 81.9928 26.4773C81.9366 26.4149 81.9012 26.3381 81.8909 26.2565C81.8807 26.1749 81.896 26.0923 81.9351 26.0191C81.9741 25.9458 82.0351 25.8853 82.1103 25.845C82.1855 25.8048 82.2716 25.7867 82.3576 25.793C82.4436 25.7993 82.5257 25.8298 82.5935 25.8805C82.6614 25.9313 82.7119 26.0001 82.7387 26.0781C82.7654 26.1562 82.7673 26.2401 82.744 26.3192C82.7127 26.4252 82.6384 26.515 82.5376 26.569C82.4368 26.6229 82.3176 26.6366 82.2062 26.607ZM82.3761 26.0301C82.3394 26.0203 82.3004 26.0211 82.2641 26.0324C82.2278 26.0437 82.1959 26.065 82.1723 26.0935C82.1487 26.1221 82.1345 26.1567 82.1316 26.1929C82.1287 26.2292 82.1371 26.2654 82.1558 26.2971C82.1745 26.3288 82.2026 26.3545 82.2367 26.3709C82.2707 26.3874 82.3091 26.3938 82.347 26.3895C82.3849 26.3852 82.4206 26.3703 82.4496 26.3466C82.4785 26.323 82.4995 26.2917 82.5098 26.2567C82.5236 26.2098 82.5172 26.1596 82.4922 26.1171C82.4671 26.0746 82.4254 26.0434 82.3761 26.0301Z" fill="#6C63FF"/>
<path d="M77.6017 26.1554C77.5187 26.1332 77.4444 26.0881 77.3883 26.0257C77.3321 25.9633 77.2967 25.8865 77.2864 25.8049C77.2762 25.7233 77.2915 25.6407 77.3306 25.5675C77.3696 25.4942 77.4306 25.4337 77.5058 25.3934C77.581 25.3532 77.6671 25.3351 77.7531 25.3414C77.8391 25.3477 77.9212 25.3782 77.9891 25.4289C78.0569 25.4797 78.1074 25.5485 78.1342 25.6265C78.1609 25.7046 78.1628 25.7885 78.1395 25.8676C78.1082 25.9736 78.0339 26.0634 77.9331 26.1174C77.8323 26.1713 77.7131 26.185 77.6017 26.1554ZM77.7716 25.5786C77.7349 25.5687 77.6959 25.5695 77.6596 25.5808C77.6233 25.5921 77.5914 25.6134 77.5678 25.6419C77.5442 25.6705 77.53 25.7051 77.5271 25.7413C77.5242 25.7776 77.5326 25.8138 77.5513 25.8455C77.57 25.8772 77.5981 25.9029 77.6322 25.9193C77.6662 25.9358 77.7046 25.9422 77.7425 25.9379C77.7804 25.9336 77.8161 25.9187 77.8451 25.895C77.8741 25.8714 77.895 25.8401 77.9053 25.8051C77.9191 25.7582 77.9127 25.708 77.8877 25.6655C77.8626 25.623 77.8209 25.5918 77.7716 25.5786Z" fill="#6C63FF"/>
<path d="M70.251 29.4813C70.168 29.4591 70.0937 29.414 70.0376 29.3516C69.9814 29.2892 69.946 29.2124 69.9357 29.1308C69.9254 29.0493 69.9408 28.9666 69.9799 28.8934C70.0189 28.8202 70.0799 28.7596 70.1551 28.7193C70.2303 28.6791 70.3164 28.661 70.4024 28.6673C70.4884 28.6736 70.5705 28.7041 70.6383 28.7549C70.7062 28.8056 70.7567 28.8744 70.7835 28.9525C70.8102 29.0306 70.8121 29.1144 70.7888 29.1935C70.7575 29.2995 70.6832 29.3894 70.5824 29.4433C70.4816 29.4972 70.3624 29.5109 70.251 29.4813ZM70.4209 28.9045C70.3842 28.8947 70.3452 28.8955 70.3089 28.9067C70.2726 28.918 70.2407 28.9393 70.2171 28.9679C70.1935 28.9964 70.1793 29.031 70.1764 29.0673C70.1735 29.1035 70.1819 29.1397 70.2006 29.1714C70.2193 29.2031 70.2474 29.2288 70.2815 29.2452C70.3155 29.2617 70.3539 29.2682 70.3918 29.2638C70.4297 29.2595 70.4654 29.2446 70.4944 29.2209C70.5234 29.1973 70.5443 29.166 70.5546 29.131C70.5684 29.0841 70.562 29.0339 70.537 28.9914C70.5119 28.949 70.4702 28.9177 70.4209 28.9045Z" fill="#6C63FF"/>
<path d="M73.0934 27.5959C73.0103 27.5737 72.9361 27.5286 72.8799 27.4662C72.8238 27.4038 72.7884 27.327 72.7781 27.2454C72.7678 27.1639 72.7832 27.0812 72.8222 27.008C72.8613 26.9347 72.9223 26.8742 72.9975 26.8339C73.0727 26.7937 73.1587 26.7756 73.2448 26.7819C73.3308 26.7882 73.4129 26.8187 73.4807 26.8694C73.5486 26.9202 73.5991 26.989 73.6258 27.0671C73.6526 27.1451 73.6545 27.229 73.6312 27.3081C73.5998 27.4141 73.5256 27.5039 73.4248 27.5579C73.324 27.6118 73.2048 27.6255 73.0934 27.5959ZM73.2633 27.0191C73.2265 27.0093 73.1876 27.01 73.1513 27.0213C73.115 27.0326 73.083 27.0539 73.0595 27.0825C73.0359 27.111 73.0217 27.1456 73.0188 27.1818C73.0158 27.2181 73.0243 27.2543 73.043 27.286C73.0617 27.3177 73.0898 27.3434 73.1238 27.3598C73.1579 27.3763 73.1963 27.3828 73.2342 27.3784C73.2721 27.3741 73.3078 27.3592 73.3367 27.3355C73.3657 27.3119 73.3867 27.2806 73.397 27.2456C73.4108 27.1987 73.4044 27.1485 73.3793 27.106C73.3543 27.0635 73.3125 27.0323 73.2633 27.0191Z" fill="#6C63FF"/>
<path d="M87.5901 66.596L87.4731 66.5647L64.55 60.4444L64.6156 60.2214L87.4216 66.3106L101.836 17.3675L69.6944 8.78599L64.792 25.4322L64.5578 25.3697L69.5261 8.50046L69.6429 8.53172L102.136 17.2071L102.103 17.3185L87.5901 66.596Z" fill="#2F2E41"/>
<path d="M5.06299 71.0767C6.57437 73.7455 9.78206 74.8912 9.78206 74.8912C9.78206 74.8912 10.5393 71.7099 9.02794 69.0411C7.51656 66.3723 4.30886 65.2266 4.30886 65.2266C4.30886 65.2266 3.5516 68.4079 5.06299 71.0767Z" fill="#2F2E41"/>
<path d="M6.10181 70.1987C8.83048 71.7618 9.88138 74.8665 9.88138 74.8665C9.88138 74.8665 6.50823 75.437 3.77956 73.8739C1.0509 72.3108 0 69.2061 0 69.2061C0 69.2061 3.37315 68.6356 6.10181 70.1987Z" fill="#6C63FF"/>
<path d="M64.4979 11.6571C64.2886 11.0007 63.9561 10.386 63.5165 9.84265C63.36 9.64849 63.1906 9.46401 63.0094 9.29035C62.454 8.75789 61.7933 8.3354 61.0655 8.04724C60.3377 7.75909 59.5572 7.61097 58.769 7.61142H21.6132C20.0259 7.61295 18.5041 8.214 17.3817 9.28267C16.2594 10.3513 15.6281 11.8003 15.6265 13.3117V69.2997C15.6281 70.8111 16.2594 72.2601 17.3817 73.3287C18.5041 74.3974 20.0259 74.9984 21.6132 75H58.769C60.3563 74.9984 61.8781 74.3974 63.0005 73.3287C64.1228 72.2601 64.7541 70.8111 64.7557 69.2997V13.3117C64.7563 12.751 64.6694 12.1934 64.4979 11.6571ZM64.5125 69.2997C64.5107 70.7496 63.9049 72.1395 62.8282 73.1647C61.7515 74.1899 60.2917 74.7667 58.769 74.7684H21.6132C20.0905 74.7667 18.6307 74.1899 17.554 73.1647C16.4772 72.1395 15.8715 70.7496 15.8697 69.2997V13.3117C15.8715 11.8618 16.4772 10.4719 17.554 9.44666C18.6307 8.42146 20.0905 7.84474 21.6132 7.843H58.769C59.5487 7.84266 60.3202 7.99386 61.0364 8.28733C61.7526 8.58079 62.3983 9.01036 62.934 9.54971C62.9936 9.60992 63.052 9.67129 63.1091 9.73381C64.0144 10.7265 64.5127 11.997 64.5125 13.3117V69.2997Z" fill="#2F2E41"/>
<path d="M21.5539 16.6092C21.5471 16.5942 21.5388 16.5804 21.5313 16.5659C21.8056 16.0549 21.944 15.4876 21.9344 14.9138C21.9344 13.119 20.7564 11.8654 19.0698 11.8654C17.3831 11.8654 16.2051 13.119 16.2051 14.9138C16.2051 16.7087 17.3831 17.9623 19.0698 17.9623C19.4679 17.97 19.8629 17.8938 20.2264 17.7392C20.59 17.5846 20.9133 17.3554 21.173 17.0681C21.7131 17.9001 22.7571 18.0099 22.8052 18.0145L22.8621 17.4824C22.8228 17.4784 21.896 17.3751 21.5539 16.6092ZM19.0698 17.4275C17.7138 17.4275 16.7668 16.3939 16.7668 14.9138C16.7668 13.4338 17.7138 12.4002 19.0698 12.4002C20.4257 12.4002 21.3727 13.4338 21.3727 14.9138C21.3782 15.3358 21.2908 15.7542 21.1161 16.142C20.2777 15.657 18.718 15.9468 18.5064 15.9892L18.6219 16.5126C19.1949 16.3984 20.3347 16.3068 20.8309 16.6032C20.6272 16.8639 20.3612 17.0746 20.0549 17.218C19.7487 17.3613 19.411 17.4331 19.0698 17.4275Z" fill="#6C63FF"/>
<path d="M19.2747 19.2345C19.0919 19.0606 18.8441 18.963 18.5857 18.9631C18.3274 18.9632 18.0797 19.061 17.897 19.2349C17.7143 19.4089 17.6116 19.6447 17.6115 19.8907C17.6115 20.1367 17.7139 20.3727 17.8965 20.5467L19.2747 21.859L20.6529 20.5467C20.8351 20.3726 20.9372 20.1367 20.937 19.891C20.9367 19.6452 20.8341 19.4096 20.6515 19.2358C20.469 19.062 20.2215 18.9642 19.9634 18.964C19.7053 18.9637 19.4576 19.061 19.2747 19.2345Z" fill="#6C63FF"/>
<path d="M58.8283 66.3608C58.8351 66.3759 58.8434 66.3896 58.8508 66.4041C58.5766 66.9151 58.4382 67.4824 58.4478 68.0562C58.4478 69.8511 59.6258 71.1047 61.3124 71.1047C62.9991 71.1047 64.1771 69.8511 64.1771 68.0562C64.1771 66.2613 62.9991 65.0077 61.3124 65.0077C60.9143 65 60.5193 65.0762 60.1557 65.2308C59.7922 65.3854 59.4689 65.6146 59.2092 65.902C58.6691 65.0699 57.6251 64.9601 57.577 64.9555L57.5201 65.4876C57.5594 65.4917 58.4862 65.5949 58.8283 66.3608ZM61.3124 65.5425C62.6684 65.5425 63.6154 66.5762 63.6154 68.0562C63.6154 69.5362 62.6684 70.5699 61.3124 70.5699C59.9565 70.5699 59.0095 69.5362 59.0095 68.0562C59.004 67.6343 59.0914 67.2159 59.2661 66.8281C60.1044 67.3131 61.6642 67.0233 61.8758 66.9808L61.7603 66.4574C61.1873 66.5716 60.0475 66.6633 59.5513 66.3669C59.755 66.1062 60.021 65.8954 60.3273 65.7521C60.6335 65.6087 60.9712 65.5369 61.3124 65.5425Z" fill="#6C63FF"/>
<path d="M61.1075 63.7356C61.2904 63.9092 61.5381 64.0066 61.7963 64.0064C62.0545 64.0062 62.3021 63.9084 62.4846 63.7346C62.6672 63.5608 62.7699 63.325 62.7701 63.0792C62.7703 62.8333 62.668 62.5975 62.4857 62.4234L61.1075 61.1111L59.7293 62.4234C59.547 62.5975 59.4447 62.8333 59.4449 63.0792C59.4451 63.325 59.5478 63.5608 59.7304 63.7346C59.9129 63.9084 60.1605 64.0062 60.4187 64.0064C60.6769 64.0066 60.9246 63.9092 61.1075 63.7356Z" fill="#6C63FF"/>
<path d="M43.1882 39.4197C41.5326 36.7561 38.2572 36.632 38.2572 36.632C38.2572 36.632 35.0655 36.2434 33.018 40.3C31.1096 44.0811 28.4758 47.7318 32.594 48.6169L33.3379 46.4125L33.7986 48.7811C34.3849 48.8212 34.9731 48.8308 35.5606 48.8097C39.9708 48.6742 44.171 48.8494 44.0357 47.3425C43.8559 45.3394 44.7812 41.9825 43.1882 39.4197Z" fill="#2F2E41"/>
<path d="M37.0807 48.4946C37.0887 48.7945 37.0863 49.1106 36.9298 49.3709C36.6196 49.8869 35.8624 49.9641 35.4069 50.3708C34.9279 50.7985 34.8737 51.4926 34.8509 52.1175C34.827 52.7707 34.8068 53.4454 35.0572 54.0541C35.2105 54.3893 35.4044 54.7065 35.6349 54.999C35.9129 55.3807 36.1936 55.7607 36.4768 56.1389C36.6281 56.3519 36.7966 56.5533 36.981 56.7413C37.4882 57.2333 38.184 57.5056 38.8786 57.6999C39.3275 57.8254 39.8121 57.9232 40.2575 57.7868C40.5521 57.6773 40.8237 57.5183 41.0593 57.3174C41.3905 57.0669 41.7268 56.8114 41.9668 56.4798C42.3408 55.9633 42.4443 55.3167 42.5218 54.6937C42.751 52.8515 42.8402 50.996 42.7886 49.1415C42.798 48.9394 42.76 48.7379 42.6773 48.5516C42.4467 48.1228 41.8289 48.0313 41.5035 47.6624C41.2252 47.3471 41.2138 46.897 41.2162 46.4851L41.2222 45.4365C41.2319 45.3482 41.2133 45.2591 41.1687 45.1811C41.1284 45.139 41.0797 45.105 41.0255 45.0809C40.9713 45.0568 40.9126 45.0432 40.8528 45.0407C40.1684 44.9326 39.4744 44.8884 38.781 44.9088C38.2187 44.9251 37.1399 44.8803 36.6538 45.1785C36.2125 45.4491 36.765 46.1966 36.8672 46.6165C37.0047 47.2341 37.0762 47.8633 37.0807 48.4946Z" fill="#A0616A"/>
<path d="M38.3712 46.694C40.8295 46.694 42.8224 44.7965 42.8224 42.4558C42.8224 40.115 40.8295 38.2175 38.3712 38.2175C35.9128 38.2175 33.9199 40.115 33.9199 42.4558C33.9199 44.7965 35.9128 46.694 38.3712 46.694Z" fill="#A0616A"/>
<path d="M36.5382 52.9536C36.2551 52.5529 36.0222 52.122 35.8441 51.6698C35.6849 51.2118 35.6431 50.6999 35.832 50.2522C35.351 49.9864 34.6979 50.2016 34.3476 50.6129C33.9973 51.0241 33.8901 51.5754 33.8592 52.1041C33.8284 52.6328 33.8611 53.1692 33.7403 53.6861C33.4729 54.8296 32.4809 55.7697 32.4071 56.9391C32.3345 58.0895 33.1631 59.0917 33.5707 60.1768C33.8177 60.8532 33.921 61.5696 33.8745 62.2843C33.8612 62.5151 33.846 62.778 34.017 62.942C34.106 63.016 34.2113 63.0701 34.3251 63.1001C36.2919 63.7589 38.4164 63.8159 40.5008 63.8662L43.9434 63.9492C44.1516 63.9729 44.3626 63.9393 44.5513 63.8523C44.8602 63.672 44.9015 63.2678 44.9068 62.9229C44.952 59.9522 44.8193 56.9819 44.6866 54.0136C44.6385 52.9377 44.5896 51.8556 44.35 50.8032C44.289 50.5352 44.1889 50.2372 43.9291 50.1189C43.7092 50.0188 43.4483 50.0836 43.2196 50.164C42.1526 50.5419 41.2303 51.2178 40.5737 52.1033C39.8673 53.0606 39.5198 54.2089 38.8285 55.1734C38.3268 55.8733 38.0367 55.2633 37.7024 54.7479C37.3145 54.1497 36.9264 53.5516 36.5382 52.9536Z" fill="white"/>
<path d="M36.0054 50.3254C35.9178 50.3845 35.8315 50.447 35.7488 50.513C35.439 50.7565 35.1613 51.0349 34.9219 51.3421C34.5256 51.8566 34.2101 52.4233 33.9855 53.0245C33.5818 54.0781 33.4066 55.1966 33.2388 56.3059C33.1656 56.7145 33.1261 57.128 33.1209 57.5425C33.1464 59.0663 34.0925 60.4777 34.0937 62.0027C34.0937 62.0605 34.0925 62.1173 34.0889 62.1752C34.0776 62.4248 34.0467 62.6733 33.9964 62.9185C33.9271 63.2763 33.8274 63.6295 33.7289 63.9815C33.4808 64.8638 33.2133 65.7785 32.7293 66.5531C32.6807 66.6319 32.6284 66.7094 32.5749 66.7847H29.1699C29.1966 66.7071 29.2246 66.6307 29.2513 66.5531C29.8314 64.917 30.4111 63.2813 30.9903 61.646C31.1679 61.1458 31.3454 60.6433 31.4707 60.1292C31.6139 59.4944 31.7119 58.8511 31.7637 58.2037C31.8975 56.8617 31.9855 55.517 32.0276 54.1696C32.0434 53.6856 32.0544 53.1912 32.2186 52.7327C32.3725 52.359 32.576 52.0057 32.8242 51.6813C33.1756 51.1776 33.527 50.674 33.8785 50.1703C34.0743 49.8901 34.2798 49.6018 34.5814 49.4269C34.8331 49.2799 35.1323 49.2266 35.3974 49.1027C35.5642 49.0126 35.7243 48.9116 35.8765 48.8005C36.2729 48.533 36.7387 48.2517 37.0804 48.5249C37.1358 48.5687 37.1834 48.6207 37.2215 48.6789C37.2409 48.7075 37.2584 48.7373 37.2738 48.7681C37.6021 49.4443 36.4468 50.0279 36.0054 50.3254Z" fill="#2F2E41"/>
<path d="M47.2224 66.7847H31.4524C31.5375 66.7106 31.6215 66.633 31.7029 66.5531C31.7151 66.5415 31.726 66.5299 31.7382 66.5184C32.3414 65.9221 32.4788 65.1891 32.7816 64.4133C33.009 63.8286 33.2364 63.2443 33.4638 62.6603C33.4998 62.5466 33.5589 62.4408 33.6377 62.3488C33.7036 62.2841 33.7862 62.2369 33.8773 62.2122C33.946 62.1921 34.0171 62.1797 34.0889 62.1752C34.1913 62.1688 34.2941 62.1688 34.3965 62.1752C37.2263 62.3141 40.0541 62.4835 42.8798 62.6835C43.2446 62.7101 43.6095 62.7367 43.9743 62.7634C44.2722 62.9741 44.5665 63.1976 44.8474 63.4338C45.7607 64.198 46.5524 65.0976 47.0059 66.1606C47.0607 66.2891 47.1105 66.4199 47.1519 66.5531C47.1786 66.6295 47.2017 66.7071 47.2224 66.7847Z" fill="#2F2E41"/>
<path d="M42.4563 39.163L39.2203 37.549L34.7516 38.2092L33.827 42.0974L36.1286 42.0131L36.7715 40.5846V41.9894L37.8335 41.9505L38.4498 39.6765L38.8351 42.0974L42.6103 42.024L42.4563 39.163Z" fill="#2F2E41"/>
<path d="M47.2224 66.7847H43.6618C43.6362 66.7083 43.6119 66.6307 43.5888 66.5531C43.3373 65.6919 43.1528 64.8141 43.0367 63.9271C42.999 63.6735 42.9662 63.4188 42.9358 63.1652C42.9163 63.0042 42.8981 62.8444 42.8798 62.6835C42.6755 60.8957 42.5187 59.0906 41.9447 57.3793C41.8754 57.172 41.8 56.9659 41.727 56.7598C41.5922 56.4049 41.4865 56.0406 41.4108 55.6702C41.2552 54.8227 41.3719 53.945 41.2114 53.0986C41.1214 52.6262 40.9426 52.2105 40.8344 51.7774C40.7655 51.5161 40.7384 51.2464 40.7541 50.9773C41.0161 50.7419 41.346 50.5863 41.7015 50.5304C41.8243 50.5107 41.9629 50.4957 42.0371 50.4019C42.0808 50.3305 42.1004 50.248 42.093 50.1657C42.1016 49.6195 42.0686 49.0735 41.9945 48.5319C41.9702 48.342 41.9398 48.1521 41.9033 47.9634C41.9021 47.9541 41.8997 47.946 41.8985 47.9368C42.1952 47.814 42.5296 47.8129 42.8519 47.814C43.2033 47.8152 43.5535 47.8152 43.9038 47.8163C44.5519 47.8186 45.2001 47.8206 45.8483 47.8221C46.4514 47.8233 47.0753 47.8291 47.6237 48.0664C48.1904 48.3131 48.6209 48.789 48.9054 49.3169C49.19 49.8449 49.3444 50.4262 49.4843 51.004C49.5231 51.1639 49.5435 51.3273 49.5451 51.4914C49.5719 52.7952 48.5504 54.1082 48.4482 55.441C48.4154 55.8729 48.4531 56.3082 48.4117 56.7401C48.3704 57.1732 48.2488 57.5969 48.2269 58.03C48.2257 58.052 48.2244 58.0751 48.2244 58.0971C48.2111 58.661 48.3838 59.2133 48.5832 59.7448C48.8921 60.5704 49.2678 61.3705 49.6558 62.1659C50.0303 62.9359 50.4146 63.7024 50.7599 64.4828C50.9396 64.8451 51.0605 65.2312 51.1187 65.628C51.157 65.947 51.093 66.2695 50.9351 66.5531C50.8945 66.6232 50.846 66.6889 50.7904 66.7488L50.7879 66.7511C50.777 66.7627 50.766 66.7743 50.7551 66.7847H47.2224Z" fill="#2F2E41"/>
<path d="M50.614 65.5967C50.5991 65.7508 50.555 65.901 50.4839 66.0402C50.4778 66.0541 50.4717 66.0668 50.4657 66.0807C50.3951 66.2393 50.3234 66.3957 50.2492 66.5531C50.2127 66.6295 50.1762 66.7071 50.1385 66.7847H48.1247C48.1976 66.7121 48.2651 66.6347 48.3266 66.5531C48.6355 66.1444 48.8142 65.6477 49.1292 65.2065C49.172 65.1462 49.2213 65.0903 49.2763 65.0398C49.781 64.5743 50.6456 64.6693 50.614 65.5967Z" fill="#FFB8B8"/>
<path d="M51.925 66.7847C51.9507 66.7086 51.9722 66.6313 51.9894 66.5531C52.004 66.4917 52.0162 66.4315 52.0259 66.3702C52.0903 65.9661 52.0891 65.5527 52.1901 65.1555C52.3323 64.587 52.7592 63.9143 52.4077 63.4361C52.6812 63.3827 52.9389 63.2728 53.1629 63.1142C53.3721 62.9405 53.4937 62.6395 53.3672 62.4033C53.242 62.1705 52.9027 62.0165 52.9489 61.7583C52.9719 61.6764 53.0125 61.5999 53.0681 61.5337C53.2525 61.2567 53.3478 60.9344 53.3424 60.6065C53.337 60.2786 53.2311 59.9594 53.0377 59.688C52.927 59.5375 52.7908 59.4055 52.6899 59.248C52.5795 59.0555 52.4949 58.8505 52.4381 58.6378C52.087 57.5604 51.5694 56.5388 50.9022 55.6065C50.7544 55.4271 50.6397 55.2251 50.563 55.009C50.5181 54.7749 50.5091 54.5358 50.5362 54.2993C50.5605 53.3637 50.1933 52.4501 49.6643 51.6628C49.6254 51.6049 49.5852 51.5481 49.5451 51.4914C49.0344 50.7747 48.4008 50.1459 47.7696 49.5219C47.5094 49.6376 47.2796 49.7129 47.1446 49.9537C47.0784 50.0895 47.0376 50.2353 47.0242 50.3845C46.8515 51.5308 46.7019 52.684 46.5852 53.8361C46.5268 54.4185 46.4672 55.0056 46.5365 55.5868C46.6059 56.1681 46.8138 56.7505 47.2273 57.1824C47.4863 57.4533 47.8146 57.6548 48.0955 57.9049C48.1405 57.9454 48.1843 57.9871 48.2269 58.03C48.4294 58.2353 48.6091 58.4599 48.7632 58.7004C49.4371 59.737 49.7495 60.95 49.6558 62.1659C49.6388 62.3851 49.6083 62.6031 49.5646 62.8189C49.5111 63.1279 49.4017 63.4257 49.2411 63.6989C49.1134 63.8992 48.9456 64.0741 48.8301 64.2813C48.7145 64.4886 48.6598 64.7468 48.7741 64.9541C48.9456 64.9539 49.1156 64.9829 49.2764 65.0397C49.655 65.1788 49.984 65.4178 50.2249 65.7287C50.3137 65.8405 50.3941 65.9581 50.4657 66.0807C50.5559 66.2334 50.6363 66.3911 50.7064 66.5531C50.7356 66.6168 50.7636 66.6828 50.7904 66.7488C50.7965 66.7602 50.8014 66.7723 50.805 66.7847H51.925Z" fill="#2F2E41"/>
<path d="M41.9825 46.64L39.4039 47.7108L38.7988 47.7677L36.0499 47.1987L36.1711 49.5278L38.8587 48.3439L39.4638 48.2869L42.3429 48.9465L41.9825 46.64Z" fill="#6C63FF"/>
<path d="M47.1519 66.5531C47.1786 66.6295 47.2017 66.7071 47.2224 66.7847H48.1247C48.1976 66.7121 48.2651 66.6347 48.3266 66.5531H47.1519ZM23.3181 15.7222V66.7847H56.9425V15.7222H23.3181ZM56.6992 66.5531H23.5613V15.9538H56.6992V66.5531ZM47.1519 66.5531C47.1786 66.6295 47.2017 66.7071 47.2224 66.7847H48.1247C48.1976 66.7121 48.2651 66.6347 48.3266 66.5531H47.1519Z" fill="#2F2E41"/>
<path d="M34.3663 38.0615L34.3871 37.962C34.3933 37.9324 34.9884 34.9718 33.455 32.1976L33.3441 31.9969L33.5798 32.029C33.6475 32.0382 35.1958 32.2747 36.3059 34.6021C36.4033 34.2474 36.5014 33.5015 36.1967 32.2446L36.1534 32.0657L36.3416 32.1055C36.4002 32.1179 37.7363 32.4178 38.2661 33.9629L40.3692 32.2684V35.021C40.9349 34.7471 42.6694 34.01 43.7726 34.6664L43.9408 34.7666L43.7707 34.8639C43.7563 34.8722 42.4012 35.6548 42.1325 36.4468C42.4491 36.4494 43.204 36.4597 43.9514 36.5024C45.8711 36.6121 46.0319 36.8225 46.0319 37.0111V37.0772L45.9722 37.1108C45.9382 37.13 42.5673 39.0434 42.4926 40.5362L42.4849 40.6899L34.3663 38.0615ZM41.9779 36.6776H41.8343L41.858 36.5428C41.9914 35.7804 43.0397 35.0452 43.4672 34.7739C42.2622 34.2671 40.3283 35.3034 40.3079 35.3145L40.126 35.4133V32.7677L38.1357 34.3712L38.0855 34.196C37.7367 32.9785 36.8673 32.532 36.4793 32.3897C36.8796 34.2147 36.4391 34.9428 36.4195 34.974L36.295 35.1716L36.2028 34.9585C35.3985 33.0985 34.2892 32.5071 33.7975 32.3295C35.0622 34.814 34.7317 37.3738 34.6436 37.9068L42.2664 40.3745C42.5102 38.9428 45.1312 37.3311 45.7312 36.9791C45.3609 36.7917 43.5728 36.6776 41.9779 36.6776Z" fill="#6C63FF"/>
<path d="M32.7331 30.8706C32.7331 30.7884 32.7587 30.7081 32.8066 30.6398C32.8546 30.5715 32.9227 30.5183 33.0024 30.4869C33.0821 30.4554 33.1698 30.4472 33.2544 30.4632C33.339 30.4793 33.4167 30.5188 33.4777 30.5769C33.5387 30.635 33.5803 30.709 33.5971 30.7896C33.6139 30.8701 33.6053 30.9536 33.5723 31.0295C33.5393 31.1054 33.4834 31.1703 33.4116 31.2159C33.3399 31.2615 33.2556 31.2859 33.1693 31.2859C33.0537 31.2858 32.9428 31.242 32.861 31.1641C32.7792 31.0863 32.7332 30.9807 32.7331 30.8706ZM32.9763 30.8706C32.9763 30.9069 32.9876 30.9424 33.0088 30.9727C33.0301 31.0029 33.0602 31.0264 33.0955 31.0403C33.1307 31.0542 33.1695 31.0579 33.207 31.0508C33.2444 31.0437 33.2788 31.0262 33.3058 31.0005C33.3327 30.9748 33.3511 30.9421 33.3586 30.9064C33.366 30.8708 33.3622 30.8338 33.3476 30.8003C33.333 30.7667 33.3083 30.738 33.2765 30.7178C33.2448 30.6976 33.2075 30.6868 33.1693 30.6868C33.1181 30.6869 33.0691 30.7063 33.0329 30.7407C32.9967 30.7752 32.9764 30.8219 32.9763 30.8706Z" fill="#6C63FF"/>
<path d="M35.879 30.8706C35.879 30.7884 35.9046 30.7081 35.9525 30.6398C36.0005 30.5715 36.0686 30.5183 36.1483 30.4869C36.228 30.4554 36.3157 30.4472 36.4003 30.4632C36.4849 30.4793 36.5627 30.5188 36.6237 30.5769C36.6847 30.635 36.7262 30.709 36.743 30.7896C36.7599 30.8701 36.7512 30.9536 36.7182 31.0295C36.6852 31.1054 36.6293 31.1703 36.5576 31.2159C36.4858 31.2615 36.4015 31.2859 36.3152 31.2859C36.1996 31.2858 36.0887 31.242 36.0069 31.1641C35.9251 31.0863 35.8792 30.9807 35.879 30.8706ZM36.1222 30.8706C36.1222 30.9069 36.1336 30.9424 36.1548 30.9727C36.176 31.0029 36.2061 31.0264 36.2414 31.0403C36.2766 31.0542 36.3154 31.0579 36.3529 31.0508C36.3903 31.0437 36.4247 31.0262 36.4517 31.0005C36.4787 30.9748 36.497 30.9421 36.5045 30.9064C36.5119 30.8708 36.5081 30.8338 36.4935 30.8003C36.4789 30.7667 36.4542 30.738 36.4224 30.7178C36.3907 30.6976 36.3534 30.6868 36.3152 30.6868C36.2641 30.6869 36.215 30.7063 36.1788 30.7407C36.1427 30.7752 36.1223 30.8219 36.1222 30.8706Z" fill="#6C63FF"/>
<path d="M40.4406 31.6195C40.4406 31.5373 40.4662 31.457 40.5141 31.3887C40.5621 31.3204 40.6302 31.2672 40.7099 31.2358C40.7896 31.2043 40.8773 31.1961 40.9619 31.2121C41.0465 31.2282 41.1242 31.2677 41.1852 31.3258C41.2462 31.3839 41.2878 31.4579 41.3046 31.5385C41.3215 31.619 41.3128 31.7025 41.2798 31.7784C41.2468 31.8543 41.1909 31.9192 41.1191 31.9648C41.0474 32.0105 40.9631 32.0348 40.8768 32.0348C40.7612 32.0347 40.6503 31.9909 40.5685 31.913C40.4867 31.8352 40.4407 31.7296 40.4406 31.6195ZM40.6838 31.6195C40.6838 31.6558 40.6951 31.6914 40.7164 31.7216C40.7376 31.7518 40.7677 31.7753 40.803 31.7892C40.8382 31.8032 40.877 31.8068 40.9145 31.7997C40.9519 31.7926 40.9863 31.7751 41.0133 31.7494C41.0403 31.7237 41.0586 31.691 41.0661 31.6553C41.0735 31.6197 41.0697 31.5827 41.0551 31.5492C41.0405 31.5156 41.0158 31.4869 40.984 31.4667C40.9523 31.4465 40.915 31.4357 40.8768 31.4357C40.8256 31.4358 40.7766 31.4552 40.7404 31.4896C40.7042 31.5241 40.6839 31.5708 40.6838 31.6195Z" fill="#6C63FF"/>
<path d="M46.5752 36.7116C46.5752 36.6294 46.6007 36.5491 46.6487 36.4808C46.6966 36.4125 46.7647 36.3593 46.8444 36.3279C46.9241 36.2964 47.0118 36.2882 47.0965 36.3042C47.1811 36.3203 47.2588 36.3598 47.3198 36.4179C47.3808 36.476 47.4223 36.55 47.4392 36.6306C47.456 36.7111 47.4474 36.7946 47.4144 36.8705C47.3813 36.9464 47.3254 37.0113 47.2537 37.0569C47.182 37.1026 47.0976 37.1269 47.0114 37.1269C46.8957 37.1268 46.7848 37.083 46.7031 37.0051C46.6213 36.9273 46.5753 36.8217 46.5752 36.7116ZM46.8184 36.7116C46.8184 36.7479 46.8297 36.7835 46.8509 36.8137C46.8721 36.8439 46.9022 36.8674 46.9375 36.8813C46.9728 36.8953 47.0116 36.8989 47.049 36.8918C47.0864 36.8847 47.1208 36.8672 47.1478 36.8415C47.1748 36.8158 47.1932 36.7831 47.2006 36.7474C47.2081 36.7118 47.2043 36.6748 47.1896 36.6413C47.175 36.6077 47.1503 36.579 47.1186 36.5588C47.0868 36.5386 47.0495 36.5278 47.0114 36.5278C46.9602 36.5279 46.9111 36.5473 46.875 36.5817C46.8388 36.6162 46.8184 36.6629 46.8184 36.7116Z" fill="#6C63FF"/>
<path d="M44.373 34.1655C44.373 34.0834 44.3986 34.0031 44.4465 33.9348C44.4944 33.8665 44.5626 33.8132 44.6423 33.7818C44.722 33.7503 44.8097 33.7421 44.8943 33.7581C44.9789 33.7742 45.0567 33.8137 45.1177 33.8718C45.1787 33.9299 45.2202 34.0039 45.2371 34.0845C45.2539 34.1651 45.2453 34.2486 45.2122 34.3245C45.1792 34.4004 45.1233 34.4652 45.0516 34.5109C44.9798 34.5565 44.8955 34.5809 44.8092 34.5808C44.6935 34.5807 44.5827 34.5369 44.5009 34.4591C44.4191 34.3812 44.3731 34.2756 44.373 34.1655ZM44.6162 34.1655C44.6162 34.2019 44.6275 34.2374 44.6487 34.2676C44.6699 34.2979 44.7001 34.3214 44.7354 34.3353C44.7706 34.3493 44.8094 34.3529 44.8469 34.3458C44.8843 34.3387 44.9187 34.3212 44.9457 34.2955C44.9727 34.2698 44.9911 34.2371 44.9985 34.2014C45.006 34.1658 45.0021 34.1288 44.9875 34.0952C44.9729 34.0616 44.9482 34.0329 44.9164 34.0127C44.8847 33.9926 44.8474 33.9818 44.8092 33.9818C44.758 33.9818 44.709 34.0012 44.6728 34.0357C44.6366 34.0701 44.6163 34.1168 44.6162 34.1655Z" fill="#6C63FF"/>
<path d="M112 74.7162H1.45929V74.9477H112V74.7162Z" fill="#3F3D56"/>
</g>
<defs>
<clipPath id="clip0_75_822">
<rect width="112" height="75" fill="white"/>
</clipPath>
</defs>
</svg>
