<svg width="113" height="91" viewBox="0 0 113 91" fill="none" xmlns="http://www.w3.org/2000/svg">
<g clip-path="url(#clip0_75_240)">
<path d="M113 89.8719L32.1093 91L0 85.7355H50.127L113 89.8719Z" fill="#E6E6E6"/>
<path d="M93.1499 23.9408C100.296 23.9408 106.09 18.5814 106.09 11.9704C106.09 5.35932 100.296 0 93.1499 0C86.0035 0 80.2101 5.35932 80.2101 11.9704C80.2101 18.5814 86.0035 23.9408 93.1499 23.9408Z" fill="#F5EEF0"/>
<path d="M22.891 86.3612C22.891 86.3612 23.0802 82.6923 26.9604 83.1187Z" fill="#3F3D56"/>
<path d="M21.7946 82.8698C22.8671 82.8698 23.7366 82.0654 23.7366 81.0733C23.7366 80.0811 22.8671 79.2767 21.7946 79.2767C20.7221 79.2767 19.8526 80.0811 19.8526 81.0733C19.8526 82.0654 20.7221 82.8698 21.7946 82.8698Z" fill="#6C63FF"/>
<path d="M22.0268 84.0985H21.4786V87.6482H22.0268V84.0985Z" fill="#3F3D56"/>
<path d="M86.8448 86.9879C86.8448 86.9879 87.0341 83.319 90.9143 83.7455Z" fill="#3F3D56"/>
<path d="M85.7484 83.4965C86.821 83.4965 87.6904 82.6922 87.6904 81.7C87.6904 80.7078 86.821 79.9035 85.7484 79.9035C84.6759 79.9035 83.8064 80.7078 83.8064 81.7C83.8064 82.6922 84.6759 83.4965 85.7484 83.4965Z" fill="#6C63FF"/>
<path d="M85.9806 84.7252H85.4324V88.275H85.9806V84.7252Z" fill="#3F3D56"/>
<path d="M96.194 87.6146C96.194 87.6146 96.3832 83.9457 100.263 84.3722Z" fill="#3F3D56"/>
<path d="M95.0976 84.1232C96.1701 84.1232 97.0396 83.3189 97.0396 82.3267C97.0396 81.3345 96.1701 80.5302 95.0976 80.5302C94.0251 80.5302 93.1556 81.3345 93.1556 82.3267C93.1556 83.3189 94.0251 84.1232 95.0976 84.1232Z" fill="#6C63FF"/>
<path d="M95.3298 85.3519H94.7816V88.9017H95.3298V85.3519Z" fill="#3F3D56"/>
<path d="M38.2019 84.6064C38.2019 84.6064 38.3912 80.9375 42.2714 81.3639Z" fill="#3F3D56"/>
<path d="M37.1056 81.1149C38.1781 81.1149 39.0476 80.3106 39.0476 79.3184C39.0476 78.3262 38.1781 77.5219 37.1056 77.5219C36.033 77.5219 35.1636 78.3262 35.1636 79.3184C35.1636 80.3106 36.033 81.1149 37.1056 81.1149Z" fill="#6C63FF"/>
<path d="M37.3378 82.3437H36.7896V85.8934H37.3378V82.3437Z" fill="#3F3D56"/>
<path d="M9.34142 85.2331C9.34142 85.2331 9.53069 81.5642 13.4109 81.9906Z" fill="#3F3D56"/>
<path d="M8.24505 81.7417C9.31759 81.7417 10.1871 80.9373 10.1871 79.9452C10.1871 78.953 9.31759 78.1487 8.24505 78.1487C7.17252 78.1487 6.30305 78.953 6.30305 79.9452C6.30305 80.9373 7.17252 81.7417 8.24505 81.7417Z" fill="#6C63FF"/>
<path d="M8.47724 82.9704H7.92906V86.5201H8.47724V82.9704Z" fill="#3F3D56"/>
<path d="M56.2952 78.8577C67.9806 78.8577 77.4535 70.0945 77.4535 59.2845C77.4535 48.4745 67.9806 39.7113 56.2952 39.7113C44.6097 39.7113 35.1368 48.4745 35.1368 59.2845C35.1368 70.0945 44.6097 78.8577 56.2952 78.8577Z" fill="#532816"/>
<path d="M42.9747 60.8557C43.5002 60.2737 44.1574 59.8056 44.8999 59.4844C45.6424 59.1631 46.4521 58.9966 47.2718 58.9966C48.0914 58.9966 48.9011 59.1631 49.6436 59.4844C50.3861 59.8056 51.0433 60.2737 51.5688 60.8557C52.468 60.0616 53.0895 59.0366 53.3532 57.9128C53.6169 56.789 53.5107 55.6179 53.0483 54.5504C52.586 53.483 51.7886 52.5681 50.759 51.9236C49.7295 51.2792 48.5149 50.9348 47.2718 50.9348C46.0287 50.9348 44.814 51.2792 43.7845 51.9236C42.7549 52.5681 41.9575 53.483 41.4952 54.5504C41.0328 55.6179 40.9266 56.789 41.1903 57.9128C41.454 59.0366 42.0755 60.0616 42.9747 60.8557Z" fill="white"/>
<path d="M59.7769 60.8557C60.3024 60.2737 60.9596 59.8056 61.7021 59.4844C62.4446 59.1631 63.2543 58.9966 64.074 58.9966C64.8937 58.9966 65.7033 59.1631 66.4459 59.4844C67.1884 59.8056 67.8456 60.2737 68.371 60.8557C69.2702 60.0616 69.8917 59.0366 70.1554 57.9128C70.4191 56.789 70.3129 55.6179 69.8505 54.5504C69.3882 53.483 68.5908 52.5681 67.5613 51.9236C66.5317 51.2792 65.3171 50.9348 64.074 50.9348C62.8309 50.9348 61.6162 51.2792 60.5867 51.9236C59.5571 52.5681 58.7597 53.483 58.2974 54.5504C57.835 55.6179 57.7289 56.789 57.9925 57.9128C58.2562 59.0366 58.8777 60.0616 59.7769 60.8557Z" fill="white"/>
<path d="M45.1489 56.7116C46.3311 56.7116 47.2896 55.825 47.2896 54.7314C47.2896 53.6377 46.3311 52.7511 45.1489 52.7511C43.9666 52.7511 43.0082 53.6377 43.0082 54.7314C43.0082 55.825 43.9666 56.7116 45.1489 56.7116Z" fill="#3F3D56"/>
<path d="M61.9505 56.7116C63.1327 56.7116 64.0912 55.825 64.0912 54.7314C64.0912 53.6377 63.1327 52.7511 61.9505 52.7511C60.7682 52.7511 59.8098 53.6377 59.8098 54.7314C59.8098 55.825 60.7682 56.7116 61.9505 56.7116Z" fill="#3F3D56"/>
<path d="M41.0487 66.4805C42.4235 66.4805 43.5379 65.4495 43.5379 64.1778C43.5379 62.906 42.4235 61.875 41.0487 61.875C39.674 61.875 38.5595 62.906 38.5595 64.1778C38.5595 65.4495 39.674 66.4805 41.0487 66.4805Z" fill="#FF6584"/>
<path d="M69.6747 66.4805C71.0495 66.4805 72.1639 65.4495 72.1639 64.1778C72.1639 62.906 71.0495 61.875 69.6747 61.875C68.2999 61.875 67.1855 62.906 67.1855 64.1778C67.1855 65.4495 68.2999 66.4805 69.6747 66.4805Z" fill="#FF6584"/>
<path d="M55.3617 59.5723L53.4948 67.0561L56.6063 64.1778L55.3617 59.5723Z" fill="#FF6584"/>
<path d="M64.9544 88.3565L62.8348 86.7108L62.8842 88.3565H62.2259L62.1733 86.6164L59.3116 88.3565H58.1136L62.1519 85.9009L61.9955 80.7448L61.8787 76.8507L62.5353 76.834L62.6538 80.7448L62.8101 85.8963L65.9779 88.3565H64.9544Z" fill="#3F3D56"/>
<path d="M54.9968 88.3565L52.8772 86.7108L52.9266 88.3565H52.2701L52.2174 86.6164L49.3556 88.3565H48.1576L52.1943 85.9009L52.038 80.7448L51.9212 76.8507L52.5794 76.834L52.6979 80.7448L52.8525 85.8963L56.0204 88.3565H54.9968Z" fill="#3F3D56"/>
<path d="M56.6063 38.2721C56.0258 38.2721 55.5136 38.6892 55.1712 39.33C54.8694 38.3665 54.2353 37.6964 53.4948 37.6964C53.4445 37.701 53.3945 37.7088 53.3453 37.7196C53.0607 36.6908 52.3992 35.9693 51.6279 35.9693C50.5968 35.9693 49.761 37.258 49.761 38.8477C49.761 40.4374 50.5968 41.7262 51.6279 41.7262C51.6782 41.7215 51.7281 41.7138 51.7773 41.7029C52.062 42.7317 52.7235 43.4532 53.4948 43.4532C54.0754 43.4532 54.5875 43.036 54.9299 42.3952C55.2317 43.3588 55.8658 44.0289 56.6063 44.0289C57.6374 44.0289 58.4732 42.7402 58.4732 41.1505C58.4732 39.5608 57.6374 38.2721 56.6063 38.2721Z" fill="#3F3D56"/>
<path d="M36.4353 66.7018C35.6181 66.7018 34.8089 66.5529 34.0539 66.2636C33.2989 65.9743 32.6128 65.5503 32.035 65.0157C31.4571 64.4811 30.9987 63.8465 30.686 63.1481C30.3733 62.4496 30.2123 61.701 30.2123 60.945V58.0666C30.2123 56.5398 30.8679 55.0755 32.035 53.9959C33.202 52.9163 34.7849 52.3098 36.4353 52.3098V66.7018Z" fill="#6C63FF"/>
<path d="M76.155 52.3098C76.9722 52.3098 77.7814 52.4587 78.5365 52.748C79.2915 53.0373 79.9775 53.4613 80.5554 53.9959C81.1332 54.5305 81.5916 55.1651 81.9043 55.8636C82.2171 56.562 82.378 57.3106 82.378 58.0666V60.945C82.378 61.701 82.2171 62.4496 81.9043 63.1481C81.5916 63.8465 81.1332 64.4811 80.5554 65.0157C79.9775 65.5503 79.2915 65.9743 78.5365 66.2636C77.7814 66.5529 76.9722 66.7018 76.155 66.7018L76.155 52.3098Z" fill="#6C63FF"/>
<path d="M79.4159 58.5189H78.4286C78.4286 46.9351 68.2412 37.5109 55.7192 37.5109C43.1972 37.5109 33.0098 46.9351 33.0098 58.5189H32.0225C32.0225 46.4314 42.6528 36.5975 55.7192 36.5975C68.7857 36.5975 79.4159 46.4314 79.4159 58.5189Z" fill="white"/>
<path d="M21.8354 40.9146L21.8356 40.9143L21.3717 40.7356L19.4145 39.9702L18.7129 39.6958L18.6591 39.8216L17.7167 42.0228L20.3689 43.0612L20.3828 43.0729L20.2041 43.4627C20.1796 43.4984 20.1588 43.5361 20.1417 43.5752C20.0166 43.8677 20.253 44.1586 20.4766 44.2405C20.7001 44.3223 20.9828 44.1517 21.108 43.8593C21.2315 43.5708 21.1108 43.2044 20.893 43.1158L20.8932 43.1155L20.4293 42.9368L18.8425 42.3661L19.7491 40.2484L19.6148 40.1991L18.7078 42.3177L18.5115 42.2471L19.4221 40.1203L19.4461 40.1297L21.3113 40.86L21.3252 40.8717L21.1465 41.2615C21.122 41.2972 21.1012 41.3348 21.0842 41.374C20.959 41.6665 21.1954 41.9574 21.4189 42.0392C21.6425 42.1211 21.9252 41.9505 22.0504 41.6581C22.1739 41.3696 22.0532 41.0032 21.8354 40.9146Z" fill="#3F3D56"/>
<path d="M31.0152 46.3186C30.0524 45.8094 30.245 44.6919 30.245 44.6919C30.2208 43.9659 29.5725 44.0687 29.5725 44.0687L29.3365 44.1185C29.2269 44.0715 29.1062 44.0508 28.9856 44.0585L28.6267 44.1144C29.444 44.292 29.3769 44.9245 29.3769 44.9245L29.4914 45.6641L27.3497 44.8649L27.5956 44.3285C27.6296 44.279 27.6586 44.2267 27.6822 44.1723C27.8561 43.7661 27.5277 43.3621 27.2172 43.2483C26.9067 43.1346 26.5141 43.3716 26.3402 43.7778C26.1687 44.1784 26.3363 44.6874 26.6388 44.8103L26.6386 44.8108L27.2828 45.059L27.2876 45.045L31.0152 46.3186ZM29.9276 45.0191L29.9963 45.727C29.7538 45.4123 29.6398 45.0281 29.6748 44.6429C29.6691 44.5059 29.6191 44.3737 29.5313 44.2632C29.6663 44.3432 29.7747 44.4561 29.8446 44.5895C29.9146 44.7229 29.9433 44.8716 29.9276 45.0191Z" fill="#3F3D56"/>
<path d="M14.6784 35.8494L14.6786 35.8489L14.0343 35.6007L11.3417 34.6324L12.0213 34.0731C12.1543 33.9091 12.3506 33.799 12.5692 33.7659C12.7879 33.7328 13.0119 33.7791 13.1945 33.8953L12.9836 33.6053C12.9836 33.6053 12.5871 33.1197 12.0321 33.6335C12.0321 33.6335 11.3454 34.57 10.2668 34.3312L13.9505 35.7735L13.9698 35.7898L13.7216 36.3312C13.6876 36.3807 13.6586 36.433 13.635 36.4875C13.4611 36.8936 13.7895 37.2976 14.1 37.4114C14.4105 37.5251 14.8031 37.2881 14.977 36.8819C15.1485 36.4813 14.9809 35.9724 14.6784 35.8494Z" fill="#3F3D56"/>
<path d="M24.5362 32.6802L24.2879 33.2216C24.254 33.2712 24.225 33.3235 24.2013 33.3779C24.0275 33.7841 24.3559 34.1881 24.6663 34.3018C24.9768 34.4156 25.3695 34.1785 25.5434 33.7724C25.7149 33.3717 25.5473 32.8628 25.2447 32.7398L25.245 32.7393L24.6007 32.4911L22.3968 31.6986L23.656 28.7572L23.4694 28.6888L22.2096 31.6313L21.9371 31.5333L23.2018 28.5793L23.2351 28.5924L25.8257 29.6067L25.8451 29.6229L25.5968 30.1644C25.5629 30.2139 25.5339 30.2662 25.5102 30.3206C25.3363 30.7268 25.6648 31.1308 25.9752 31.2446C26.2857 31.3583 26.6784 31.1213 26.8523 30.7151C27.0238 30.3145 26.8562 29.8055 26.5536 29.6826L26.5539 29.6821L25.9096 29.4339L23.2767 28.4043L23.1912 28.3708L22.2169 27.9898L20.8332 31.2217L24.5168 32.664L24.5362 32.6802Z" fill="#3F3D56"/>
<path d="M12.8626 16.1283L12.863 16.1275L11.754 15.7002L7.11875 14.0333L8.28864 13.0704C8.28864 13.0704 9.06683 12.0716 10.3082 12.7644L9.94515 12.2653C9.94515 12.2653 9.26263 11.4294 8.30727 12.3138C8.30727 12.3138 7.12519 13.9258 5.26843 13.5149L11.6096 15.9977L11.6429 16.0257L11.2156 16.9577C11.1571 17.043 11.1072 17.133 11.0665 17.2267C10.7672 17.9259 11.3325 18.6214 11.867 18.8172C12.4014 19.013 13.0774 18.6049 13.3767 17.9058C13.672 17.2161 13.3834 16.34 12.8626 16.1283Z" fill="#3F3D56"/>
<path d="M16.2662 30.1302C13.9643 28.9127 14.4249 26.241 14.4249 26.241C14.367 24.5053 12.8168 24.751 12.8168 24.751L12.2526 24.8701C11.9906 24.7575 11.702 24.7082 11.4137 24.7265L10.5555 24.8601C12.5097 25.2849 12.3491 26.7972 12.3491 26.7972L12.6229 28.5654L7.50238 26.6545L8.0903 25.3721C8.17155 25.2537 8.24087 25.1287 8.29739 24.9985C8.71315 24.0274 7.92792 23.0615 7.18561 22.7895C6.4433 22.5175 5.5045 23.0843 5.08874 24.0554C4.67865 25.0132 5.07942 26.2301 5.80279 26.5241L5.80218 26.5253L7.34255 27.1187L7.35402 27.0851L16.2662 30.1302ZM13.6659 27.0233L13.8307 28.7217C12.8639 27.5345 13.0615 26.1239 13.0615 26.1239C13.0478 25.7963 12.9284 25.48 12.7185 25.2159C13.8291 25.8307 13.6659 27.0233 13.6659 27.0233Z" fill="#3F3D56"/>
</g>
<defs>
<clipPath id="clip0_75_240">
<rect width="113" height="91" fill="white"/>
</clipPath>
</defs>
</svg>
