<svg width="435" height="306" viewBox="0 0 435 306" fill="none" xmlns="http://www.w3.org/2000/svg">
<g opacity="0.4" clip-path="url(#clip0_161_2226)">
<path opacity="0.3" d="M288.687 195.585L213.237 135.519L286.536 197.991C286.678 198.219 286.875 198.412 287.11 198.553C287.346 198.695 287.613 198.78 287.89 198.803C288.167 198.826 288.446 198.785 288.703 198.684C288.96 198.584 289.189 198.426 289.369 198.224C289.55 198.022 289.678 197.781 289.742 197.523C289.806 197.264 289.805 196.995 289.738 196.737C289.671 196.479 289.541 196.24 289.358 196.039C289.176 195.839 288.946 195.683 288.687 195.585Z" fill="#F0F0F0"/>
<path d="M115.66 165.019C140.641 165.019 160.891 145.667 160.891 121.795C160.891 97.923 140.641 78.571 115.66 78.571C90.6799 78.571 70.4293 97.923 70.4293 121.795C70.4293 145.667 90.6799 165.019 115.66 165.019Z" fill="#F2F2F2"/>
<path d="M155.809 118.881C155.81 124.047 154.745 129.163 152.677 133.936C150.608 138.709 147.576 143.046 143.753 146.699C139.93 150.352 135.392 153.249 130.398 155.226C125.403 157.203 120.05 158.22 114.644 158.22C109.826 158.217 105.044 157.412 100.516 155.84C93.4342 153.375 87.1963 149.1 82.481 143.482C77.7657 137.863 74.7538 131.116 73.7731 123.975C72.7923 116.834 73.8805 109.573 76.919 102.982C79.9575 96.391 84.8299 90.7229 91.0058 86.5949C97.1816 82.4669 104.424 80.0371 111.945 79.5701C119.466 79.1031 126.976 80.6168 133.659 83.9463C140.342 87.2758 145.941 92.2936 149.847 98.4534C153.752 104.613 155.815 111.679 155.809 118.881Z" fill="white"/>
<path d="M107.529 117.91C114.546 117.91 120.234 112.474 120.234 105.768C120.234 99.0625 114.546 93.6265 107.529 93.6265C100.512 93.6265 94.8235 99.0625 94.8235 105.768C94.8235 112.474 100.512 117.91 107.529 117.91Z" fill="#E4E4E4"/>
<path d="M154.203 107.968C151.45 109.234 148.311 109.509 145.362 108.743C142.413 107.978 139.852 106.222 138.148 103.798C136.444 101.374 135.711 98.4444 136.084 95.5461C136.456 92.6477 137.909 89.9748 140.177 88.0171C146.914 93.1073 151.819 100.083 154.203 107.968Z" fill="#F2F2F2"/>
<path d="M128.366 136.365C130.892 136.365 132.94 134.408 132.94 131.994C132.94 129.58 130.892 127.623 128.366 127.623C125.84 127.623 123.792 129.58 123.792 131.994C123.792 134.408 125.84 136.365 128.366 136.365Z" fill="#E4E4E4"/>
<path d="M109.562 156.763C109.561 157.147 109.508 157.529 109.404 157.899C106.369 157.536 103.387 156.846 100.516 155.84C100.754 154.785 101.392 153.852 102.307 153.22C103.223 152.588 104.35 152.302 105.473 152.416C106.595 152.531 107.634 153.038 108.389 153.841C109.144 154.643 109.562 155.684 109.562 156.763Z" fill="#F2F2F2"/>
<path d="M82.6264 116.938C82.6262 119.156 81.7442 121.291 80.159 122.91C78.5737 124.529 76.4038 125.513 74.0884 125.661C73.0405 119.888 73.346 113.964 74.9829 108.318C77.1184 108.658 79.0583 109.711 80.4579 111.289C81.8574 112.868 82.6258 114.87 82.6264 116.938Z" fill="#F2F2F2"/>
<path d="M308.209 103.051C309.249 103.051 310.091 102.246 310.091 101.253C310.091 100.26 309.249 99.4545 308.209 99.4545C307.17 99.4545 306.328 100.26 306.328 101.253C306.328 102.246 307.17 103.051 308.209 103.051Z" fill="#6C63FF"/>
<path d="M290.852 59.3051C291.459 59.3051 291.951 58.8348 291.951 58.2546C291.951 57.6744 291.459 57.2041 290.852 57.2041C290.245 57.2041 289.752 57.6744 289.752 58.2546C289.752 58.8348 290.245 59.3051 290.852 59.3051Z" fill="#F0F0F0"/>
<path d="M114.502 265.226C115.109 265.226 115.601 264.756 115.601 264.176C115.601 263.596 115.109 263.125 114.502 263.125C113.895 263.125 113.402 263.596 113.402 264.176C113.402 264.756 113.895 265.226 114.502 265.226Z" fill="#F0F0F0"/>
<path d="M297.092 162.094C297.699 162.094 298.191 161.623 298.191 161.043C298.191 160.463 297.699 159.993 297.092 159.993C296.485 159.993 295.993 160.463 295.993 161.043C295.993 161.623 296.485 162.094 297.092 162.094Z" fill="#F0F0F0"/>
<path d="M155.237 172.015C156.276 172.015 157.119 171.21 157.119 170.217C157.119 169.224 156.276 168.419 155.237 168.419C154.198 168.419 153.356 169.224 153.356 170.217C153.356 171.21 154.198 172.015 155.237 172.015Z" fill="#6C63FF"/>
<path d="M87.1365 210.761C92.0436 210.761 96.0216 206.96 96.0216 202.271C96.0216 197.581 92.0436 193.78 87.1365 193.78C82.2294 193.78 78.2514 197.581 78.2514 202.271C78.2514 206.96 82.2294 210.761 87.1365 210.761Z" fill="#8B0000"/>
<path d="M135.847 212.775C136.454 212.775 136.946 212.304 136.946 211.724C136.946 211.144 136.454 210.674 135.847 210.674C135.239 210.674 134.747 211.144 134.747 211.724C134.747 212.304 135.239 212.775 135.847 212.775Z" fill="#F0F0F0"/>
<path d="M247.654 48.6205C248.261 48.6205 248.753 48.1502 248.753 47.57C248.753 46.9898 248.261 46.5195 247.654 46.5195C247.046 46.5195 246.554 46.9898 246.554 47.57C246.554 48.1502 247.046 48.6205 247.654 48.6205Z" fill="#F0F0F0"/>
<path d="M182.094 272.511C182.701 272.511 183.193 272.041 183.193 271.461C183.193 270.881 182.701 270.41 182.094 270.41C181.487 270.41 180.995 270.881 180.995 271.461C180.995 272.041 181.487 272.511 182.094 272.511Z" fill="#F0F0F0"/>
<path d="M165.831 58.3338C166.438 58.3338 166.931 57.8634 166.931 57.2833C166.931 56.7031 166.438 56.2327 165.831 56.2327C165.224 56.2327 164.732 56.7031 164.732 57.2833C164.732 57.8634 165.224 58.3338 165.831 58.3338Z" fill="#F0F0F0"/>
<path d="M194.291 109.328C194.898 109.328 195.39 108.858 195.39 108.278C195.39 107.698 194.898 107.227 194.291 107.227C193.684 107.227 193.192 107.698 193.192 108.278C193.192 108.858 193.684 109.328 194.291 109.328Z" fill="#F0F0F0"/>
<path d="M150.727 234.457C151.334 234.457 151.826 233.987 151.826 233.407C151.826 232.827 151.334 232.356 150.727 232.356C150.12 232.356 149.627 232.827 149.627 233.407C149.627 233.987 150.12 234.457 150.727 234.457Z" fill="#F0F0F0"/>
<path d="M279.305 241.257C279.912 241.257 280.404 240.786 280.404 240.206C280.404 239.626 279.912 239.156 279.305 239.156C278.698 239.156 278.205 239.626 278.205 240.206C278.205 240.786 278.698 241.257 279.305 241.257Z" fill="#F0F0F0"/>
<path d="M222.385 180.063C222.992 180.063 223.484 179.593 223.484 179.013C223.484 178.432 222.992 177.962 222.385 177.962C221.778 177.962 221.285 178.432 221.285 179.013C221.285 179.593 221.778 180.063 222.385 180.063Z" fill="#F0F0F0"/>
<path d="M251.353 109.156C251.96 109.156 252.452 108.686 252.452 108.106C252.452 107.526 251.96 107.055 251.353 107.055C250.746 107.055 250.254 107.526 250.254 108.106C250.254 108.686 250.746 109.156 251.353 109.156Z" fill="#F0F0F0"/>
<path d="M304.019 144.215C305.223 144.215 306.199 143.282 306.199 142.132C306.199 140.981 305.223 140.049 304.019 140.049C302.816 140.049 301.84 140.981 301.84 142.132C301.84 143.282 302.816 144.215 304.019 144.215Z" fill="#FF6584"/>
<path d="M215.59 75.2504C216.794 75.2504 217.77 74.3179 217.77 73.1675C217.77 72.0171 216.794 71.0845 215.59 71.0845C214.386 71.0845 213.411 72.0171 213.411 73.1675C213.411 74.3179 214.386 75.2504 215.59 75.2504Z" fill="#FF6584"/>
<path d="M215.59 218.521C216.794 218.521 217.77 217.589 217.77 216.438C217.77 215.288 216.794 214.355 215.59 214.355C214.386 214.355 213.411 215.288 213.411 216.438C213.411 217.589 214.386 218.521 215.59 218.521Z" fill="#FF6584"/>
<path d="M351.39 228.442C350.541 228.443 349.715 228.707 349.038 229.196C348.36 229.685 347.868 230.372 347.634 231.152C347.531 231.486 347.48 231.833 347.482 232.181V238.029C349.001 236.654 350.489 235.248 351.944 233.808C353.728 232.06 355.464 230.271 357.153 228.442H351.39Z" fill="#6C63FF"/>
<path d="M365.228 258.825C358.666 258.825 351.474 258.588 343.651 258.114C303.19 255.659 250.781 247.122 196.078 234.078C141.375 221.033 90.9134 205.038 53.989 189.04C36.002 181.247 22.1972 173.87 12.9583 167.113C3.17663 159.961 -1.10199 153.727 0.24075 148.584C2.85703 138.565 26.0229 136.373 44.9961 136.299L45.0025 137.756C18.9474 137.858 3.57617 141.829 1.72025 148.937C-0.643888 157.99 18.6369 172.123 54.6186 187.713C91.4618 203.676 141.831 219.64 196.447 232.664C251.064 245.688 303.376 254.21 343.748 256.66C383.174 259.053 407.144 255.233 409.508 246.18C411.471 238.664 398.531 227.591 373.074 215.002L373.775 213.708C392.273 222.856 413.744 235.976 410.987 246.533C409.644 251.676 402.802 255.258 390.651 257.18C383.724 258.276 375.217 258.825 365.228 258.825Z" fill="#F9A825"/>
<path d="M363.16 150.206C391.368 150.206 414.236 128.354 414.236 101.397C414.236 74.4406 391.368 52.588 363.16 52.588C334.952 52.588 312.085 74.4406 312.085 101.397C312.085 128.354 334.952 150.206 363.16 150.206Z" fill="white"/>
<path d="M363.16 51.8595C352.908 51.8595 342.885 54.7648 334.361 60.2081C325.836 65.6514 319.192 73.3881 315.268 82.4399C311.345 91.4917 310.318 101.452 312.319 111.061C314.319 120.671 319.256 129.498 326.505 136.426C333.755 143.354 342.992 148.072 353.047 149.983C363.103 151.894 373.526 150.913 382.998 147.164C392.47 143.415 400.566 137.065 406.262 128.919C411.958 120.772 414.998 111.195 414.998 101.397C415.023 94.8852 413.698 88.433 411.102 82.4122C408.506 76.3914 404.688 70.9212 399.87 66.3165C395.051 61.7118 389.327 58.0638 383.027 55.5826C376.726 53.1014 369.975 51.8361 363.16 51.8595ZM363.16 149.478C353.209 149.478 343.482 146.658 335.208 141.375C326.934 136.092 320.485 128.582 316.677 119.797C312.869 111.011 311.873 101.344 313.814 92.0171C315.755 82.6903 320.547 74.1232 327.583 67.399C334.62 60.6748 343.585 56.0955 353.345 54.2403C363.104 52.3851 373.221 53.3373 382.414 56.9764C391.608 60.6155 399.466 66.7781 404.994 74.685C410.523 82.5918 413.473 91.8877 413.473 101.397C413.499 107.718 412.215 113.981 409.696 119.826C407.176 125.67 403.471 130.98 398.794 135.45C394.117 139.92 388.56 143.46 382.445 145.868C376.329 148.275 369.775 149.502 363.16 149.478Z" fill="#2F2E41"/>
<path d="M318.338 113.087C318.104 113.087 317.878 113.01 317.697 112.868C317.515 112.727 317.391 112.53 317.344 112.312C315.883 105.2 316.147 97.8628 318.115 90.8638C320.083 83.8647 323.703 77.3897 328.698 71.9358C328.877 71.7444 329.129 71.6289 329.397 71.6145C329.666 71.6001 329.93 71.6881 330.13 71.8591C330.331 72.0302 330.453 72.2703 330.469 72.5269C330.485 72.7835 330.394 73.0357 330.215 73.2282C325.429 78.4546 321.96 84.6597 320.074 91.3669C318.188 98.0741 317.935 105.105 319.335 111.92C319.365 112.061 319.362 112.207 319.326 112.347C319.29 112.487 319.222 112.618 319.126 112.73C319.031 112.841 318.911 112.932 318.774 112.993C318.638 113.055 318.489 113.087 318.338 113.087Z" fill="#2F2E41"/>
<path d="M363.128 146.744C381.057 146.744 395.591 132.854 395.591 115.721C395.591 98.5874 381.057 84.6981 363.128 84.6981C345.199 84.6981 330.665 98.5874 330.665 115.721C330.665 132.854 345.199 146.744 363.128 146.744Z" fill="#F9A825"/>
<path d="M352.811 127.433C350.707 127.377 348.088 127.307 346.07 125.899C345.469 125.462 344.976 124.905 344.624 124.267C344.272 123.629 344.07 122.925 344.033 122.205C343.997 121.693 344.085 121.18 344.29 120.706C344.495 120.232 344.813 119.809 345.217 119.472C346.271 118.621 347.81 118.421 349.468 118.887L347.75 106.888L349.011 106.723L351.031 120.829L349.978 120.367C348.757 119.832 347.081 119.56 346.039 120.401C345.783 120.621 345.584 120.894 345.457 121.2C345.33 121.505 345.278 121.834 345.305 122.162C345.336 122.698 345.488 123.222 345.749 123.697C346.011 124.172 346.376 124.588 346.821 124.916C348.391 126.012 350.479 126.154 352.846 126.217L352.811 127.433Z" fill="#2F2E41"/>
<path d="M341.512 107.923H334.656V109.14H341.512V107.923Z" fill="#2F2E41"/>
<path d="M363.155 107.923H356.298V109.14H363.155V107.923Z" fill="#2F2E41"/>
<path d="M364.492 154.412H335.066C333.969 154.413 332.918 154.83 332.142 155.571C331.366 156.312 330.93 157.317 330.929 158.365V220.691C330.932 224.914 332.144 229.056 334.434 232.669C336.724 236.282 340.004 239.227 343.919 241.186C345.124 240.156 346.311 239.104 347.482 238.029C349.001 236.654 350.489 235.248 351.944 233.808C353.728 232.06 355.464 230.271 357.153 228.442C358.535 226.956 359.881 225.44 361.188 223.896C361.773 223.211 362.349 222.518 362.916 221.817C376.531 205.096 386.076 184.878 387.971 163.955C384.932 160.936 381.285 158.534 377.251 156.894C373.216 155.254 368.876 154.41 364.492 154.412Z" fill="#2F2E41"/>
<path d="M346.144 160.026C345.444 159.371 344.615 158.855 343.705 158.507C342.796 158.16 341.823 157.987 340.843 158.001C339.141 158.013 337.495 158.59 336.188 159.633C335.979 159.794 335.781 159.968 335.593 160.152L311.509 183.755L294.042 200.875C293.777 201.131 293.557 201.426 293.391 201.749C293.13 202.25 292.996 202.802 293 203.362C293.005 203.822 293.106 204.276 293.296 204.699C293.486 205.121 293.762 205.504 294.108 205.824L294.794 206.465L299.775 211.103L299.78 211.098C300.449 211.617 301.286 211.897 302.148 211.89C302.629 211.885 303.105 211.789 303.547 211.607C303.99 211.425 304.39 211.162 304.725 210.831L305.533 210.044L311.316 204.377L311.509 204.187L346.276 170.113C347.658 168.759 348.42 166.935 348.396 165.043C348.371 163.152 347.561 161.347 346.144 160.026Z" fill="#DC8900"/>
<path d="M360.459 107.729C361.533 105.559 360.432 103.242 358.547 101.857C356.17 100.111 353.097 100.399 350.395 101.226C347.436 102.131 344.543 103.759 341.347 103.665C340.207 103.646 339.101 103.298 338.172 102.667C337.243 102.037 336.535 101.153 336.14 100.131C334.428 95.9353 336.362 91.2458 339.342 88.0638C341.024 86.2416 343.104 84.7935 345.434 83.8214C347.765 82.8493 350.29 82.3767 352.832 82.4369C355.734 82.5745 358.555 83.396 361.044 84.8283C363.533 86.2606 365.612 88.2592 367.097 90.6458C367.202 90.8088 367.369 90.9268 367.564 90.9754C367.758 91.024 367.964 90.9996 368.14 90.9072C370.402 89.9408 372.841 89.4126 375.318 89.3531C377.795 89.2935 380.26 89.7038 382.57 90.5603C386.035 91.9102 388.989 94.2355 391.038 97.2275C393.088 100.22 394.137 103.737 394.045 107.312C394.02 108.25 395.545 108.249 395.57 107.312C395.665 102.314 393.735 97.474 390.183 93.8042C388.38 91.9744 386.211 90.5086 383.805 89.4936C381.398 88.4786 378.803 87.935 376.174 87.8948C373.138 87.8331 370.127 88.433 367.37 89.6491L368.413 89.9105C367.039 87.6999 365.193 85.7907 362.995 84.3072C360.797 82.8238 358.297 81.7993 355.658 81.3006C353.044 80.8346 350.356 80.9112 347.776 81.5252C345.195 82.1392 342.784 83.2763 340.704 84.8594C336.79 87.7866 333.824 92.329 334.008 97.2005C334.088 99.3085 334.744 101.472 336.275 103.043C338.237 105.055 341.165 105.403 343.871 104.888C347.467 104.203 350.75 101.943 354.498 102.012C355.233 102.013 355.959 102.162 356.628 102.45C357.298 102.739 357.895 103.16 358.382 103.685C359.208 104.576 359.706 105.857 359.143 106.993C358.726 107.836 360.04 108.577 360.459 107.729Z" fill="#2F2E41"/>
<path d="M122.004 276.515C103.912 276.516 87.0924 275.922 72.0351 274.725C52.3537 273.16 36.7577 270.644 25.6807 267.248C13.9529 263.651 7.73096 259.153 7.18776 253.878C6.12915 243.603 27.1778 234.1 45.0219 227.938L45.54 229.308C21.0356 237.77 7.95406 246.445 8.70495 253.736C9.66132 263.021 32.7903 270.142 72.1614 273.273C112.476 276.479 165.529 275.343 221.549 270.073C277.57 264.804 329.837 256.034 368.724 245.379C406.7 234.973 427.933 223.679 426.977 214.394C426.183 206.685 410.103 200.41 381.699 196.726L381.904 195.282C402.542 197.959 427.379 203.423 428.494 214.251C429.037 219.526 423.852 225.097 413.083 230.809C402.912 236.205 388.128 241.578 369.144 246.779C330.172 257.458 277.808 266.245 221.699 271.523C186.5 274.833 152.457 276.515 122.004 276.515Z" fill="#DC8900"/>
<path d="M426.115 219.503C431.022 219.503 435 215.702 435 211.012C435 206.323 431.022 202.522 426.115 202.522C421.208 202.522 417.23 206.323 417.23 211.012C417.23 215.702 421.208 219.503 426.115 219.503Z" fill="#8B0000"/>
<path d="M168.451 16.9818C173.358 16.9818 177.336 13.1803 177.336 8.49088C177.336 3.80149 173.358 0 168.451 0C163.544 0 159.566 3.80149 159.566 8.49088C159.566 13.1803 163.544 16.9818 168.451 16.9818Z" fill="#E6E6E6"/>
<path d="M9.88805 219.018C14.7952 219.018 18.7732 215.216 18.7732 210.527C18.7732 205.837 14.7952 202.036 9.88805 202.036C4.98093 202.036 1.00293 205.837 1.00293 210.527C1.00293 215.216 4.98093 219.018 9.88805 219.018Z" fill="#E6E6E6"/>
<path d="M64.7751 57.884C67.779 57.884 70.2142 55.5569 70.2142 52.6862C70.2142 49.8156 67.779 47.4885 64.7751 47.4885C61.7712 47.4885 59.3361 49.8156 59.3361 52.6862C59.3361 55.5569 61.7712 57.884 64.7751 57.884Z" fill="#FF6584"/>
<path d="M39.3644 255.063C42.3683 255.063 44.8035 252.736 44.8035 249.866C44.8035 246.995 42.3683 244.668 39.3644 244.668C36.3605 244.668 33.9254 246.995 33.9254 249.866C33.9254 252.736 36.3605 255.063 39.3644 255.063Z" fill="#FF6584"/>
<path d="M410.36 170.072C413.364 170.072 415.799 167.745 415.799 164.874C415.799 162.004 413.364 159.677 410.36 159.677C407.356 159.677 404.921 162.004 404.921 164.874C404.921 167.745 407.356 170.072 410.36 170.072Z" fill="#FF6584"/>
<path d="M328.03 299.152C332.937 299.152 336.915 295.351 336.915 290.661C336.915 285.972 332.937 282.17 328.03 282.17C323.122 282.17 319.144 285.972 319.144 290.661C319.144 295.351 323.122 299.152 328.03 299.152Z" fill="#E6E6E6"/>
</g>
<path d="M22.5494 107C22.5494 106.667 22.576 106.4 22.6294 106.2C22.696 105.987 22.776 105.867 22.8694 105.84L24.3094 105.34L23.9294 105.8V95.44L24.3094 95.9L22.5494 95.46C22.5494 95.2067 22.576 94.9867 22.6294 94.8C22.6827 94.6 22.776 94.3933 22.9094 94.18H29.5294C30.5294 94.18 31.396 94.3467 32.1294 94.68C32.876 95 33.4894 95.44 33.9694 96C34.4627 96.5467 34.8227 97.1733 35.0494 97.88C35.2894 98.5867 35.4094 99.3267 35.4094 100.1C35.4094 100.94 35.2694 101.773 34.9894 102.6C34.7094 103.413 34.3027 104.153 33.7694 104.82C33.236 105.473 32.5827 106 31.8094 106.4C31.0494 106.8 30.176 107 29.1894 107H22.5494ZM28.8294 105.4C29.4027 105.4 29.896 105.273 30.3094 105.02C30.736 104.753 31.0827 104.4 31.3494 103.96C31.6294 103.507 31.836 102.987 31.9694 102.4C32.1027 101.8 32.1694 101.167 32.1694 100.5C32.1694 99.66 32.0427 98.88 31.7894 98.16C31.536 97.4267 31.1627 96.8467 30.6694 96.42C30.1894 95.98 29.5827 95.76 28.8494 95.76C28.4094 95.76 27.9894 95.8 27.5894 95.88C27.1894 95.9467 26.8627 96.0467 26.6094 96.18L26.9894 95.8V105.3L26.7894 105.02C27.0694 105.167 27.3894 105.267 27.7494 105.32C28.1094 105.373 28.4694 105.4 28.8294 105.4ZM37.8216 107C37.8216 106.293 37.9282 105.907 38.1416 105.84L39.4416 105.32L39.2216 105.64V99.28L39.4616 99.58L38.1416 99.24C37.9282 99.1867 37.8216 98.8067 37.8216 98.1C38.3682 98.02 38.8882 97.9533 39.3816 97.9C39.8882 97.8467 40.4282 97.82 41.0016 97.82C41.8149 97.82 42.2216 98.2667 42.2216 99.16V105.56L41.9816 105.28L43.7816 105.72C43.7816 105.987 43.7482 106.213 43.6816 106.4C43.6282 106.587 43.5282 106.787 43.3816 107H37.8216ZM40.6216 96.26C40.1016 96.26 39.7016 96.1133 39.4216 95.82C39.1549 95.5267 39.0216 95.1467 39.0216 94.68C39.0216 94.2133 39.1816 93.8333 39.5016 93.54C39.8349 93.2333 40.2082 93.08 40.6216 93.08C41.1549 93.08 41.5616 93.2267 41.8416 93.52C42.1216 93.8133 42.2616 94.2 42.2616 94.68C42.2616 95.1333 42.0949 95.5133 41.7616 95.82C41.4282 96.1133 41.0482 96.26 40.6216 96.26ZM49.7523 107.24C48.5923 107.24 47.6523 107.04 46.9323 106.64C46.2123 106.227 45.8523 105.707 45.8523 105.08C45.8523 104.707 45.979 104.413 46.2323 104.2C46.4857 103.987 46.8057 103.88 47.1923 103.88C47.659 103.88 48.0523 104 48.3723 104.24C48.3723 104.907 48.4923 105.407 48.7323 105.74C48.9857 106.06 49.379 106.22 49.9123 106.22C50.3257 106.22 50.659 106.12 50.9123 105.92C51.1657 105.72 51.2923 105.447 51.2923 105.1C51.2923 104.82 51.199 104.587 51.0123 104.4C50.8257 104.213 50.579 104.053 50.2723 103.92C49.979 103.787 49.6523 103.66 49.2923 103.54C48.839 103.38 48.3723 103.193 47.8923 102.98C47.4257 102.753 47.0323 102.453 46.7123 102.08C46.4057 101.693 46.2523 101.193 46.2523 100.58C46.2523 99.7 46.6057 99.0133 47.3123 98.52C48.019 98.0133 48.9923 97.76 50.2323 97.76C50.939 97.76 51.5523 97.84 52.0723 98C52.6057 98.1467 53.019 98.3667 53.3123 98.66C53.619 98.94 53.7723 99.2733 53.7723 99.66C53.7723 100.007 53.6457 100.287 53.3923 100.5C53.139 100.713 52.8123 100.82 52.4123 100.82C52.0123 100.82 51.679 100.7 51.4123 100.46C51.4123 99.9133 51.2857 99.5 51.0323 99.22C50.7923 98.9267 50.439 98.78 49.9723 98.78C49.6257 98.78 49.3457 98.86 49.1323 99.02C48.9323 99.18 48.8323 99.4 48.8323 99.68C48.8323 99.9467 48.9257 100.167 49.1123 100.34C49.299 100.513 49.539 100.66 49.8323 100.78C50.139 100.9 50.4723 101.027 50.8323 101.16C51.3257 101.32 51.819 101.52 52.3123 101.76C52.819 101.987 53.239 102.293 53.5723 102.68C53.9057 103.053 54.0723 103.567 54.0723 104.22C54.0723 104.847 53.8923 105.387 53.5323 105.84C53.1857 106.293 52.6857 106.64 52.0323 106.88C51.3923 107.12 50.6323 107.24 49.7523 107.24ZM61.1413 107.24C60.2079 107.24 59.3879 107.053 58.6813 106.68C57.9879 106.307 57.4479 105.787 57.0613 105.12C56.6746 104.44 56.4813 103.653 56.4813 102.76C56.4813 101.787 56.7013 100.927 57.1413 100.18C57.5813 99.42 58.1813 98.8267 58.9413 98.4C59.7146 97.9733 60.5879 97.76 61.5613 97.76C62.2813 97.76 62.9346 97.8733 63.5213 98.1C64.1079 98.3267 64.5679 98.6333 64.9013 99.02C65.2479 99.3933 65.4213 99.8067 65.4213 100.26C65.4213 100.62 65.2946 100.907 65.0413 101.12C64.8013 101.32 64.4613 101.42 64.0213 101.42C63.8346 101.42 63.6546 101.393 63.4813 101.34C63.3079 101.287 63.1413 101.207 62.9813 101.1C62.9813 100.367 62.8546 99.8067 62.6013 99.42C62.3479 99.0333 61.9813 98.84 61.5013 98.84C60.9146 98.84 60.4546 99.12 60.1213 99.68C59.8013 100.24 59.6413 101.04 59.6413 102.08C59.6413 103.293 59.8613 104.187 60.3013 104.76C60.7546 105.333 61.4413 105.62 62.3613 105.62C62.8413 105.62 63.3079 105.54 63.7613 105.38C64.2146 105.22 64.6879 104.973 65.1813 104.64L65.5213 105.46C65.2146 105.807 64.8279 106.12 64.3613 106.4C63.8946 106.667 63.3813 106.873 62.8213 107.02C62.2613 107.167 61.7013 107.24 61.1413 107.24ZM72.2756 107.24C70.849 107.24 69.729 106.86 68.9156 106.1C68.1156 105.327 67.7156 104.273 67.7156 102.94C67.7156 101.927 67.9423 101.033 68.3956 100.26C68.849 99.4733 69.4823 98.86 70.2956 98.42C71.109 97.98 72.049 97.76 73.1156 97.76C74.0623 97.76 74.8823 97.94 75.5756 98.3C76.2823 98.66 76.829 99.1667 77.2156 99.82C77.6023 100.473 77.7956 101.247 77.7956 102.14C77.7956 103.127 77.5623 104.007 77.0956 104.78C76.629 105.553 75.9756 106.16 75.1356 106.6C74.309 107.027 73.3556 107.24 72.2756 107.24ZM72.7756 106.16C73.3756 106.16 73.8356 105.86 74.1556 105.26C74.4756 104.647 74.6356 103.78 74.6356 102.66C74.6356 101.46 74.4623 100.527 74.1156 99.86C73.7823 99.18 73.309 98.84 72.6956 98.84C72.1223 98.84 71.6756 99.1467 71.3556 99.76C71.0356 100.373 70.8756 101.253 70.8756 102.4C70.8756 103.613 71.0356 104.547 71.3556 105.2C71.689 105.84 72.1623 106.16 72.7756 106.16ZM84.3284 107.22C84.1551 107.22 83.9618 107.2 83.7484 107.16C83.5484 107.12 83.3818 107.073 83.2484 107.02L80.2284 99.46L80.7284 99.84L79.2084 99.42C79.2084 99.14 79.2351 98.9067 79.2884 98.72C79.3551 98.5333 79.4551 98.34 79.5884 98.14H84.4484C84.4484 98.9 84.3418 99.3133 84.1284 99.38L82.8684 99.8L83.2284 99.34L85.4084 104.86H84.6284L86.7684 99.38L86.9284 99.78L85.6284 99.42C85.6284 99.0333 85.6551 98.7533 85.7084 98.58C85.7618 98.4067 85.8618 98.26 86.0084 98.14H89.3884C89.3884 98.5133 89.3618 98.7933 89.3084 98.98C89.2551 99.1533 89.1751 99.26 89.0684 99.3L87.9284 99.76L88.3884 99.34L85.6284 106.42C85.4284 106.953 84.9951 107.22 84.3284 107.22ZM95.4098 107.24C94.5032 107.24 93.6965 107.053 92.9898 106.68C92.2965 106.293 91.7565 105.767 91.3698 105.1C90.9832 104.42 90.7898 103.64 90.7898 102.76C90.7898 101.813 91.0098 100.96 91.4498 100.2C91.8898 99.44 92.4832 98.8467 93.2298 98.42C93.9898 97.98 94.8365 97.76 95.7698 97.76C96.5832 97.76 97.2898 97.9267 97.8898 98.26C98.4898 98.5933 98.9498 99.06 99.2698 99.66C99.6032 100.247 99.7698 100.947 99.7698 101.76C99.7698 102.12 99.7232 102.36 99.6298 102.48C99.5365 102.587 99.3698 102.64 99.1298 102.64H92.9298V101.54L97.2898 101.42L97.0498 101.76C97.0632 101.133 97.0098 100.6 96.8898 100.16C96.7832 99.72 96.6232 99.3933 96.4098 99.18C96.1965 98.9533 95.9298 98.84 95.6098 98.84C95.1298 98.84 94.7365 99.1133 94.4298 99.66C94.1232 100.193 93.9698 100.94 93.9698 101.9C93.9698 102.7 94.0832 103.38 94.3098 103.94C94.5365 104.487 94.8698 104.907 95.3098 105.2C95.7498 105.48 96.2898 105.62 96.9298 105.62C97.3832 105.62 97.8165 105.533 98.2298 105.36C98.6432 105.187 99.0632 104.913 99.4898 104.54L99.8298 105.38C99.5232 105.74 99.1298 106.067 98.6498 106.36C98.1832 106.64 97.6698 106.853 97.1098 107C96.5632 107.16 95.9965 107.24 95.4098 107.24ZM102.298 107C102.298 106.307 102.405 105.92 102.618 105.84L103.758 105.32L103.538 105.66V99.44L103.778 99.76L102.618 99.42C102.525 99.3933 102.445 99.28 102.378 99.08C102.325 98.88 102.298 98.6133 102.298 98.28C103.031 98.16 103.591 98.08 103.978 98.04C104.365 98 104.691 97.98 104.958 97.98C105.491 97.98 105.858 98.0867 106.058 98.3C106.271 98.5 106.378 98.8733 106.378 99.42V100.02L106.138 99.78H106.498C106.791 99.1667 107.171 98.68 107.638 98.32C108.105 97.9467 108.585 97.76 109.078 97.76C109.665 97.76 110.098 97.8933 110.378 98.16C110.671 98.4267 110.818 98.8067 110.818 99.3C110.818 99.6867 110.678 100.02 110.398 100.3C110.131 100.58 109.805 100.72 109.418 100.72C109.258 100.4 109.085 100.18 108.898 100.06C108.711 99.9267 108.485 99.86 108.218 99.86C107.925 99.86 107.605 99.9667 107.258 100.18C106.911 100.393 106.618 100.673 106.378 101.02L106.538 100.48V105.72L106.238 105.24L108.118 105.72C108.118 105.987 108.091 106.213 108.038 106.4C107.985 106.587 107.885 106.787 107.738 107H102.298ZM118.597 112.4C118.143 112.4 117.77 112.28 117.477 112.04C117.183 111.8 117.037 111.473 117.037 111.06C117.037 110.927 117.057 110.767 117.097 110.58C117.15 110.393 117.223 110.233 117.317 110.1H117.677C118.33 110.1 118.863 110.047 119.277 109.94C119.703 109.833 120.05 109.66 120.317 109.42C120.597 109.193 120.837 108.873 121.037 108.46C121.237 108.06 121.437 107.56 121.637 106.96L121.577 108.22L118.077 99.46L118.577 99.84L117.057 99.42C117.057 99.14 117.083 98.9067 117.137 98.72C117.203 98.5333 117.31 98.34 117.457 98.14H122.297C122.297 98.8867 122.19 99.3 121.977 99.38L120.717 99.8L121.097 99.34L123.277 104.84L122.477 104.86L124.617 99.38L124.777 99.78L123.497 99.42C123.497 99.0333 123.517 98.7533 123.557 98.58C123.61 98.4067 123.71 98.26 123.857 98.14H127.237C127.237 98.5133 127.21 98.7933 127.157 98.98C127.103 99.1533 127.023 99.26 126.917 99.3L125.777 99.76L126.237 99.34L123.077 107.48C122.517 108.973 121.85 110.167 121.077 111.06C120.303 111.953 119.477 112.4 118.597 112.4ZM133.041 107.24C131.615 107.24 130.495 106.86 129.681 106.1C128.881 105.327 128.481 104.273 128.481 102.94C128.481 101.927 128.708 101.033 129.161 100.26C129.615 99.4733 130.248 98.86 131.061 98.42C131.875 97.98 132.815 97.76 133.881 97.76C134.828 97.76 135.648 97.94 136.341 98.3C137.048 98.66 137.595 99.1667 137.981 99.82C138.368 100.473 138.561 101.247 138.561 102.14C138.561 103.127 138.328 104.007 137.861 104.78C137.395 105.553 136.741 106.16 135.901 106.6C135.075 107.027 134.121 107.24 133.041 107.24ZM133.541 106.16C134.141 106.16 134.601 105.86 134.921 105.26C135.241 104.647 135.401 103.78 135.401 102.66C135.401 101.46 135.228 100.527 134.881 99.86C134.548 99.18 134.075 98.84 133.461 98.84C132.888 98.84 132.441 99.1467 132.121 99.76C131.801 100.373 131.641 101.253 131.641 102.4C131.641 103.613 131.801 104.547 132.121 105.2C132.455 105.84 132.928 106.16 133.541 106.16ZM144.126 107.24C143.392 107.24 142.832 106.993 142.446 106.5C142.059 105.993 141.866 105.22 141.866 104.18V99.48L142.246 99.78L140.926 99.44C140.832 99.4267 140.759 99.32 140.706 99.12C140.652 98.92 140.626 98.6533 140.626 98.32C141.306 98.2133 141.846 98.14 142.246 98.1C142.659 98.0467 142.992 98.02 143.246 98.02C143.806 98.02 144.212 98.1267 144.466 98.34C144.719 98.54 144.846 98.8733 144.846 99.34V103.78C144.846 104.273 144.946 104.647 145.146 104.9C145.346 105.14 145.639 105.26 146.026 105.26C146.359 105.26 146.659 105.193 146.926 105.06C147.192 104.927 147.426 104.767 147.626 104.58C147.826 104.393 147.979 104.227 148.086 104.08L147.786 104.68V99.48L148.186 99.78L146.866 99.44C146.772 99.4267 146.692 99.32 146.626 99.12C146.572 98.92 146.546 98.6533 146.546 98.32C147.226 98.2133 147.772 98.14 148.186 98.1C148.599 98.0467 148.932 98.02 149.186 98.02C149.732 98.02 150.132 98.1267 150.386 98.34C150.652 98.54 150.786 98.8733 150.786 99.34V104.9C150.786 105.14 150.832 105.32 150.926 105.44C151.019 105.547 151.166 105.6 151.366 105.6C151.486 105.6 151.612 105.58 151.746 105.54C151.892 105.487 152.012 105.433 152.106 105.38L152.326 106.26C152.006 106.553 151.612 106.793 151.146 106.98C150.692 107.153 150.246 107.24 149.806 107.24C149.259 107.24 148.812 107.087 148.466 106.78C148.132 106.473 147.966 106.047 147.966 105.5H147.826C146.599 106.66 145.366 107.24 144.126 107.24ZM154.447 107C154.447 106.307 154.553 105.92 154.767 105.84L155.907 105.32L155.687 105.66V99.44L155.927 99.76L154.767 99.42C154.673 99.3933 154.593 99.28 154.527 99.08C154.473 98.88 154.447 98.6133 154.447 98.28C155.18 98.16 155.74 98.08 156.127 98.04C156.513 98 156.84 97.98 157.107 97.98C157.64 97.98 158.007 98.0867 158.207 98.3C158.42 98.5 158.527 98.8733 158.527 99.42V100.02L158.287 99.78H158.647C158.94 99.1667 159.32 98.68 159.787 98.32C160.253 97.9467 160.733 97.76 161.227 97.76C161.813 97.76 162.247 97.8933 162.527 98.16C162.82 98.4267 162.967 98.8067 162.967 99.3C162.967 99.6867 162.827 100.02 162.547 100.3C162.28 100.58 161.953 100.72 161.567 100.72C161.407 100.4 161.233 100.18 161.047 100.06C160.86 99.9267 160.633 99.86 160.367 99.86C160.073 99.86 159.753 99.9667 159.407 100.18C159.06 100.393 158.767 100.673 158.527 101.02L158.687 100.48V105.72L158.387 105.24L160.267 105.72C160.267 105.987 160.24 106.213 160.187 106.4C160.133 106.587 160.033 106.787 159.887 107H154.447ZM169.845 107C169.845 106.307 169.952 105.92 170.165 105.84L171.305 105.32L171.085 105.66V99.44L171.325 99.76L170.165 99.42C169.952 99.3533 169.845 98.9733 169.845 98.28C170.552 98.1733 171.105 98.1 171.505 98.06C171.905 98.0067 172.238 97.98 172.505 97.98C172.998 97.98 173.358 98.0867 173.585 98.3C173.812 98.5 173.925 98.84 173.925 99.32V99.66L173.825 99.62H174.085C174.698 99.0333 175.338 98.58 176.005 98.26C176.672 97.9267 177.305 97.76 177.905 97.76C179.438 97.76 180.205 98.7867 180.205 100.84V105.56L179.985 105.26L181.445 105.72C181.445 105.987 181.418 106.213 181.365 106.4C181.312 106.587 181.212 106.787 181.065 107H176.305C176.305 106.307 176.412 105.92 176.625 105.84L177.425 105.5L177.225 105.84V101.26C177.225 100.273 176.865 99.78 176.145 99.78C175.812 99.78 175.498 99.8467 175.205 99.98C174.925 100.1 174.678 100.247 174.465 100.42C174.252 100.593 174.092 100.747 173.985 100.88L174.085 100.54V105.72L173.845 105.42L175.025 105.72C175.025 105.987 174.992 106.213 174.925 106.4C174.872 106.587 174.772 106.787 174.625 107H169.845ZM188.258 107.24C187.351 107.24 186.544 107.053 185.838 106.68C185.144 106.293 184.604 105.767 184.218 105.1C183.831 104.42 183.638 103.64 183.638 102.76C183.638 101.813 183.858 100.96 184.298 100.2C184.738 99.44 185.331 98.8467 186.078 98.42C186.838 97.98 187.684 97.76 188.618 97.76C189.431 97.76 190.138 97.9267 190.738 98.26C191.338 98.5933 191.798 99.06 192.118 99.66C192.451 100.247 192.618 100.947 192.618 101.76C192.618 102.12 192.571 102.36 192.478 102.48C192.384 102.587 192.218 102.64 191.978 102.64H185.778V101.54L190.138 101.42L189.898 101.76C189.911 101.133 189.858 100.6 189.738 100.16C189.631 99.72 189.471 99.3933 189.258 99.18C189.044 98.9533 188.778 98.84 188.458 98.84C187.978 98.84 187.584 99.1133 187.278 99.66C186.971 100.193 186.818 100.94 186.818 101.9C186.818 102.7 186.931 103.38 187.158 103.94C187.384 104.487 187.718 104.907 188.158 105.2C188.598 105.48 189.138 105.62 189.778 105.62C190.231 105.62 190.664 105.533 191.078 105.36C191.491 105.187 191.911 104.913 192.338 104.54L192.678 105.38C192.371 105.74 191.978 106.067 191.498 106.36C191.031 106.64 190.518 106.853 189.958 107C189.411 107.16 188.844 107.24 188.258 107.24ZM199.166 107.22C198.992 107.22 198.799 107.2 198.586 107.16C198.386 107.12 198.212 107.073 198.066 107.02L195.506 99.46L196.006 99.84L194.486 99.42C194.486 99.14 194.512 98.9067 194.566 98.72C194.632 98.5333 194.732 98.34 194.866 98.14H199.726C199.726 98.9 199.619 99.3133 199.406 99.38L198.146 99.8L198.466 99.34L200.286 104.86H199.506L201.606 98.9H203.106L205.486 104.86H204.846L206.546 99.38L206.706 99.78L205.406 99.42C205.406 99.0333 205.432 98.7533 205.486 98.58C205.539 98.4067 205.639 98.26 205.786 98.14H209.166C209.166 98.5133 209.139 98.7933 209.086 98.98C209.032 99.1533 208.952 99.26 208.846 99.3L207.706 99.76L208.166 99.34L205.866 106.42C205.679 106.953 205.246 107.22 204.566 107.22C204.392 107.22 204.199 107.2 203.986 107.16C203.786 107.12 203.612 107.073 203.466 107.02L201.346 101.74H202.106L200.466 106.42C200.279 106.953 199.846 107.22 199.166 107.22ZM219.627 107.24C218.787 107.24 218.167 106.967 217.767 106.42C217.367 105.873 217.167 105.133 217.167 104.2V96.58C217.394 96.4333 217.674 96.2933 218.007 96.16C218.341 96.0267 218.694 95.9133 219.067 95.82C219.454 95.7133 219.821 95.6467 220.167 95.62V103.76C220.167 104.267 220.247 104.647 220.407 104.9C220.581 105.153 220.867 105.28 221.267 105.28C221.494 105.28 221.741 105.24 222.007 105.16C222.274 105.08 222.541 104.947 222.807 104.76L223.247 105.62C223.047 105.9 222.761 106.167 222.387 106.42C222.014 106.66 221.587 106.853 221.107 107C220.627 107.16 220.134 107.24 219.627 107.24ZM222.127 99.7L215.907 99.52C215.907 99.2267 215.941 98.9467 216.007 98.68C216.074 98.4133 216.167 98.24 216.287 98.16L222.627 97.82C222.667 97.9 222.694 97.9867 222.707 98.08C222.734 98.16 222.747 98.2467 222.747 98.34C222.747 98.6867 222.694 98.9867 222.587 99.24C222.481 99.48 222.327 99.6333 222.127 99.7ZM229.307 107.24C227.88 107.24 226.76 106.86 225.947 106.1C225.147 105.327 224.747 104.273 224.747 102.94C224.747 101.927 224.974 101.033 225.427 100.26C225.88 99.4733 226.514 98.86 227.327 98.42C228.14 97.98 229.08 97.76 230.147 97.76C231.094 97.76 231.914 97.94 232.607 98.3C233.314 98.66 233.86 99.1667 234.247 99.82C234.634 100.473 234.827 101.247 234.827 102.14C234.827 103.127 234.594 104.007 234.127 104.78C233.66 105.553 233.007 106.16 232.167 106.6C231.34 107.027 230.387 107.24 229.307 107.24ZM229.807 106.16C230.407 106.16 230.867 105.86 231.187 105.26C231.507 104.647 231.667 103.78 231.667 102.66C231.667 101.46 231.494 100.527 231.147 99.86C230.814 99.18 230.34 98.84 229.727 98.84C229.154 98.84 228.707 99.1467 228.387 99.76C228.067 100.373 227.907 101.253 227.907 102.4C227.907 103.613 228.067 104.547 228.387 105.2C228.72 105.84 229.194 106.16 229.807 106.16ZM246.908 112.4C245.575 112.4 244.508 112.153 243.708 111.66C242.921 111.167 242.528 110.507 242.528 109.68C242.528 108.84 243.001 108.42 243.948 108.42C244.175 108.42 244.408 108.44 244.648 108.48C244.888 108.533 245.121 108.607 245.348 108.7C245.348 109.593 245.521 110.26 245.868 110.7C246.215 111.153 246.741 111.38 247.448 111.38C248.048 111.38 248.521 111.227 248.868 110.92C249.228 110.627 249.408 110.233 249.408 109.74C249.408 109.367 249.321 109.073 249.148 108.86C248.988 108.647 248.701 108.48 248.288 108.36C247.888 108.24 247.321 108.147 246.588 108.08C245.521 107.973 244.768 107.8 244.328 107.56C243.901 107.32 243.688 106.953 243.688 106.46C243.688 105.967 243.875 105.507 244.248 105.08C244.621 104.653 245.135 104.32 245.788 104.08L246.188 104.32C246.068 104.453 245.975 104.587 245.908 104.72C245.855 104.853 245.828 104.993 245.828 105.14C245.828 105.3 245.875 105.427 245.968 105.52C246.061 105.613 246.241 105.693 246.508 105.76C246.788 105.813 247.195 105.867 247.728 105.92C249.155 106.053 250.208 106.36 250.888 106.84C251.581 107.307 251.928 107.98 251.928 108.86C251.928 109.58 251.721 110.207 251.308 110.74C250.895 111.273 250.315 111.68 249.568 111.96C248.821 112.253 247.935 112.4 246.908 112.4ZM246.508 104.66C245.308 104.66 244.361 104.38 243.668 103.82C242.975 103.247 242.628 102.46 242.628 101.46C242.628 100.727 242.815 100.087 243.188 99.54C243.575 98.98 244.108 98.5467 244.788 98.24C245.468 97.92 246.255 97.76 247.148 97.76C247.975 97.76 248.688 97.9 249.288 98.18C249.888 98.4467 250.355 98.8267 250.688 99.32C251.021 99.8 251.188 100.367 251.188 101.02C251.188 101.727 250.988 102.353 250.588 102.9C250.188 103.447 249.635 103.88 248.928 104.2C248.235 104.507 247.428 104.66 246.508 104.66ZM246.948 103.56C247.361 103.56 247.688 103.373 247.928 103C248.168 102.613 248.288 102.073 248.288 101.38C248.288 100.58 248.161 99.96 247.908 99.52C247.655 99.08 247.295 98.86 246.828 98.86C246.428 98.86 246.108 99.06 245.868 99.46C245.641 99.8467 245.528 100.387 245.528 101.08C245.528 101.893 245.648 102.513 245.888 102.94C246.128 103.353 246.481 103.56 246.948 103.56ZM250.888 99.16C250.701 99.16 250.468 99.1533 250.188 99.14C249.921 99.1133 249.655 99.08 249.388 99.04C249.135 98.9867 248.928 98.94 248.768 98.9L248.548 98.38L251.788 97.2C251.881 97.36 251.955 97.5467 252.008 97.76C252.075 97.96 252.108 98.14 252.108 98.3C252.108 98.8733 251.701 99.16 250.888 99.16ZM258.166 107.24C256.74 107.24 255.62 106.86 254.806 106.1C254.006 105.327 253.606 104.273 253.606 102.94C253.606 101.927 253.833 101.033 254.286 100.26C254.74 99.4733 255.373 98.86 256.186 98.42C257 97.98 257.94 97.76 259.006 97.76C259.953 97.76 260.773 97.94 261.466 98.3C262.173 98.66 262.72 99.1667 263.106 99.82C263.493 100.473 263.686 101.247 263.686 102.14C263.686 103.127 263.453 104.007 262.986 104.78C262.52 105.553 261.866 106.16 261.026 106.6C260.2 107.027 259.246 107.24 258.166 107.24ZM258.666 106.16C259.266 106.16 259.726 105.86 260.046 105.26C260.366 104.647 260.526 103.78 260.526 102.66C260.526 101.46 260.353 100.527 260.006 99.86C259.673 99.18 259.2 98.84 258.586 98.84C258.013 98.84 257.566 99.1467 257.246 99.76C256.926 100.373 256.766 101.253 256.766 102.4C256.766 103.613 256.926 104.547 257.246 105.2C257.58 105.84 258.053 106.16 258.666 106.16ZM14.682 130.24C13.522 130.24 12.582 130.04 11.862 129.64C11.142 129.227 10.782 128.707 10.782 128.08C10.782 127.707 10.9087 127.413 11.162 127.2C11.4154 126.987 11.7354 126.88 12.122 126.88C12.5887 126.88 12.982 127 13.302 127.24C13.302 127.907 13.422 128.407 13.662 128.74C13.9154 129.06 14.3087 129.22 14.842 129.22C15.2554 129.22 15.5887 129.12 15.842 128.92C16.0954 128.72 16.222 128.447 16.222 128.1C16.222 127.82 16.1287 127.587 15.942 127.4C15.7554 127.213 15.5087 127.053 15.202 126.92C14.9087 126.787 14.582 126.66 14.222 126.54C13.7687 126.38 13.302 126.193 12.822 125.98C12.3554 125.753 11.962 125.453 11.642 125.08C11.3354 124.693 11.182 124.193 11.182 123.58C11.182 122.7 11.5354 122.013 12.242 121.52C12.9487 121.013 13.922 120.76 15.162 120.76C15.8687 120.76 16.482 120.84 17.002 121C17.5354 121.147 17.9487 121.367 18.242 121.66C18.5487 121.94 18.702 122.273 18.702 122.66C18.702 123.007 18.5754 123.287 18.322 123.5C18.0687 123.713 17.742 123.82 17.342 123.82C16.942 123.82 16.6087 123.7 16.342 123.46C16.342 122.913 16.2154 122.5 15.962 122.22C15.722 121.927 15.3687 121.78 14.902 121.78C14.5554 121.78 14.2754 121.86 14.062 122.02C13.862 122.18 13.762 122.4 13.762 122.68C13.762 122.947 13.8554 123.167 14.042 123.34C14.2287 123.513 14.4687 123.66 14.762 123.78C15.0687 123.9 15.402 124.027 15.762 124.16C16.2554 124.32 16.7487 124.52 17.242 124.76C17.7487 124.987 18.1687 125.293 18.502 125.68C18.8354 126.053 19.002 126.567 19.002 127.22C19.002 127.847 18.822 128.387 18.462 128.84C18.1154 129.293 17.6154 129.64 16.962 129.88C16.322 130.12 15.562 130.24 14.682 130.24ZM21.1909 134.9C21.1909 134.22 21.2976 133.833 21.5109 133.74L22.6509 133.24L22.4309 133.58V122.44L22.6509 122.76L21.4909 122.42C21.2909 122.353 21.1909 121.973 21.1909 121.28C21.8843 121.173 22.4309 121.1 22.8309 121.06C23.2309 121.007 23.5576 120.98 23.8109 120.98C24.3176 120.98 24.6843 121.08 24.9109 121.28C25.1376 121.48 25.2509 121.807 25.2509 122.26V122.66L25.1709 122.6H25.4109C25.7709 122.04 26.2643 121.593 26.8909 121.26C27.5176 120.927 28.1576 120.76 28.8109 120.76C29.4776 120.76 30.0576 120.94 30.5509 121.3C31.0443 121.647 31.4309 122.147 31.7109 122.8C31.9909 123.44 32.1309 124.193 32.1309 125.06C32.1309 126.1 31.9376 127.013 31.5509 127.8C31.1643 128.573 30.6176 129.173 29.9109 129.6C29.2176 130.027 28.3976 130.24 27.4509 130.24C27.0776 130.24 26.6909 130.2 26.2909 130.12C25.9043 130.053 25.5309 129.953 25.1709 129.82L25.4109 129.66V133.48L25.1709 133.2L26.9709 133.64C26.9709 133.893 26.9376 134.113 26.8709 134.3C26.8176 134.5 26.7176 134.7 26.5709 134.9H21.1909ZM26.7509 128.96C27.4843 128.96 28.0309 128.673 28.3909 128.1C28.7643 127.513 28.9509 126.653 28.9509 125.52C28.9509 124.547 28.8043 123.82 28.5109 123.34C28.2309 122.847 27.7976 122.6 27.2109 122.6C26.8776 122.6 26.5776 122.68 26.3109 122.84C26.0576 122.987 25.8309 123.173 25.6309 123.4C25.4443 123.627 25.2643 123.86 25.0909 124.1L25.3509 123.48V128.68L25.0909 128.18C25.3709 128.433 25.6376 128.627 25.8909 128.76C26.1443 128.893 26.4309 128.96 26.7509 128.96ZM39.0998 130.24C37.6732 130.24 36.5532 129.86 35.7398 129.1C34.9398 128.327 34.5398 127.273 34.5398 125.94C34.5398 124.927 34.7665 124.033 35.2198 123.26C35.6732 122.473 36.3065 121.86 37.1198 121.42C37.9332 120.98 38.8732 120.76 39.9398 120.76C40.8865 120.76 41.7065 120.94 42.3998 121.3C43.1065 121.66 43.6532 122.167 44.0398 122.82C44.4265 123.473 44.6198 124.247 44.6198 125.14C44.6198 126.127 44.3865 127.007 43.9198 127.78C43.4532 128.553 42.7998 129.16 41.9598 129.6C41.1332 130.027 40.1798 130.24 39.0998 130.24ZM39.5998 129.16C40.1998 129.16 40.6598 128.86 40.9798 128.26C41.2998 127.647 41.4598 126.78 41.4598 125.66C41.4598 124.46 41.2865 123.527 40.9398 122.86C40.6065 122.18 40.1332 121.84 39.5198 121.84C38.9465 121.84 38.4998 122.147 38.1798 122.76C37.8598 123.373 37.6998 124.253 37.6998 125.4C37.6998 126.613 37.8598 127.547 38.1798 128.2C38.5132 128.84 38.9865 129.16 39.5998 129.16ZM50.4242 130.24C49.5842 130.24 48.9642 129.967 48.5642 129.42C48.1642 128.873 47.9642 128.133 47.9642 127.2V119.58C48.1909 119.433 48.4709 119.293 48.8042 119.16C49.1376 119.027 49.4909 118.913 49.8642 118.82C50.2509 118.713 50.6176 118.647 50.9642 118.62V126.76C50.9642 127.267 51.0442 127.647 51.2042 127.9C51.3776 128.153 51.6642 128.28 52.0642 128.28C52.2909 128.28 52.5376 128.24 52.8042 128.16C53.0709 128.08 53.3376 127.947 53.6042 127.76L54.0442 128.62C53.8442 128.9 53.5576 129.167 53.1842 129.42C52.8109 129.66 52.3842 129.853 51.9042 130C51.4242 130.16 50.9309 130.24 50.4242 130.24ZM52.9242 122.7L46.7042 122.52C46.7042 122.227 46.7376 121.947 46.8042 121.68C46.8709 121.413 46.9642 121.24 47.0842 121.16L53.4242 120.82C53.4642 120.9 53.4909 120.987 53.5042 121.08C53.5309 121.16 53.5442 121.247 53.5442 121.34C53.5442 121.687 53.4909 121.987 53.3842 122.24C53.2776 122.48 53.1242 122.633 52.9242 122.7ZM65.7606 130.24C64.934 130.24 64.1606 130.12 63.4406 129.88C62.734 129.64 62.1606 129.273 61.7206 128.78C61.294 128.273 61.0806 127.633 61.0806 126.86C61.0806 126.18 61.234 125.607 61.5406 125.14C61.8606 124.66 62.2606 124.253 62.7406 123.92C63.234 123.573 63.754 123.253 64.3006 122.96C64.8606 122.667 65.3873 122.373 65.8806 122.08C66.374 121.773 66.774 121.427 67.0806 121.04C67.3873 120.64 67.5406 120.167 67.5406 119.62C67.5406 119.207 67.434 118.853 67.2206 118.56C67.0206 118.253 66.7273 118.1 66.3406 118.1C65.954 118.1 65.6406 118.247 65.4006 118.54C65.1606 118.82 65.0406 119.173 65.0406 119.6C65.0406 120.067 65.1806 120.507 65.4606 120.92C65.754 121.333 66.174 121.853 66.7206 122.48L70.6406 126.94C70.934 127.233 71.2473 127.48 71.5806 127.68C71.9273 127.88 72.3273 128.033 72.7806 128.14C73.2473 128.233 73.8073 128.28 74.4606 128.28C74.4606 128.533 74.3473 128.813 74.1206 129.12C73.9073 129.427 73.594 129.693 73.1806 129.92C72.7806 130.133 72.3073 130.24 71.7606 130.24C71.2406 130.24 70.694 130.12 70.1206 129.88C69.5606 129.64 69.0673 129.26 68.6406 128.74L64.3006 123.78C63.8873 123.3 63.5406 122.847 63.2606 122.42C62.9806 121.98 62.7673 121.56 62.6206 121.16C62.4873 120.747 62.4206 120.347 62.4206 119.96C62.4206 119.013 62.774 118.267 63.4806 117.72C64.2006 117.173 65.1273 116.9 66.2606 116.9C66.9006 116.9 67.4806 116.993 68.0006 117.18C68.5206 117.353 68.934 117.627 69.2406 118C69.5606 118.373 69.7206 118.86 69.7206 119.46C69.7206 120.02 69.5806 120.5 69.3006 120.9C69.034 121.3 68.6806 121.653 68.2406 121.96C67.8006 122.253 67.334 122.533 66.8406 122.8C66.3606 123.067 65.9006 123.353 65.4606 123.66C65.034 123.967 64.6806 124.327 64.4006 124.74C64.1206 125.14 63.9806 125.627 63.9806 126.2C63.9806 126.72 64.0873 127.173 64.3006 127.56C64.5273 127.947 64.834 128.253 65.2206 128.48C65.6206 128.693 66.074 128.8 66.5806 128.8C67.474 128.8 68.2473 128.513 68.9006 127.94C69.554 127.353 70.054 126.527 70.4006 125.46C70.7606 124.38 70.9406 123.113 70.9406 121.66L71.3206 122.56L69.5806 122.46C69.5806 122.113 69.6073 121.82 69.6606 121.58C69.7273 121.327 69.814 121.16 69.9206 121.08L74.7006 120.72C74.7273 120.76 74.7473 120.84 74.7606 120.96C74.774 121.067 74.7806 121.16 74.7806 121.24C74.7806 121.52 74.714 121.807 74.5806 122.1C74.4473 122.38 74.2806 122.587 74.0806 122.72L72.4406 122.62L73.0206 121.76C73.034 123.04 72.8673 124.2 72.5206 125.24C72.1873 126.28 71.7006 127.173 71.0606 127.92C70.4206 128.667 69.654 129.24 68.7606 129.64C67.8673 130.04 66.8673 130.24 65.7606 130.24ZM82.0933 130C82.0933 129.307 82.1999 128.92 82.4133 128.84L83.5533 128.32L83.3333 128.66V116.78L83.5533 117.1L82.3933 116.76C82.1933 116.693 82.0933 116.313 82.0933 115.62C82.7866 115.513 83.3333 115.44 83.7333 115.4C84.1333 115.347 84.4599 115.32 84.7133 115.32C85.2199 115.32 85.5866 115.427 85.8133 115.64C86.0399 115.84 86.1533 116.18 86.1533 116.66V122.82L85.9933 122.62H86.3133C86.9133 122.033 87.5533 121.58 88.2333 121.26C88.9133 120.927 89.5533 120.76 90.1533 120.76C91.6733 120.76 92.4333 121.787 92.4333 123.84V128.56L92.2133 128.26L93.6733 128.72C93.6733 128.987 93.6466 129.213 93.5933 129.4C93.5399 129.587 93.4466 129.787 93.3133 130H88.5133C88.5133 129.307 88.6199 128.92 88.8333 128.84L89.6533 128.5L89.4533 128.84V124.26C89.4533 123.273 89.0866 122.78 88.3533 122.78C88.0466 122.78 87.7466 122.847 87.4533 122.98C87.1733 123.1 86.9266 123.247 86.7133 123.42C86.5133 123.58 86.3599 123.72 86.2533 123.84L86.3133 123.56V128.72L86.0733 128.42L87.2333 128.72C87.2333 128.987 87.2066 129.213 87.1533 129.4C87.0999 129.587 86.9999 129.787 86.8533 130H82.0933ZM100.492 130.24C99.5852 130.24 98.7785 130.053 98.0719 129.68C97.3785 129.293 96.8385 128.767 96.4519 128.1C96.0652 127.42 95.8719 126.64 95.8719 125.76C95.8719 124.813 96.0919 123.96 96.5319 123.2C96.9719 122.44 97.5652 121.847 98.3119 121.42C99.0719 120.98 99.9185 120.76 100.852 120.76C101.665 120.76 102.372 120.927 102.972 121.26C103.572 121.593 104.032 122.06 104.352 122.66C104.685 123.247 104.852 123.947 104.852 124.76C104.852 125.12 104.805 125.36 104.712 125.48C104.619 125.587 104.452 125.64 104.212 125.64H98.0119V124.54L102.372 124.42L102.132 124.76C102.145 124.133 102.092 123.6 101.972 123.16C101.865 122.72 101.705 122.393 101.492 122.18C101.279 121.953 101.012 121.84 100.692 121.84C100.212 121.84 99.8185 122.113 99.5119 122.66C99.2052 123.193 99.0519 123.94 99.0519 124.9C99.0519 125.7 99.1652 126.38 99.3919 126.94C99.6185 127.487 99.9519 127.907 100.392 128.2C100.832 128.48 101.372 128.62 102.012 128.62C102.465 128.62 102.899 128.533 103.312 128.36C103.725 128.187 104.145 127.913 104.572 127.54L104.912 128.38C104.605 128.74 104.212 129.067 103.732 129.36C103.265 129.64 102.752 129.853 102.192 130C101.645 130.16 101.079 130.24 100.492 130.24ZM107.14 130C107.14 129.627 107.167 129.353 107.22 129.18C107.273 128.993 107.353 128.88 107.46 128.84L108.74 128.32L108.52 128.64V116.78L108.76 117.08L107.44 116.76C107.24 116.693 107.14 116.313 107.14 115.62C107.673 115.54 108.187 115.473 108.68 115.42C109.187 115.353 109.72 115.32 110.28 115.32C111.107 115.32 111.52 115.773 111.52 116.68V128.56L111.28 128.28L113.08 128.72C113.08 128.987 113.053 129.213 113 129.4C112.947 129.587 112.847 129.787 112.7 130H107.14ZM114.859 134.9C114.859 134.22 114.966 133.833 115.179 133.74L116.319 133.24L116.099 133.58V122.44L116.319 122.76L115.159 122.42C114.959 122.353 114.859 121.973 114.859 121.28C115.552 121.173 116.099 121.1 116.499 121.06C116.899 121.007 117.226 120.98 117.479 120.98C117.986 120.98 118.352 121.08 118.579 121.28C118.806 121.48 118.919 121.807 118.919 122.26V122.66L118.839 122.6H119.079C119.439 122.04 119.932 121.593 120.559 121.26C121.186 120.927 121.826 120.76 122.479 120.76C123.146 120.76 123.726 120.94 124.219 121.3C124.712 121.647 125.099 122.147 125.379 122.8C125.659 123.44 125.799 124.193 125.799 125.06C125.799 126.1 125.606 127.013 125.219 127.8C124.832 128.573 124.286 129.173 123.579 129.6C122.886 130.027 122.066 130.24 121.119 130.24C120.746 130.24 120.359 130.2 119.959 130.12C119.572 130.053 119.199 129.953 118.839 129.82L119.079 129.66V133.48L118.839 133.2L120.639 133.64C120.639 133.893 120.606 134.113 120.539 134.3C120.486 134.5 120.386 134.7 120.239 134.9H114.859ZM120.419 128.96C121.152 128.96 121.699 128.673 122.059 128.1C122.432 127.513 122.619 126.653 122.619 125.52C122.619 124.547 122.472 123.82 122.179 123.34C121.899 122.847 121.466 122.6 120.879 122.6C120.546 122.6 120.246 122.68 119.979 122.84C119.726 122.987 119.499 123.173 119.299 123.4C119.112 123.627 118.932 123.86 118.759 124.1L119.019 123.48V128.68L118.759 128.18C119.039 128.433 119.306 128.627 119.559 128.76C119.812 128.893 120.099 128.96 120.419 128.96ZM137.405 130.24C136.245 130.24 135.305 130.04 134.585 129.64C133.865 129.227 133.505 128.707 133.505 128.08C133.505 127.707 133.631 127.413 133.885 127.2C134.138 126.987 134.458 126.88 134.845 126.88C135.311 126.88 135.705 127 136.025 127.24C136.025 127.907 136.145 128.407 136.385 128.74C136.638 129.06 137.031 129.22 137.565 129.22C137.978 129.22 138.311 129.12 138.565 128.92C138.818 128.72 138.945 128.447 138.945 128.1C138.945 127.82 138.851 127.587 138.665 127.4C138.478 127.213 138.231 127.053 137.925 126.92C137.631 126.787 137.305 126.66 136.945 126.54C136.491 126.38 136.025 126.193 135.545 125.98C135.078 125.753 134.685 125.453 134.365 125.08C134.058 124.693 133.905 124.193 133.905 123.58C133.905 122.7 134.258 122.013 134.965 121.52C135.671 121.013 136.645 120.76 137.885 120.76C138.591 120.76 139.205 120.84 139.725 121C140.258 121.147 140.671 121.367 140.965 121.66C141.271 121.94 141.425 122.273 141.425 122.66C141.425 123.007 141.298 123.287 141.045 123.5C140.791 123.713 140.465 123.82 140.065 123.82C139.665 123.82 139.331 123.7 139.065 123.46C139.065 122.913 138.938 122.5 138.685 122.22C138.445 121.927 138.091 121.78 137.625 121.78C137.278 121.78 136.998 121.86 136.785 122.02C136.585 122.18 136.485 122.4 136.485 122.68C136.485 122.947 136.578 123.167 136.765 123.34C136.951 123.513 137.191 123.66 137.485 123.78C137.791 123.9 138.125 124.027 138.485 124.16C138.978 124.32 139.471 124.52 139.965 124.76C140.471 124.987 140.891 125.293 141.225 125.68C141.558 126.053 141.725 126.567 141.725 127.22C141.725 127.847 141.545 128.387 141.185 128.84C140.838 129.293 140.338 129.64 139.685 129.88C139.045 130.12 138.285 130.24 137.405 130.24ZM147.294 130.24C146.56 130.24 146 129.993 145.614 129.5C145.227 128.993 145.034 128.22 145.034 127.18V122.48L145.414 122.78L144.094 122.44C144 122.427 143.927 122.32 143.874 122.12C143.82 121.92 143.794 121.653 143.794 121.32C144.474 121.213 145.014 121.14 145.414 121.1C145.827 121.047 146.16 121.02 146.414 121.02C146.974 121.02 147.38 121.127 147.634 121.34C147.887 121.54 148.014 121.873 148.014 122.34V126.78C148.014 127.273 148.114 127.647 148.314 127.9C148.514 128.14 148.807 128.26 149.194 128.26C149.527 128.26 149.827 128.193 150.094 128.06C150.36 127.927 150.594 127.767 150.794 127.58C150.994 127.393 151.147 127.227 151.254 127.08L150.954 127.68V122.48L151.354 122.78L150.034 122.44C149.94 122.427 149.86 122.32 149.794 122.12C149.74 121.92 149.714 121.653 149.714 121.32C150.394 121.213 150.94 121.14 151.354 121.1C151.767 121.047 152.1 121.02 152.354 121.02C152.9 121.02 153.3 121.127 153.554 121.34C153.82 121.54 153.954 121.873 153.954 122.34V127.9C153.954 128.14 154 128.32 154.094 128.44C154.187 128.547 154.334 128.6 154.534 128.6C154.654 128.6 154.78 128.58 154.914 128.54C155.06 128.487 155.18 128.433 155.274 128.38L155.494 129.26C155.174 129.553 154.78 129.793 154.314 129.98C153.86 130.153 153.414 130.24 152.974 130.24C152.427 130.24 151.98 130.087 151.634 129.78C151.3 129.473 151.134 129.047 151.134 128.5H150.994C149.767 129.66 148.534 130.24 147.294 130.24ZM157.375 134.9C157.375 134.22 157.481 133.833 157.695 133.74L158.835 133.24L158.615 133.58V122.44L158.835 122.76L157.675 122.42C157.475 122.353 157.375 121.973 157.375 121.28C158.068 121.173 158.615 121.1 159.015 121.06C159.415 121.007 159.741 120.98 159.995 120.98C160.501 120.98 160.868 121.08 161.095 121.28C161.321 121.48 161.435 121.807 161.435 122.26V122.66L161.355 122.6H161.595C161.955 122.04 162.448 121.593 163.075 121.26C163.701 120.927 164.341 120.76 164.995 120.76C165.661 120.76 166.241 120.94 166.735 121.3C167.228 121.647 167.615 122.147 167.895 122.8C168.175 123.44 168.315 124.193 168.315 125.06C168.315 126.1 168.121 127.013 167.735 127.8C167.348 128.573 166.801 129.173 166.095 129.6C165.401 130.027 164.581 130.24 163.635 130.24C163.261 130.24 162.875 130.2 162.475 130.12C162.088 130.053 161.715 129.953 161.355 129.82L161.595 129.66V133.48L161.355 133.2L163.155 133.64C163.155 133.893 163.121 134.113 163.055 134.3C163.001 134.5 162.901 134.7 162.755 134.9H157.375ZM162.935 128.96C163.668 128.96 164.215 128.673 164.575 128.1C164.948 127.513 165.135 126.653 165.135 125.52C165.135 124.547 164.988 123.82 164.695 123.34C164.415 122.847 163.981 122.6 163.395 122.6C163.061 122.6 162.761 122.68 162.495 122.84C162.241 122.987 162.015 123.173 161.815 123.4C161.628 123.627 161.448 123.86 161.275 124.1L161.535 123.48V128.68L161.275 128.18C161.555 128.433 161.821 128.627 162.075 128.76C162.328 128.893 162.615 128.96 162.935 128.96ZM170.503 134.9C170.503 134.22 170.61 133.833 170.823 133.74L171.963 133.24L171.743 133.58V122.44L171.963 122.76L170.803 122.42C170.603 122.353 170.503 121.973 170.503 121.28C171.197 121.173 171.743 121.1 172.143 121.06C172.543 121.007 172.87 120.98 173.123 120.98C173.63 120.98 173.997 121.08 174.223 121.28C174.45 121.48 174.563 121.807 174.563 122.26V122.66L174.483 122.6H174.723C175.083 122.04 175.577 121.593 176.203 121.26C176.83 120.927 177.47 120.76 178.123 120.76C178.79 120.76 179.37 120.94 179.863 121.3C180.357 121.647 180.743 122.147 181.023 122.8C181.303 123.44 181.443 124.193 181.443 125.06C181.443 126.1 181.25 127.013 180.863 127.8C180.477 128.573 179.93 129.173 179.223 129.6C178.53 130.027 177.71 130.24 176.763 130.24C176.39 130.24 176.003 130.2 175.603 130.12C175.217 130.053 174.843 129.953 174.483 129.82L174.723 129.66V133.48L174.483 133.2L176.283 133.64C176.283 133.893 176.25 134.113 176.183 134.3C176.13 134.5 176.03 134.7 175.883 134.9H170.503ZM176.063 128.96C176.797 128.96 177.343 128.673 177.703 128.1C178.077 127.513 178.263 126.653 178.263 125.52C178.263 124.547 178.117 123.82 177.823 123.34C177.543 122.847 177.11 122.6 176.523 122.6C176.19 122.6 175.89 122.68 175.623 122.84C175.37 122.987 175.143 123.173 174.943 123.4C174.757 123.627 174.577 123.86 174.403 124.1L174.663 123.48V128.68L174.403 128.18C174.683 128.433 174.95 128.627 175.203 128.76C175.457 128.893 175.743 128.96 176.063 128.96ZM188.412 130.24C186.986 130.24 185.866 129.86 185.052 129.1C184.252 128.327 183.852 127.273 183.852 125.94C183.852 124.927 184.079 124.033 184.532 123.26C184.986 122.473 185.619 121.86 186.432 121.42C187.246 120.98 188.186 120.76 189.252 120.76C190.199 120.76 191.019 120.94 191.712 121.3C192.419 121.66 192.966 122.167 193.352 122.82C193.739 123.473 193.932 124.247 193.932 125.14C193.932 126.127 193.699 127.007 193.232 127.78C192.766 128.553 192.112 129.16 191.272 129.6C190.446 130.027 189.492 130.24 188.412 130.24ZM188.912 129.16C189.512 129.16 189.972 128.86 190.292 128.26C190.612 127.647 190.772 126.78 190.772 125.66C190.772 124.46 190.599 123.527 190.252 122.86C189.919 122.18 189.446 121.84 188.832 121.84C188.259 121.84 187.812 122.147 187.492 122.76C187.172 123.373 187.012 124.253 187.012 125.4C187.012 126.613 187.172 127.547 187.492 128.2C187.826 128.84 188.299 129.16 188.912 129.16ZM196.357 130C196.357 129.307 196.463 128.92 196.677 128.84L197.817 128.32L197.597 128.66V122.44L197.837 122.76L196.677 122.42C196.583 122.393 196.503 122.28 196.437 122.08C196.383 121.88 196.357 121.613 196.357 121.28C197.09 121.16 197.65 121.08 198.037 121.04C198.423 121 198.75 120.98 199.017 120.98C199.55 120.98 199.917 121.087 200.117 121.3C200.33 121.5 200.437 121.873 200.437 122.42V123.02L200.197 122.78H200.557C200.85 122.167 201.23 121.68 201.697 121.32C202.163 120.947 202.643 120.76 203.137 120.76C203.723 120.76 204.157 120.893 204.437 121.16C204.73 121.427 204.877 121.807 204.877 122.3C204.877 122.687 204.737 123.02 204.457 123.3C204.19 123.58 203.863 123.72 203.477 123.72C203.317 123.4 203.143 123.18 202.957 123.06C202.77 122.927 202.543 122.86 202.277 122.86C201.983 122.86 201.663 122.967 201.317 123.18C200.97 123.393 200.677 123.673 200.437 124.02L200.597 123.48V128.72L200.297 128.24L202.177 128.72C202.177 128.987 202.15 129.213 202.097 129.4C202.043 129.587 201.943 129.787 201.797 130H196.357ZM209.838 130.24C208.998 130.24 208.378 129.967 207.978 129.42C207.578 128.873 207.378 128.133 207.378 127.2V119.58C207.605 119.433 207.885 119.293 208.218 119.16C208.552 119.027 208.905 118.913 209.278 118.82C209.665 118.713 210.032 118.647 210.378 118.62V126.76C210.378 127.267 210.458 127.647 210.618 127.9C210.792 128.153 211.078 128.28 211.478 128.28C211.705 128.28 211.952 128.24 212.218 128.16C212.485 128.08 212.752 127.947 213.018 127.76L213.458 128.62C213.258 128.9 212.972 129.167 212.598 129.42C212.225 129.66 211.798 129.853 211.318 130C210.838 130.16 210.345 130.24 209.838 130.24ZM212.338 122.7L206.118 122.52C206.118 122.227 206.152 121.947 206.218 121.68C206.285 121.413 206.378 121.24 206.498 121.16L212.838 120.82C212.878 120.9 212.905 120.987 212.918 121.08C212.945 121.16 212.958 121.247 212.958 121.34C212.958 121.687 212.905 121.987 212.798 122.24C212.692 122.48 212.538 122.633 212.338 122.7ZM224.155 130.24C222.995 130.24 222.055 130.04 221.335 129.64C220.615 129.227 220.255 128.707 220.255 128.08C220.255 127.707 220.381 127.413 220.635 127.2C220.888 126.987 221.208 126.88 221.595 126.88C222.061 126.88 222.455 127 222.775 127.24C222.775 127.907 222.895 128.407 223.135 128.74C223.388 129.06 223.781 129.22 224.315 129.22C224.728 129.22 225.061 129.12 225.315 128.92C225.568 128.72 225.695 128.447 225.695 128.1C225.695 127.82 225.601 127.587 225.415 127.4C225.228 127.213 224.981 127.053 224.675 126.92C224.381 126.787 224.055 126.66 223.695 126.54C223.241 126.38 222.775 126.193 222.295 125.98C221.828 125.753 221.435 125.453 221.115 125.08C220.808 124.693 220.655 124.193 220.655 123.58C220.655 122.7 221.008 122.013 221.715 121.52C222.421 121.013 223.395 120.76 224.635 120.76C225.341 120.76 225.955 120.84 226.475 121C227.008 121.147 227.421 121.367 227.715 121.66C228.021 121.94 228.175 122.273 228.175 122.66C228.175 123.007 228.048 123.287 227.795 123.5C227.541 123.713 227.215 123.82 226.815 123.82C226.415 123.82 226.081 123.7 225.815 123.46C225.815 122.913 225.688 122.5 225.435 122.22C225.195 121.927 224.841 121.78 224.375 121.78C224.028 121.78 223.748 121.86 223.535 122.02C223.335 122.18 223.235 122.4 223.235 122.68C223.235 122.947 223.328 123.167 223.515 123.34C223.701 123.513 223.941 123.66 224.235 123.78C224.541 123.9 224.875 124.027 225.235 124.16C225.728 124.32 226.221 124.52 226.715 124.76C227.221 124.987 227.641 125.293 227.975 125.68C228.308 126.053 228.475 126.567 228.475 127.22C228.475 127.847 228.295 128.387 227.935 128.84C227.588 129.293 227.088 129.64 226.435 129.88C225.795 130.12 225.035 130.24 224.155 130.24ZM230.904 130C230.904 129.307 231.01 128.92 231.224 128.84L232.364 128.32L232.144 128.64V122.44L232.384 122.76L231.224 122.42C231.01 122.353 230.904 121.973 230.904 121.28C231.61 121.173 232.164 121.1 232.564 121.06C232.964 121.007 233.297 120.98 233.564 120.98C234.057 120.98 234.417 121.087 234.644 121.3C234.87 121.5 234.984 121.84 234.984 122.32V122.66L234.904 122.62H235.144C235.73 122.033 236.35 121.58 237.004 121.26C237.67 120.927 238.297 120.76 238.884 120.76C239.63 120.76 240.177 121.02 240.524 121.54C240.87 122.047 241.044 122.82 241.044 123.86V128.72L240.804 128.42L241.984 128.72C241.984 128.987 241.95 129.213 241.884 129.4C241.83 129.587 241.737 129.787 241.604 130H237.124C237.124 129.307 237.23 128.92 237.444 128.84L238.264 128.5L238.044 128.82V124.26C238.044 123.273 237.71 122.78 237.044 122.78C236.737 122.78 236.45 122.847 236.184 122.98C235.917 123.1 235.684 123.247 235.484 123.42C235.297 123.593 235.15 123.747 235.044 123.88L235.144 123.54V128.72L234.904 128.42L236.084 128.72C236.084 128.987 236.05 129.213 235.984 129.4C235.93 129.587 235.83 129.787 235.684 130H230.904ZM243.024 130C243.024 129.307 243.13 128.92 243.344 128.84L244.164 128.5L243.944 128.82V124.26C243.944 123.273 243.61 122.78 242.944 122.78C242.53 122.78 242.15 122.9 241.804 123.14C241.457 123.38 241.19 123.607 241.004 123.82L240.704 122.62H241.024C241.624 122.033 242.25 121.58 242.904 121.26C243.57 120.927 244.197 120.76 244.784 120.76C245.53 120.76 246.077 121.02 246.424 121.54C246.77 122.047 246.944 122.813 246.944 123.84V128.56L246.724 128.26L248.184 128.72C248.184 128.987 248.157 129.213 248.104 129.4C248.05 129.587 247.95 129.787 247.804 130H243.024ZM252.42 130.24C251.806 130.24 251.3 130.047 250.9 129.66C250.5 129.273 250.3 128.773 250.3 128.16C250.3 127.413 250.553 126.793 251.06 126.3C251.566 125.793 252.306 125.427 253.28 125.2L255.94 124.6L255.7 124.94V123.7C255.7 123.02 255.613 122.54 255.44 122.26C255.266 121.967 254.973 121.82 254.56 121.82C254.08 121.82 253.713 121.993 253.46 122.34C253.22 122.673 253.093 123.187 253.08 123.88C252.986 124 252.84 124.093 252.64 124.16C252.44 124.227 252.226 124.26 252 124.26C251.613 124.26 251.313 124.167 251.1 123.98C250.886 123.78 250.78 123.52 250.78 123.2C250.78 122.72 250.96 122.3 251.32 121.94C251.693 121.58 252.2 121.293 252.84 121.08C253.48 120.867 254.193 120.76 254.98 120.76C256.18 120.76 257.093 121.027 257.72 121.56C258.36 122.093 258.68 122.88 258.68 123.92V127.9C258.68 128.14 258.726 128.32 258.82 128.44C258.913 128.547 259.066 128.6 259.28 128.6C259.413 128.6 259.546 128.573 259.68 128.52C259.813 128.467 259.926 128.42 260.02 128.38L260.24 129.26C259.92 129.553 259.526 129.793 259.06 129.98C258.606 130.153 258.18 130.24 257.78 130.24C257.18 130.24 256.713 130.087 256.38 129.78C256.046 129.473 255.88 129.047 255.88 128.5H255.72C255.306 129.033 254.8 129.46 254.2 129.78C253.6 130.087 253.006 130.24 252.42 130.24ZM253.94 128.54C254.26 128.54 254.613 128.433 255 128.22C255.4 128.007 255.726 127.74 255.98 127.42L255.72 128.02V125.58L256.06 125.64L254.16 126.1C253.76 126.18 253.453 126.34 253.24 126.58C253.026 126.82 252.92 127.113 252.92 127.46C252.92 127.78 253.013 128.04 253.2 128.24C253.386 128.44 253.633 128.54 253.94 128.54ZM261.96 130C261.96 129.627 261.987 129.353 262.04 129.18C262.094 128.993 262.174 128.88 262.28 128.84L263.56 128.32L263.34 128.64V116.78L263.58 117.08L262.26 116.76C262.06 116.693 261.96 116.313 261.96 115.62C262.494 115.54 263.007 115.473 263.5 115.42C264.007 115.353 264.54 115.32 265.1 115.32C265.927 115.32 266.34 115.773 266.34 116.68V128.56L266.1 128.28L267.9 128.72C267.9 128.987 267.874 129.213 267.82 129.4C267.767 129.587 267.667 129.787 267.52 130H261.96ZM269.679 130C269.679 129.627 269.706 129.353 269.759 129.18C269.813 128.993 269.893 128.88 269.999 128.84L271.279 128.32L271.059 128.64V116.78L271.299 117.08L269.979 116.76C269.779 116.693 269.679 116.313 269.679 115.62C270.213 115.54 270.726 115.473 271.219 115.42C271.726 115.353 272.259 115.32 272.819 115.32C273.646 115.32 274.059 115.773 274.059 116.68V128.56L273.819 128.28L275.619 128.72C275.619 128.987 275.593 129.213 275.539 129.4C275.486 129.587 275.386 129.787 275.239 130H269.679ZM89.5348 153.24C88.8948 153.24 88.2281 153.173 87.5348 153.04C86.8414 152.907 86.2081 152.713 85.6348 152.46V139.78L85.8548 140.1L84.7148 139.76C84.4881 139.693 84.3748 139.313 84.3748 138.62C85.0948 138.513 85.6548 138.44 86.0548 138.4C86.4548 138.347 86.7814 138.32 87.0348 138.32C87.5414 138.32 87.9014 138.42 88.1148 138.62C88.3414 138.82 88.4548 139.147 88.4548 139.6V145.8L88.3748 145.6H88.6348C88.9814 145.04 89.4681 144.593 90.0948 144.26C90.7214 143.927 91.3614 143.76 92.0148 143.76C92.6814 143.76 93.2614 143.94 93.7548 144.3C94.2614 144.647 94.6548 145.147 94.9348 145.8C95.2148 146.44 95.3548 147.193 95.3548 148.06C95.3548 149.1 95.1148 150.013 94.6348 150.8C94.1548 151.573 93.4814 152.173 92.6148 152.6C91.7481 153.027 90.7214 153.24 89.5348 153.24ZM89.9748 151.96C90.6948 151.96 91.2348 151.673 91.5948 151.1C91.9681 150.513 92.1548 149.653 92.1548 148.52C92.1548 147.547 92.0148 146.82 91.7348 146.34C91.4548 145.847 91.0214 145.6 90.4348 145.6C90.0881 145.6 89.7881 145.68 89.5348 145.84C89.2814 145.987 89.0548 146.173 88.8548 146.4C88.6548 146.627 88.4681 146.86 88.2948 147.1L88.5548 146.48V151.68L88.2948 151.18C88.5481 151.433 88.8081 151.627 89.0748 151.76C89.3548 151.893 89.6548 151.96 89.9748 151.96ZM100.909 153.24C100.175 153.24 99.6155 152.993 99.2288 152.5C98.8422 151.993 98.6488 151.22 98.6488 150.18V145.48L99.0288 145.78L97.7088 145.44C97.6155 145.427 97.5422 145.32 97.4888 145.12C97.4355 144.92 97.4088 144.653 97.4088 144.32C98.0888 144.213 98.6288 144.14 99.0288 144.1C99.4422 144.047 99.7755 144.02 100.029 144.02C100.589 144.02 100.995 144.127 101.249 144.34C101.502 144.54 101.629 144.873 101.629 145.34V149.78C101.629 150.273 101.729 150.647 101.929 150.9C102.129 151.14 102.422 151.26 102.809 151.26C103.142 151.26 103.442 151.193 103.709 151.06C103.975 150.927 104.209 150.767 104.409 150.58C104.609 150.393 104.762 150.227 104.869 150.08L104.569 150.68V145.48L104.969 145.78L103.649 145.44C103.555 145.427 103.475 145.32 103.409 145.12C103.355 144.92 103.329 144.653 103.329 144.32C104.009 144.213 104.555 144.14 104.969 144.1C105.382 144.047 105.715 144.02 105.969 144.02C106.515 144.02 106.915 144.127 107.169 144.34C107.435 144.54 107.569 144.873 107.569 145.34V150.9C107.569 151.14 107.615 151.32 107.709 151.44C107.802 151.547 107.949 151.6 108.149 151.6C108.269 151.6 108.395 151.58 108.529 151.54C108.675 151.487 108.795 151.433 108.889 151.38L109.109 152.26C108.789 152.553 108.395 152.793 107.929 152.98C107.475 153.153 107.029 153.24 106.589 153.24C106.042 153.24 105.595 153.087 105.249 152.78C104.915 152.473 104.749 152.047 104.749 151.5H104.609C103.382 152.66 102.149 153.24 100.909 153.24ZM115.11 153.24C113.95 153.24 113.01 153.04 112.29 152.64C111.57 152.227 111.21 151.707 111.21 151.08C111.21 150.707 111.336 150.413 111.59 150.2C111.843 149.987 112.163 149.88 112.55 149.88C113.016 149.88 113.41 150 113.73 150.24C113.73 150.907 113.85 151.407 114.09 151.74C114.343 152.06 114.736 152.22 115.27 152.22C115.683 152.22 116.016 152.12 116.27 151.92C116.523 151.72 116.65 151.447 116.65 151.1C116.65 150.82 116.556 150.587 116.37 150.4C116.183 150.213 115.936 150.053 115.63 149.92C115.336 149.787 115.01 149.66 114.65 149.54C114.196 149.38 113.73 149.193 113.25 148.98C112.783 148.753 112.39 148.453 112.07 148.08C111.763 147.693 111.61 147.193 111.61 146.58C111.61 145.7 111.963 145.013 112.67 144.52C113.376 144.013 114.35 143.76 115.59 143.76C116.296 143.76 116.91 143.84 117.43 144C117.963 144.147 118.376 144.367 118.67 144.66C118.976 144.94 119.13 145.273 119.13 145.66C119.13 146.007 119.003 146.287 118.75 146.5C118.496 146.713 118.17 146.82 117.77 146.82C117.37 146.82 117.036 146.7 116.77 146.46C116.77 145.913 116.643 145.5 116.39 145.22C116.15 144.927 115.796 144.78 115.33 144.78C114.983 144.78 114.703 144.86 114.49 145.02C114.29 145.18 114.19 145.4 114.19 145.68C114.19 145.947 114.283 146.167 114.47 146.34C114.656 146.513 114.896 146.66 115.19 146.78C115.496 146.9 115.83 147.027 116.19 147.16C116.683 147.32 117.176 147.52 117.67 147.76C118.176 147.987 118.596 148.293 118.93 148.68C119.263 149.053 119.43 149.567 119.43 150.22C119.43 150.847 119.25 151.387 118.89 151.84C118.543 152.293 118.043 152.64 117.39 152.88C116.75 153.12 115.99 153.24 115.11 153.24ZM121.859 153C121.859 152.293 121.965 151.907 122.179 151.84L123.479 151.32L123.259 151.64V145.28L123.499 145.58L122.179 145.24C121.965 145.187 121.859 144.807 121.859 144.1C122.405 144.02 122.925 143.953 123.419 143.9C123.925 143.847 124.465 143.82 125.039 143.82C125.852 143.82 126.259 144.267 126.259 145.16V151.56L126.019 151.28L127.819 151.72C127.819 151.987 127.785 152.213 127.719 152.4C127.665 152.587 127.565 152.787 127.419 153H121.859ZM124.659 142.26C124.139 142.26 123.739 142.113 123.459 141.82C123.192 141.527 123.059 141.147 123.059 140.68C123.059 140.213 123.219 139.833 123.539 139.54C123.872 139.233 124.245 139.08 124.659 139.08C125.192 139.08 125.599 139.227 125.879 139.52C126.159 139.813 126.299 140.2 126.299 140.68C126.299 141.133 126.132 141.513 125.799 141.82C125.465 142.113 125.085 142.26 124.659 142.26ZM129.909 153C129.909 152.307 130.016 151.92 130.229 151.84L131.369 151.32L131.149 151.66V145.44L131.389 145.76L130.229 145.42C130.016 145.353 129.909 144.973 129.909 144.28C130.616 144.173 131.169 144.1 131.569 144.06C131.969 144.007 132.303 143.98 132.569 143.98C133.063 143.98 133.423 144.087 133.649 144.3C133.876 144.5 133.989 144.84 133.989 145.32V145.66L133.889 145.62H134.149C134.763 145.033 135.403 144.58 136.069 144.26C136.736 143.927 137.369 143.76 137.969 143.76C139.503 143.76 140.269 144.787 140.269 146.84V151.56L140.049 151.26L141.509 151.72C141.509 151.987 141.483 152.213 141.429 152.4C141.376 152.587 141.276 152.787 141.129 153H136.369C136.369 152.307 136.476 151.92 136.689 151.84L137.489 151.5L137.289 151.84V147.26C137.289 146.273 136.929 145.78 136.209 145.78C135.876 145.78 135.563 145.847 135.269 145.98C134.989 146.1 134.743 146.247 134.529 146.42C134.316 146.593 134.156 146.747 134.049 146.88L134.149 146.54V151.72L133.909 151.42L135.089 151.72C135.089 151.987 135.056 152.213 134.989 152.4C134.936 152.587 134.836 152.787 134.689 153H129.909ZM148.322 153.24C147.415 153.24 146.609 153.053 145.902 152.68C145.209 152.293 144.669 151.767 144.282 151.1C143.895 150.42 143.702 149.64 143.702 148.76C143.702 147.813 143.922 146.96 144.362 146.2C144.802 145.44 145.395 144.847 146.142 144.42C146.902 143.98 147.749 143.76 148.682 143.76C149.495 143.76 150.202 143.927 150.802 144.26C151.402 144.593 151.862 145.06 152.182 145.66C152.515 146.247 152.682 146.947 152.682 147.76C152.682 148.12 152.635 148.36 152.542 148.48C152.449 148.587 152.282 148.64 152.042 148.64H145.842V147.54L150.202 147.42L149.962 147.76C149.975 147.133 149.922 146.6 149.802 146.16C149.695 145.72 149.535 145.393 149.322 145.18C149.109 144.953 148.842 144.84 148.522 144.84C148.042 144.84 147.649 145.113 147.342 145.66C147.035 146.193 146.882 146.94 146.882 147.9C146.882 148.7 146.995 149.38 147.222 149.94C147.449 150.487 147.782 150.907 148.222 151.2C148.662 151.48 149.202 151.62 149.842 151.62C150.295 151.62 150.729 151.533 151.142 151.36C151.555 151.187 151.975 150.913 152.402 150.54L152.742 151.38C152.435 151.74 152.042 152.067 151.562 152.36C151.095 152.64 150.582 152.853 150.022 153C149.475 153.16 148.909 153.24 148.322 153.24ZM159.09 153.24C157.93 153.24 156.99 153.04 156.27 152.64C155.55 152.227 155.19 151.707 155.19 151.08C155.19 150.707 155.317 150.413 155.57 150.2C155.824 149.987 156.144 149.88 156.53 149.88C156.997 149.88 157.39 150 157.71 150.24C157.71 150.907 157.83 151.407 158.07 151.74C158.324 152.06 158.717 152.22 159.25 152.22C159.664 152.22 159.997 152.12 160.25 151.92C160.504 151.72 160.63 151.447 160.63 151.1C160.63 150.82 160.537 150.587 160.35 150.4C160.164 150.213 159.917 150.053 159.61 149.92C159.317 149.787 158.99 149.66 158.63 149.54C158.177 149.38 157.71 149.193 157.23 148.98C156.764 148.753 156.37 148.453 156.05 148.08C155.744 147.693 155.59 147.193 155.59 146.58C155.59 145.7 155.944 145.013 156.65 144.52C157.357 144.013 158.33 143.76 159.57 143.76C160.277 143.76 160.89 143.84 161.41 144C161.944 144.147 162.357 144.367 162.65 144.66C162.957 144.94 163.11 145.273 163.11 145.66C163.11 146.007 162.984 146.287 162.73 146.5C162.477 146.713 162.15 146.82 161.75 146.82C161.35 146.82 161.017 146.7 160.75 146.46C160.75 145.913 160.624 145.5 160.37 145.22C160.13 144.927 159.777 144.78 159.31 144.78C158.964 144.78 158.684 144.86 158.47 145.02C158.27 145.18 158.17 145.4 158.17 145.68C158.17 145.947 158.264 146.167 158.45 146.34C158.637 146.513 158.877 146.66 159.17 146.78C159.477 146.9 159.81 147.027 160.17 147.16C160.664 147.32 161.157 147.52 161.65 147.76C162.157 147.987 162.577 148.293 162.91 148.68C163.244 149.053 163.41 149.567 163.41 150.22C163.41 150.847 163.23 151.387 162.87 151.84C162.524 152.293 162.024 152.64 161.37 152.88C160.73 153.12 159.97 153.24 159.09 153.24ZM169.719 153.24C168.559 153.24 167.619 153.04 166.899 152.64C166.179 152.227 165.819 151.707 165.819 151.08C165.819 150.707 165.946 150.413 166.199 150.2C166.452 149.987 166.772 149.88 167.159 149.88C167.626 149.88 168.019 150 168.339 150.24C168.339 150.907 168.459 151.407 168.699 151.74C168.952 152.06 169.346 152.22 169.879 152.22C170.292 152.22 170.626 152.12 170.879 151.92C171.132 151.72 171.259 151.447 171.259 151.1C171.259 150.82 171.166 150.587 170.979 150.4C170.792 150.213 170.546 150.053 170.239 149.92C169.946 149.787 169.619 149.66 169.259 149.54C168.806 149.38 168.339 149.193 167.859 148.98C167.392 148.753 166.999 148.453 166.679 148.08C166.372 147.693 166.219 147.193 166.219 146.58C166.219 145.7 166.572 145.013 167.279 144.52C167.986 144.013 168.959 143.76 170.199 143.76C170.906 143.76 171.519 143.84 172.039 144C172.572 144.147 172.986 144.367 173.279 144.66C173.586 144.94 173.739 145.273 173.739 145.66C173.739 146.007 173.612 146.287 173.359 146.5C173.106 146.713 172.779 146.82 172.379 146.82C171.979 146.82 171.646 146.7 171.379 146.46C171.379 145.913 171.252 145.5 170.999 145.22C170.759 144.927 170.406 144.78 169.939 144.78C169.592 144.78 169.312 144.86 169.099 145.02C168.899 145.18 168.799 145.4 168.799 145.68C168.799 145.947 168.892 146.167 169.079 146.34C169.266 146.513 169.506 146.66 169.799 146.78C170.106 146.9 170.439 147.027 170.799 147.16C171.292 147.32 171.786 147.52 172.279 147.76C172.786 147.987 173.206 148.293 173.539 148.68C173.872 149.053 174.039 149.567 174.039 150.22C174.039 150.847 173.859 151.387 173.499 151.84C173.152 152.293 172.652 152.64 171.999 152.88C171.359 153.12 170.599 153.24 169.719 153.24ZM181.068 153.24C180.161 153.24 179.355 153.053 178.648 152.68C177.955 152.293 177.415 151.767 177.028 151.1C176.641 150.42 176.448 149.64 176.448 148.76C176.448 147.813 176.668 146.96 177.108 146.2C177.548 145.44 178.141 144.847 178.888 144.42C179.648 143.98 180.495 143.76 181.428 143.76C182.241 143.76 182.948 143.927 183.548 144.26C184.148 144.593 184.608 145.06 184.928 145.66C185.261 146.247 185.428 146.947 185.428 147.76C185.428 148.12 185.381 148.36 185.288 148.48C185.195 148.587 185.028 148.64 184.788 148.64H178.588V147.54L182.948 147.42L182.708 147.76C182.721 147.133 182.668 146.6 182.548 146.16C182.441 145.72 182.281 145.393 182.068 145.18C181.855 144.953 181.588 144.84 181.268 144.84C180.788 144.84 180.395 145.113 180.088 145.66C179.781 146.193 179.628 146.94 179.628 147.9C179.628 148.7 179.741 149.38 179.968 149.94C180.195 150.487 180.528 150.907 180.968 151.2C181.408 151.48 181.948 151.62 182.588 151.62C183.041 151.62 183.475 151.533 183.888 151.36C184.301 151.187 184.721 150.913 185.148 150.54L185.488 151.38C185.181 151.74 184.788 152.067 184.308 152.36C183.841 152.64 183.328 152.853 182.768 153C182.221 153.16 181.655 153.24 181.068 153.24ZM191.836 153.24C190.676 153.24 189.736 153.04 189.016 152.64C188.296 152.227 187.936 151.707 187.936 151.08C187.936 150.707 188.063 150.413 188.316 150.2C188.57 149.987 188.89 149.88 189.276 149.88C189.743 149.88 190.136 150 190.456 150.24C190.456 150.907 190.576 151.407 190.816 151.74C191.07 152.06 191.463 152.22 191.996 152.22C192.41 152.22 192.743 152.12 192.996 151.92C193.25 151.72 193.376 151.447 193.376 151.1C193.376 150.82 193.283 150.587 193.096 150.4C192.91 150.213 192.663 150.053 192.356 149.92C192.063 149.787 191.736 149.66 191.376 149.54C190.923 149.38 190.456 149.193 189.976 148.98C189.51 148.753 189.116 148.453 188.796 148.08C188.49 147.693 188.336 147.193 188.336 146.58C188.336 145.7 188.69 145.013 189.396 144.52C190.103 144.013 191.076 143.76 192.316 143.76C193.023 143.76 193.636 143.84 194.156 144C194.69 144.147 195.103 144.367 195.396 144.66C195.703 144.94 195.856 145.273 195.856 145.66C195.856 146.007 195.73 146.287 195.476 146.5C195.223 146.713 194.896 146.82 194.496 146.82C194.096 146.82 193.763 146.7 193.496 146.46C193.496 145.913 193.37 145.5 193.116 145.22C192.876 144.927 192.523 144.78 192.056 144.78C191.71 144.78 191.43 144.86 191.216 145.02C191.016 145.18 190.916 145.4 190.916 145.68C190.916 145.947 191.01 146.167 191.196 146.34C191.383 146.513 191.623 146.66 191.916 146.78C192.223 146.9 192.556 147.027 192.916 147.16C193.41 147.32 193.903 147.52 194.396 147.76C194.903 147.987 195.323 148.293 195.656 148.68C195.99 149.053 196.156 149.567 196.156 150.22C196.156 150.847 195.976 151.387 195.616 151.84C195.27 152.293 194.77 152.64 194.116 152.88C193.476 153.12 192.716 153.24 191.836 153.24ZM200.365 148.9C200.019 148.9 199.719 148.86 199.465 148.78C199.399 147.953 199.325 147.153 199.245 146.38C199.179 145.607 199.112 144.893 199.045 144.24C198.992 143.573 198.945 143 198.905 142.52C198.865 142.04 198.845 141.687 198.845 141.46C198.845 140.953 198.959 140.567 199.185 140.3C199.425 140.033 199.819 139.9 200.365 139.9C200.899 139.9 201.279 140.033 201.505 140.3C201.732 140.567 201.845 140.953 201.845 141.46C201.845 141.687 201.825 142.04 201.785 142.52C201.759 143 201.712 143.573 201.645 144.24C201.592 144.893 201.525 145.607 201.445 146.38C201.379 147.153 201.312 147.953 201.245 148.78C200.992 148.86 200.699 148.9 200.365 148.9ZM200.385 153.24C199.879 153.24 199.485 153.1 199.205 152.82C198.939 152.527 198.805 152.147 198.805 151.68C198.805 151.24 198.965 150.873 199.285 150.58C199.605 150.273 199.972 150.12 200.385 150.12C200.892 150.12 201.279 150.267 201.545 150.56C201.825 150.84 201.965 151.213 201.965 151.68C201.965 152.133 201.805 152.507 201.485 152.8C201.165 153.093 200.799 153.24 200.385 153.24Z" fill="#644A20"/>
<defs>
<clipPath id="clip0_161_2226">
<rect width="435" height="306" fill="white"/>
</clipPath>
</defs>
</svg>
